<svg width="1363" height="167" viewBox="0 0 1363 167" fill="none" xmlns="http://www.w3.org/2000/svg">
<rect width="1363" height="167" rx="15" fill="#F0F0F0"/>
<path d="M0 15C0 6.71573 6.71573 0 15 0H37V167H15C6.71573 167 0 160.284 0 152V15Z" fill="#424241"/>
<path d="M100.906 54.9219L93.3945 52.2383V49.0859L103.602 53.375V55.6367L100.906 54.9219ZM93.3945 57.1719L100.918 54.4297L103.602 53.7852V56.0352L93.3945 60.3242V57.1719ZM113.504 44.9375H116.48L120.863 57.4648L125.246 44.9375H128.223L122.059 62H119.668L113.504 44.9375ZM111.898 44.9375H114.863L115.402 57.1484V62H111.898V44.9375ZM126.863 44.9375H129.84V62H126.324V57.1484L126.863 44.9375ZM139.555 59.1406V53.4922C139.555 53.0859 139.488 52.7383 139.355 52.4492C139.223 52.1523 139.016 51.9219 138.734 51.7578C138.461 51.5938 138.105 51.5117 137.668 51.5117C137.293 51.5117 136.969 51.5781 136.695 51.7109C136.422 51.8359 136.211 52.0195 136.062 52.2617C135.914 52.4961 135.84 52.7734 135.84 53.0938H132.465C132.465 52.5547 132.59 52.043 132.84 51.5586C133.09 51.0742 133.453 50.6484 133.93 50.2812C134.406 49.9062 134.973 49.6133 135.629 49.4023C136.293 49.1914 137.035 49.0859 137.855 49.0859C138.84 49.0859 139.715 49.25 140.48 49.5781C141.246 49.9062 141.848 50.3984 142.285 51.0547C142.73 51.7109 142.953 52.5312 142.953 53.5156V58.9414C142.953 59.6367 142.996 60.207 143.082 60.6523C143.168 61.0898 143.293 61.4727 143.457 61.8008V62H140.047C139.883 61.6562 139.758 61.2266 139.672 60.7109C139.594 60.1875 139.555 59.6641 139.555 59.1406ZM140 54.2773L140.023 56.1875H138.137C137.691 56.1875 137.305 56.2383 136.977 56.3398C136.648 56.4414 136.379 56.5859 136.168 56.7734C135.957 56.9531 135.801 57.1641 135.699 57.4062C135.605 57.6484 135.559 57.9141 135.559 58.2031C135.559 58.4922 135.625 58.7539 135.758 58.9883C135.891 59.2148 136.082 59.3945 136.332 59.5273C136.582 59.6523 136.875 59.7148 137.211 59.7148C137.719 59.7148 138.16 59.6133 138.535 59.4102C138.91 59.207 139.199 58.957 139.402 58.6602C139.613 58.3633 139.723 58.082 139.73 57.8164L140.621 59.2461C140.496 59.5664 140.324 59.8984 140.105 60.2422C139.895 60.5859 139.625 60.9102 139.297 61.2148C138.969 61.5117 138.574 61.7578 138.113 61.9531C137.652 62.1406 137.105 62.2344 136.473 62.2344C135.668 62.2344 134.938 62.0742 134.281 61.7539C133.633 61.4258 133.117 60.9766 132.734 60.4062C132.359 59.8281 132.172 59.1719 132.172 58.4375C132.172 57.7734 132.297 57.1836 132.547 56.668C132.797 56.1523 133.164 55.7188 133.648 55.3672C134.141 55.0078 134.754 54.7383 135.488 54.5586C136.223 54.3711 137.074 54.2773 138.043 54.2773H140ZM151.766 49.3203V51.7109H144.383V49.3203H151.766ZM146.211 46.1914H149.586V58.1797C149.586 58.5469 149.633 58.8281 149.727 59.0234C149.828 59.2188 149.977 59.3555 150.172 59.4336C150.367 59.5039 150.613 59.5391 150.91 59.5391C151.121 59.5391 151.309 59.5312 151.473 59.5156C151.645 59.4922 151.789 59.4688 151.906 59.4453L151.918 61.9297C151.629 62.0234 151.316 62.0977 150.98 62.1523C150.645 62.207 150.273 62.2344 149.867 62.2344C149.125 62.2344 148.477 62.1133 147.922 61.8711C147.375 61.6211 146.953 61.2227 146.656 60.6758C146.359 60.1289 146.211 59.4102 146.211 58.5195V46.1914ZM156.98 44V62H153.605V44H156.98ZM156.5 55.2148H155.574C155.582 54.332 155.699 53.5195 155.926 52.7773C156.152 52.0273 156.477 51.3789 156.898 50.832C157.32 50.2773 157.824 49.8477 158.41 49.543C159.004 49.2383 159.66 49.0859 160.379 49.0859C161.004 49.0859 161.57 49.1758 162.078 49.3555C162.594 49.5273 163.035 49.8086 163.402 50.1992C163.777 50.582 164.066 51.0859 164.27 51.7109C164.473 52.3359 164.574 53.0938 164.574 53.9844V62H161.176V53.9609C161.176 53.3984 161.094 52.957 160.93 52.6367C160.773 52.3086 160.543 52.0781 160.238 51.9453C159.941 51.8047 159.574 51.7344 159.137 51.7344C158.652 51.7344 158.238 51.8242 157.895 52.0039C157.559 52.1836 157.289 52.4336 157.086 52.7539C156.883 53.0664 156.734 53.4336 156.641 53.8555C156.547 54.2773 156.5 54.7305 156.5 55.2148ZM180.266 47.8555L175.625 62H171.887L178.227 44.9375H180.605L180.266 47.8555ZM184.121 62L179.469 47.8555L179.094 44.9375H181.496L187.871 62H184.121ZM183.91 55.6484V58.4023H174.898V55.6484H183.91ZM196.098 58.4961C196.098 58.2539 196.027 58.0352 195.887 57.8398C195.746 57.6445 195.484 57.4648 195.102 57.3008C194.727 57.1289 194.184 56.9727 193.473 56.832C192.832 56.6914 192.234 56.5156 191.68 56.3047C191.133 56.0859 190.656 55.8242 190.25 55.5195C189.852 55.2148 189.539 54.8555 189.312 54.4414C189.086 54.0195 188.973 53.5391 188.973 53C188.973 52.4688 189.086 51.9688 189.312 51.5C189.547 51.0312 189.879 50.6172 190.309 50.2578C190.746 49.8906 191.277 49.6055 191.902 49.4023C192.535 49.1914 193.246 49.0859 194.035 49.0859C195.137 49.0859 196.082 49.2617 196.871 49.6133C197.668 49.9648 198.277 50.4492 198.699 51.0664C199.129 51.6758 199.344 52.3711 199.344 53.1523H195.969C195.969 52.8242 195.898 52.5312 195.758 52.2734C195.625 52.0078 195.414 51.8008 195.125 51.6523C194.844 51.4961 194.477 51.418 194.023 51.418C193.648 51.418 193.324 51.4844 193.051 51.6172C192.777 51.7422 192.566 51.9141 192.418 52.1328C192.277 52.3438 192.207 52.5781 192.207 52.8359C192.207 53.0312 192.246 53.207 192.324 53.3633C192.41 53.5117 192.547 53.6484 192.734 53.7734C192.922 53.8984 193.164 54.0156 193.461 54.125C193.766 54.2266 194.141 54.3203 194.586 54.4062C195.5 54.5938 196.316 54.8398 197.035 55.1445C197.754 55.4414 198.324 55.8477 198.746 56.3633C199.168 56.8711 199.379 57.5391 199.379 58.3672C199.379 58.9297 199.254 59.4453 199.004 59.9141C198.754 60.3828 198.395 60.793 197.926 61.1445C197.457 61.4883 196.895 61.7578 196.238 61.9531C195.59 62.1406 194.859 62.2344 194.047 62.2344C192.867 62.2344 191.867 62.0234 191.047 61.6016C190.234 61.1797 189.617 60.6445 189.195 59.9961C188.781 59.3398 188.574 58.668 188.574 57.9805H191.773C191.789 58.4414 191.906 58.8125 192.125 59.0938C192.352 59.375 192.637 59.5781 192.98 59.7031C193.332 59.8281 193.711 59.8906 194.117 59.8906C194.555 59.8906 194.918 59.832 195.207 59.7148C195.496 59.5898 195.715 59.4258 195.863 59.2227C196.02 59.0117 196.098 58.7695 196.098 58.4961ZM208.426 58.4961C208.426 58.2539 208.355 58.0352 208.215 57.8398C208.074 57.6445 207.812 57.4648 207.43 57.3008C207.055 57.1289 206.512 56.9727 205.801 56.832C205.16 56.6914 204.562 56.5156 204.008 56.3047C203.461 56.0859 202.984 55.8242 202.578 55.5195C202.18 55.2148 201.867 54.8555 201.641 54.4414C201.414 54.0195 201.301 53.5391 201.301 53C201.301 52.4688 201.414 51.9688 201.641 51.5C201.875 51.0312 202.207 50.6172 202.637 50.2578C203.074 49.8906 203.605 49.6055 204.23 49.4023C204.863 49.1914 205.574 49.0859 206.363 49.0859C207.465 49.0859 208.41 49.2617 209.199 49.6133C209.996 49.9648 210.605 50.4492 211.027 51.0664C211.457 51.6758 211.672 52.3711 211.672 53.1523H208.297C208.297 52.8242 208.227 52.5312 208.086 52.2734C207.953 52.0078 207.742 51.8008 207.453 51.6523C207.172 51.4961 206.805 51.418 206.352 51.418C205.977 51.418 205.652 51.4844 205.379 51.6172C205.105 51.7422 204.895 51.9141 204.746 52.1328C204.605 52.3438 204.535 52.5781 204.535 52.8359C204.535 53.0312 204.574 53.207 204.652 53.3633C204.738 53.5117 204.875 53.6484 205.062 53.7734C205.25 53.8984 205.492 54.0156 205.789 54.125C206.094 54.2266 206.469 54.3203 206.914 54.4062C207.828 54.5938 208.645 54.8398 209.363 55.1445C210.082 55.4414 210.652 55.8477 211.074 56.3633C211.496 56.8711 211.707 57.5391 211.707 58.3672C211.707 58.9297 211.582 59.4453 211.332 59.9141C211.082 60.3828 210.723 60.793 210.254 61.1445C209.785 61.4883 209.223 61.7578 208.566 61.9531C207.918 62.1406 207.188 62.2344 206.375 62.2344C205.195 62.2344 204.195 62.0234 203.375 61.6016C202.562 61.1797 201.945 60.6445 201.523 59.9961C201.109 59.3398 200.902 58.668 200.902 57.9805H204.102C204.117 58.4414 204.234 58.8125 204.453 59.0938C204.68 59.375 204.965 59.5781 205.309 59.7031C205.66 59.8281 206.039 59.8906 206.445 59.8906C206.883 59.8906 207.246 59.832 207.535 59.7148C207.824 59.5898 208.043 59.4258 208.191 59.2227C208.348 59.0117 208.426 58.7695 208.426 58.4961ZM217.461 49.3203V62H214.074V49.3203H217.461ZM213.863 46.0156C213.863 45.5234 214.035 45.1172 214.379 44.7969C214.723 44.4766 215.184 44.3164 215.762 44.3164C216.332 44.3164 216.789 44.4766 217.133 44.7969C217.484 45.1172 217.66 45.5234 217.66 46.0156C217.66 46.5078 217.484 46.9141 217.133 47.2344C216.789 47.5547 216.332 47.7148 215.762 47.7148C215.184 47.7148 214.723 47.5547 214.379 47.2344C214.035 46.9141 213.863 46.5078 213.863 46.0156ZM227.105 58.4961C227.105 58.2539 227.035 58.0352 226.895 57.8398C226.754 57.6445 226.492 57.4648 226.109 57.3008C225.734 57.1289 225.191 56.9727 224.48 56.832C223.84 56.6914 223.242 56.5156 222.688 56.3047C222.141 56.0859 221.664 55.8242 221.258 55.5195C220.859 55.2148 220.547 54.8555 220.32 54.4414C220.094 54.0195 219.98 53.5391 219.98 53C219.98 52.4688 220.094 51.9688 220.32 51.5C220.555 51.0312 220.887 50.6172 221.316 50.2578C221.754 49.8906 222.285 49.6055 222.91 49.4023C223.543 49.1914 224.254 49.0859 225.043 49.0859C226.145 49.0859 227.09 49.2617 227.879 49.6133C228.676 49.9648 229.285 50.4492 229.707 51.0664C230.137 51.6758 230.352 52.3711 230.352 53.1523H226.977C226.977 52.8242 226.906 52.5312 226.766 52.2734C226.633 52.0078 226.422 51.8008 226.133 51.6523C225.852 51.4961 225.484 51.418 225.031 51.418C224.656 51.418 224.332 51.4844 224.059 51.6172C223.785 51.7422 223.574 51.9141 223.426 52.1328C223.285 52.3438 223.215 52.5781 223.215 52.8359C223.215 53.0312 223.254 53.207 223.332 53.3633C223.418 53.5117 223.555 53.6484 223.742 53.7734C223.93 53.8984 224.172 54.0156 224.469 54.125C224.773 54.2266 225.148 54.3203 225.594 54.4062C226.508 54.5938 227.324 54.8398 228.043 55.1445C228.762 55.4414 229.332 55.8477 229.754 56.3633C230.176 56.8711 230.387 57.5391 230.387 58.3672C230.387 58.9297 230.262 59.4453 230.012 59.9141C229.762 60.3828 229.402 60.793 228.934 61.1445C228.465 61.4883 227.902 61.7578 227.246 61.9531C226.598 62.1406 225.867 62.2344 225.055 62.2344C223.875 62.2344 222.875 62.0234 222.055 61.6016C221.242 61.1797 220.625 60.6445 220.203 59.9961C219.789 59.3398 219.582 58.668 219.582 57.9805H222.781C222.797 58.4414 222.914 58.8125 223.133 59.0938C223.359 59.375 223.645 59.5781 223.988 59.7031C224.34 59.8281 224.719 59.8906 225.125 59.8906C225.562 59.8906 225.926 59.832 226.215 59.7148C226.504 59.5898 226.723 59.4258 226.871 59.2227C227.027 59.0117 227.105 58.7695 227.105 58.4961ZM238.789 49.3203V51.7109H231.406V49.3203H238.789ZM233.234 46.1914H236.609V58.1797C236.609 58.5469 236.656 58.8281 236.75 59.0234C236.852 59.2188 237 59.3555 237.195 59.4336C237.391 59.5039 237.637 59.5391 237.934 59.5391C238.145 59.5391 238.332 59.5312 238.496 59.5156C238.668 59.4922 238.812 59.4688 238.93 59.4453L238.941 61.9297C238.652 62.0234 238.34 62.0977 238.004 62.1523C237.668 62.207 237.297 62.2344 236.891 62.2344C236.148 62.2344 235.5 62.1133 234.945 61.8711C234.398 61.6211 233.977 61.2227 233.68 60.6758C233.383 60.1289 233.234 59.4102 233.234 58.5195V46.1914ZM247.555 59.1406V53.4922C247.555 53.0859 247.488 52.7383 247.355 52.4492C247.223 52.1523 247.016 51.9219 246.734 51.7578C246.461 51.5938 246.105 51.5117 245.668 51.5117C245.293 51.5117 244.969 51.5781 244.695 51.7109C244.422 51.8359 244.211 52.0195 244.062 52.2617C243.914 52.4961 243.84 52.7734 243.84 53.0938H240.465C240.465 52.5547 240.59 52.043 240.84 51.5586C241.09 51.0742 241.453 50.6484 241.93 50.2812C242.406 49.9062 242.973 49.6133 243.629 49.4023C244.293 49.1914 245.035 49.0859 245.855 49.0859C246.84 49.0859 247.715 49.25 248.48 49.5781C249.246 49.9062 249.848 50.3984 250.285 51.0547C250.73 51.7109 250.953 52.5312 250.953 53.5156V58.9414C250.953 59.6367 250.996 60.207 251.082 60.6523C251.168 61.0898 251.293 61.4727 251.457 61.8008V62H248.047C247.883 61.6562 247.758 61.2266 247.672 60.7109C247.594 60.1875 247.555 59.6641 247.555 59.1406ZM248 54.2773L248.023 56.1875H246.137C245.691 56.1875 245.305 56.2383 244.977 56.3398C244.648 56.4414 244.379 56.5859 244.168 56.7734C243.957 56.9531 243.801 57.1641 243.699 57.4062C243.605 57.6484 243.559 57.9141 243.559 58.2031C243.559 58.4922 243.625 58.7539 243.758 58.9883C243.891 59.2148 244.082 59.3945 244.332 59.5273C244.582 59.6523 244.875 59.7148 245.211 59.7148C245.719 59.7148 246.16 59.6133 246.535 59.4102C246.91 59.207 247.199 58.957 247.402 58.6602C247.613 58.3633 247.723 58.082 247.73 57.8164L248.621 59.2461C248.496 59.5664 248.324 59.8984 248.105 60.2422C247.895 60.5859 247.625 60.9102 247.297 61.2148C246.969 61.5117 246.574 61.7578 246.113 61.9531C245.652 62.1406 245.105 62.2344 244.473 62.2344C243.668 62.2344 242.938 62.0742 242.281 61.7539C241.633 61.4258 241.117 60.9766 240.734 60.4062C240.359 59.8281 240.172 59.1719 240.172 58.4375C240.172 57.7734 240.297 57.1836 240.547 56.668C240.797 56.1523 241.164 55.7188 241.648 55.3672C242.141 55.0078 242.754 54.7383 243.488 54.5586C244.223 54.3711 245.074 54.2773 246.043 54.2773H248ZM256.859 52.0273V62H253.484V49.3203H256.648L256.859 52.0273ZM256.367 55.2148H255.453C255.453 54.2773 255.574 53.4336 255.816 52.6836C256.059 51.9258 256.398 51.2812 256.836 50.75C257.273 50.2109 257.793 49.8008 258.395 49.5195C259.004 49.2305 259.684 49.0859 260.434 49.0859C261.027 49.0859 261.57 49.1719 262.062 49.3438C262.555 49.5156 262.977 49.7891 263.328 50.1641C263.688 50.5391 263.961 51.0352 264.148 51.6523C264.344 52.2695 264.441 53.0234 264.441 53.9141V62H261.043V53.9023C261.043 53.3398 260.965 52.9023 260.809 52.5898C260.652 52.2773 260.422 52.0586 260.117 51.9336C259.82 51.8008 259.453 51.7344 259.016 51.7344C258.562 51.7344 258.168 51.8242 257.832 52.0039C257.504 52.1836 257.23 52.4336 257.012 52.7539C256.801 53.0664 256.641 53.4336 256.531 53.8555C256.422 54.2773 256.367 54.7305 256.367 55.2148ZM273.219 49.3203V51.7109H265.836V49.3203H273.219ZM267.664 46.1914H271.039V58.1797C271.039 58.5469 271.086 58.8281 271.18 59.0234C271.281 59.2188 271.43 59.3555 271.625 59.4336C271.82 59.5039 272.066 59.5391 272.363 59.5391C272.574 59.5391 272.762 59.5312 272.926 59.5156C273.098 59.4922 273.242 59.4688 273.359 59.4453L273.371 61.9297C273.082 62.0234 272.77 62.0977 272.434 62.1523C272.098 62.207 271.727 62.2344 271.32 62.2344C270.578 62.2344 269.93 62.1133 269.375 61.8711C268.828 61.6211 268.406 61.2227 268.109 60.6758C267.812 60.1289 267.664 59.4102 267.664 58.5195V46.1914Z" fill="#888888"/>
<path d="M107.205 107.146H99.251V101.191H107.205C108.289 101.191 109.168 101.008 109.842 100.642C110.516 100.275 111.006 99.77 111.314 99.1255C111.636 98.4663 111.797 97.7266 111.797 96.9062C111.797 96.0273 111.636 95.2144 111.314 94.4673C111.006 93.7202 110.516 93.1196 109.842 92.6655C109.168 92.1968 108.289 91.9624 107.205 91.9624H102.151V118H94.439V86.0078H107.205C109.769 86.0078 111.973 86.4766 113.819 87.4141C115.679 88.3516 117.107 89.6406 118.104 91.2812C119.1 92.9072 119.598 94.7676 119.598 96.8623C119.598 98.9277 119.1 100.729 118.104 102.268C117.107 103.806 115.679 105.007 113.819 105.871C111.973 106.721 109.769 107.146 107.205 107.146ZM130.87 100.114V118H123.465V94.2256H130.386L130.87 100.114ZM137.901 94.0498L137.769 100.927C137.476 100.898 137.081 100.861 136.583 100.817C136.084 100.773 135.667 100.751 135.33 100.751C134.466 100.751 133.719 100.854 133.089 101.059C132.474 101.25 131.961 101.542 131.551 101.938C131.155 102.319 130.862 102.802 130.672 103.388C130.496 103.974 130.416 104.655 130.43 105.432L129.09 104.553C129.09 102.956 129.244 101.506 129.551 100.202C129.874 98.8838 130.328 97.7485 130.914 96.7964C131.5 95.8296 132.21 95.0898 133.045 94.5771C133.88 94.0498 134.817 93.7861 135.857 93.7861C136.224 93.7861 136.583 93.8081 136.934 93.8521C137.3 93.896 137.623 93.9619 137.901 94.0498ZM138.736 106.354V105.893C138.736 104.15 138.985 102.546 139.483 101.081C139.981 99.6016 140.713 98.3198 141.68 97.2358C142.647 96.1519 143.841 95.3096 145.262 94.709C146.683 94.0938 148.323 93.7861 150.184 93.7861C152.059 93.7861 153.707 94.0938 155.127 94.709C156.563 95.3096 157.764 96.1519 158.731 97.2358C159.698 98.3198 160.43 99.6016 160.928 101.081C161.426 102.546 161.675 104.15 161.675 105.893V106.354C161.675 108.083 161.426 109.687 160.928 111.167C160.43 112.631 159.698 113.913 158.731 115.012C157.764 116.096 156.57 116.938 155.149 117.539C153.729 118.139 152.088 118.439 150.228 118.439C148.367 118.439 146.719 118.139 145.284 117.539C143.848 116.938 142.647 116.096 141.68 115.012C140.713 113.913 139.981 112.631 139.483 111.167C138.985 109.687 138.736 108.083 138.736 106.354ZM146.141 105.893V106.354C146.141 107.248 146.207 108.083 146.338 108.859C146.47 109.636 146.69 110.317 146.998 110.903C147.305 111.474 147.723 111.921 148.25 112.243C148.777 112.565 149.437 112.727 150.228 112.727C151.004 112.727 151.648 112.565 152.161 112.243C152.688 111.921 153.106 111.474 153.414 110.903C153.721 110.317 153.941 109.636 154.073 108.859C154.205 108.083 154.271 107.248 154.271 106.354V105.893C154.271 105.029 154.205 104.216 154.073 103.454C153.941 102.678 153.721 101.997 153.414 101.411C153.106 100.81 152.688 100.341 152.161 100.004C151.634 99.6675 150.975 99.499 150.184 99.499C149.407 99.499 148.755 99.6675 148.228 100.004C147.715 100.341 147.305 100.81 146.998 101.411C146.69 101.997 146.47 102.678 146.338 103.454C146.207 104.216 146.141 105.029 146.141 105.893ZM177.496 94.2256V99.3672H163.169V94.2256H177.496ZM166.18 88.3149H173.584V110.244C173.584 110.874 173.658 111.364 173.804 111.716C173.951 112.053 174.2 112.294 174.551 112.441C174.917 112.573 175.401 112.639 176.001 112.639C176.426 112.639 176.778 112.631 177.056 112.617C177.334 112.587 177.598 112.551 177.847 112.507V117.802C177.217 118.007 176.558 118.161 175.87 118.264C175.181 118.381 174.449 118.439 173.672 118.439C172.09 118.439 170.735 118.19 169.607 117.692C168.494 117.194 167.645 116.411 167.059 115.341C166.473 114.272 166.18 112.88 166.18 111.167V88.3149ZM178.858 106.354V105.893C178.858 104.15 179.107 102.546 179.605 101.081C180.103 99.6016 180.835 98.3198 181.802 97.2358C182.769 96.1519 183.963 95.3096 185.384 94.709C186.805 94.0938 188.445 93.7861 190.306 93.7861C192.181 93.7861 193.829 94.0938 195.25 94.709C196.685 95.3096 197.886 96.1519 198.853 97.2358C199.82 98.3198 200.552 99.6016 201.05 101.081C201.548 102.546 201.797 104.15 201.797 105.893V106.354C201.797 108.083 201.548 109.687 201.05 111.167C200.552 112.631 199.82 113.913 198.853 115.012C197.886 116.096 196.692 116.938 195.271 117.539C193.851 118.139 192.21 118.439 190.35 118.439C188.489 118.439 186.841 118.139 185.406 117.539C183.97 116.938 182.769 116.096 181.802 115.012C180.835 113.913 180.103 112.631 179.605 111.167C179.107 109.687 178.858 108.083 178.858 106.354ZM186.263 105.893V106.354C186.263 107.248 186.329 108.083 186.46 108.859C186.592 109.636 186.812 110.317 187.12 110.903C187.427 111.474 187.845 111.921 188.372 112.243C188.899 112.565 189.559 112.727 190.35 112.727C191.126 112.727 191.771 112.565 192.283 112.243C192.811 111.921 193.228 111.474 193.536 110.903C193.843 110.317 194.063 109.636 194.195 108.859C194.327 108.083 194.393 107.248 194.393 106.354V105.893C194.393 105.029 194.327 104.216 194.195 103.454C194.063 102.678 193.843 101.997 193.536 101.411C193.228 100.81 192.811 100.341 192.283 100.004C191.756 99.6675 191.097 99.499 190.306 99.499C189.529 99.499 188.877 99.6675 188.35 100.004C187.837 100.341 187.427 100.81 187.12 101.411C186.812 101.997 186.592 102.678 186.46 103.454C186.329 104.216 186.263 105.029 186.263 105.893ZM217.618 94.2256V99.3672H203.292V94.2256H217.618ZM206.302 88.3149H213.707V110.244C213.707 110.874 213.78 111.364 213.926 111.716C214.073 112.053 214.322 112.294 214.673 112.441C215.04 112.573 215.523 112.639 216.124 112.639C216.548 112.639 216.9 112.631 217.178 112.617C217.457 112.587 217.72 112.551 217.969 112.507V117.802C217.339 118.007 216.68 118.161 215.992 118.264C215.303 118.381 214.571 118.439 213.794 118.439C212.212 118.439 210.857 118.19 209.729 117.692C208.616 117.194 207.767 116.411 207.181 115.341C206.595 114.272 206.302 112.88 206.302 111.167V88.3149ZM227.857 115.209L234.009 94.2256H241.963L232.405 121.538C232.2 122.138 231.929 122.783 231.592 123.471C231.255 124.174 230.794 124.841 230.208 125.471C229.622 126.101 228.868 126.613 227.945 127.009C227.037 127.404 225.909 127.602 224.561 127.602C223.843 127.602 223.316 127.565 222.979 127.492C222.657 127.434 222.159 127.324 221.485 127.163V121.867C221.675 121.867 221.836 121.867 221.968 121.867C222.115 121.867 222.276 121.867 222.452 121.867C223.243 121.867 223.873 121.787 224.341 121.625C224.825 121.464 225.191 121.23 225.44 120.922C225.704 120.615 225.909 120.241 226.055 119.802L227.857 115.209ZM226.297 94.2256L230.977 110.859L231.79 118.703H226.824L218.365 94.2256H226.297ZM251.368 98.7959V127.141H243.963V94.2256H250.862L251.368 98.7959ZM265.958 105.827V106.289C265.958 108.017 265.76 109.621 265.364 111.101C264.969 112.58 264.383 113.869 263.606 114.968C262.83 116.066 261.863 116.923 260.706 117.539C259.563 118.139 258.238 118.439 256.729 118.439C255.308 118.439 254.085 118.125 253.06 117.495C252.034 116.865 251.177 115.993 250.489 114.88C249.8 113.767 249.244 112.492 248.819 111.057C248.394 109.621 248.057 108.105 247.808 106.508V105.915C248.057 104.201 248.394 102.612 248.819 101.147C249.244 99.6675 249.8 98.3784 250.489 97.2798C251.177 96.1812 252.027 95.3242 253.038 94.709C254.063 94.0938 255.286 93.7861 256.707 93.7861C258.216 93.7861 259.542 94.0718 260.684 94.6431C261.841 95.2144 262.808 96.0347 263.584 97.104C264.375 98.1587 264.969 99.4258 265.364 100.905C265.76 102.385 265.958 104.025 265.958 105.827ZM258.553 106.289V105.827C258.553 104.904 258.487 104.062 258.355 103.3C258.223 102.524 258.011 101.85 257.718 101.279C257.439 100.708 257.066 100.268 256.597 99.9604C256.128 99.6528 255.55 99.499 254.861 99.499C254.07 99.499 253.404 99.6235 252.862 99.8726C252.334 100.107 251.91 100.473 251.587 100.971C251.28 101.455 251.06 102.062 250.928 102.795C250.811 103.513 250.76 104.355 250.774 105.322V107.124C250.745 108.237 250.855 109.218 251.104 110.068C251.353 110.903 251.785 111.555 252.4 112.023C253.016 112.492 253.851 112.727 254.905 112.727C255.608 112.727 256.194 112.565 256.663 112.243C257.132 111.906 257.505 111.445 257.784 110.859C258.062 110.258 258.26 109.57 258.377 108.793C258.494 108.017 258.553 107.182 258.553 106.289ZM277.076 94.2256V118H269.649V94.2256H277.076ZM269.209 88.0952C269.209 87.0405 269.59 86.1763 270.352 85.5024C271.114 84.8286 272.103 84.4917 273.318 84.4917C274.534 84.4917 275.523 84.8286 276.285 85.5024C277.046 86.1763 277.427 87.0405 277.427 88.0952C277.427 89.1499 277.046 90.0142 276.285 90.688C275.523 91.3618 274.534 91.6987 273.318 91.6987C272.103 91.6987 271.114 91.3618 270.352 90.688C269.59 90.0142 269.209 89.1499 269.209 88.0952ZM288.919 99.3013V118H281.514V94.2256H288.458L288.919 99.3013ZM288.04 105.3L286.304 105.344C286.304 103.527 286.524 101.909 286.963 100.488C287.403 99.0522 288.025 97.8364 288.831 96.8403C289.637 95.8442 290.596 95.0898 291.709 94.5771C292.837 94.0498 294.09 93.7861 295.467 93.7861C296.565 93.7861 297.569 93.9473 298.477 94.2695C299.4 94.5918 300.191 95.1118 300.85 95.8296C301.524 96.5474 302.037 97.4995 302.388 98.686C302.754 99.8579 302.938 101.308 302.938 103.037V118H295.489V103.015C295.489 102.062 295.357 101.337 295.093 100.839C294.83 100.327 294.449 99.9751 293.951 99.7847C293.453 99.5942 292.845 99.499 292.127 99.499C291.365 99.499 290.721 99.6455 290.193 99.9385C289.666 100.231 289.241 100.642 288.919 101.169C288.611 101.682 288.384 102.29 288.238 102.993C288.106 103.696 288.04 104.465 288.04 105.3ZM321.988 94.2256H328.711V117.077C328.711 119.274 328.206 121.135 327.195 122.658C326.185 124.196 324.771 125.361 322.955 126.152C321.153 126.958 319.043 127.36 316.626 127.36C315.557 127.36 314.466 127.221 313.353 126.943C312.239 126.679 311.199 126.284 310.232 125.756C309.266 125.229 308.453 124.577 307.793 123.801L310.892 119.45C311.492 120.124 312.247 120.695 313.155 121.164C314.063 121.647 315.132 121.889 316.363 121.889C317.432 121.889 318.326 121.699 319.043 121.318C319.776 120.937 320.333 120.38 320.713 119.648C321.094 118.93 321.285 118.059 321.285 117.033V99.8506L321.988 94.2256ZM306.189 106.398V105.937C306.189 104.135 306.409 102.495 306.849 101.015C307.303 99.521 307.947 98.2393 308.782 97.1699C309.632 96.0859 310.657 95.251 311.858 94.665C313.06 94.0791 314.415 93.7861 315.923 93.7861C317.549 93.7861 318.882 94.1011 319.922 94.731C320.977 95.3462 321.819 96.2104 322.449 97.3237C323.094 98.437 323.592 99.7407 323.943 101.235C324.31 102.714 324.617 104.311 324.866 106.025V106.574C324.617 108.186 324.273 109.709 323.833 111.145C323.409 112.565 322.852 113.825 322.164 114.924C321.475 116.022 320.611 116.887 319.571 117.517C318.545 118.132 317.315 118.439 315.879 118.439C314.385 118.439 313.038 118.139 311.836 117.539C310.65 116.938 309.632 116.096 308.782 115.012C307.947 113.928 307.303 112.653 306.849 111.188C306.409 109.724 306.189 108.127 306.189 106.398ZM313.594 105.937V106.398C313.594 107.292 313.675 108.12 313.836 108.881C314.012 109.643 314.275 110.317 314.627 110.903C314.979 111.474 315.411 111.921 315.923 112.243C316.451 112.565 317.066 112.727 317.769 112.727C318.838 112.727 319.703 112.5 320.362 112.045C321.021 111.591 321.497 110.947 321.79 110.112C322.083 109.277 322.208 108.295 322.164 107.167V105.432C322.193 104.465 322.127 103.615 321.966 102.883C321.805 102.136 321.548 101.513 321.197 101.015C320.86 100.517 320.406 100.144 319.834 99.8945C319.278 99.6309 318.604 99.499 317.813 99.499C317.125 99.499 316.517 99.6602 315.989 99.9824C315.462 100.305 315.022 100.759 314.671 101.345C314.319 101.916 314.048 102.597 313.858 103.388C313.682 104.165 313.594 105.014 313.594 105.937Z" fill="#424241"/>
<path d="M1363 15C1363 6.71573 1356.28 0 1348 0H1134V167H1348C1356.28 167 1363 160.284 1363 152V15Z" fill="#E09E50"/>
<path fill-rule="evenodd" clip-rule="evenodd" d="M1203 49C1203 47.8954 1203.9 47 1205 47H1292.5C1293.6 47 1294.5 47.8954 1294.5 49V118.996C1294.5 120.101 1293.6 120.996 1292.5 120.996H1205C1203.9 120.996 1203 120.101 1203 118.996V49ZM1207 51V55.4945H1290.5V51H1207ZM1290.5 59.4945H1235.44V116.996H1290.5V59.4945ZM1231.44 116.996V59.4945H1207V116.996H1231.44Z" fill="white"/>
<path fill-rule="evenodd" clip-rule="evenodd" d="M1209.97 64.8004C1209.97 63.6958 1210.87 62.8004 1211.97 62.8004H1225.97C1227.08 62.8004 1227.97 63.6958 1227.97 64.8004V84.1955C1227.97 85.3001 1227.08 86.1955 1225.97 86.1955H1211.97C1210.87 86.1955 1209.97 85.3001 1209.97 84.1955V64.8004ZM1213.97 66.8004V82.1955H1223.97V66.8004H1213.97ZM1239.58 65.6964C1239.58 64.5918 1240.47 63.6964 1241.58 63.6964H1284.5C1285.61 63.6964 1286.5 64.5918 1286.5 65.6964V111.905C1286.5 113.01 1285.61 113.905 1284.5 113.905H1241.58C1240.47 113.905 1239.58 113.01 1239.58 111.905V65.6964ZM1243.58 67.6964V109.905H1282.5V67.6964H1243.58ZM1209.81 95.9363C1209.81 94.8317 1210.71 93.9363 1211.81 93.9363H1220.73C1221.84 93.9363 1222.73 94.8317 1222.73 95.9363C1222.73 97.0408 1221.84 97.9363 1220.73 97.9363H1211.81C1210.71 97.9363 1209.81 97.0408 1209.81 95.9363ZM1209.81 102.936C1209.81 101.832 1210.71 100.936 1211.81 100.936H1226.35C1227.46 100.936 1228.35 101.832 1228.35 102.936C1228.35 104.041 1227.46 104.936 1226.35 104.936H1211.81C1210.71 104.936 1209.81 104.041 1209.81 102.936ZM1209.81 109.936C1209.81 108.832 1210.71 107.936 1211.81 107.936H1220.73C1221.84 107.936 1222.73 108.832 1222.73 109.936C1222.73 111.041 1221.84 111.936 1220.73 111.936H1211.81C1210.71 111.936 1209.81 111.041 1209.81 109.936Z" fill="white"/>
</svg>
