<svg width="1363" height="167" viewBox="0 0 1363 167" fill="none" xmlns="http://www.w3.org/2000/svg">
<rect width="1363" height="167" rx="15" fill="#F0F0F0"/>
<path d="M0 15C0 6.71573 6.71573 0 15 0H37V167H15C6.71573 167 0 160.284 0 152V15Z" fill="#424241"/>
<path d="M100.906 54.9219L93.3945 52.2383V49.0859L103.602 53.375V55.6367L100.906 54.9219ZM93.3945 57.1719L100.918 54.4297L103.602 53.7852V56.0352L93.3945 60.3242V57.1719ZM113.504 44.9375H116.48L120.863 57.4648L125.246 44.9375H128.223L122.059 62H119.668L113.504 44.9375ZM111.898 44.9375H114.863L115.402 57.1484V62H111.898V44.9375ZM126.863 44.9375H129.84V62H126.324V57.1484L126.863 44.9375ZM139.555 59.1406V53.4922C139.555 53.0859 139.488 52.7383 139.355 52.4492C139.223 52.1523 139.016 51.9219 138.734 51.7578C138.461 51.5938 138.105 51.5117 137.668 51.5117C137.293 51.5117 136.969 51.5781 136.695 51.7109C136.422 51.8359 136.211 52.0195 136.062 52.2617C135.914 52.4961 135.84 52.7734 135.84 53.0938H132.465C132.465 52.5547 132.59 52.043 132.84 51.5586C133.09 51.0742 133.453 50.6484 133.93 50.2812C134.406 49.9062 134.973 49.6133 135.629 49.4023C136.293 49.1914 137.035 49.0859 137.855 49.0859C138.84 49.0859 139.715 49.25 140.48 49.5781C141.246 49.9062 141.848 50.3984 142.285 51.0547C142.73 51.7109 142.953 52.5312 142.953 53.5156V58.9414C142.953 59.6367 142.996 60.207 143.082 60.6523C143.168 61.0898 143.293 61.4727 143.457 61.8008V62H140.047C139.883 61.6562 139.758 61.2266 139.672 60.7109C139.594 60.1875 139.555 59.6641 139.555 59.1406ZM140 54.2773L140.023 56.1875H138.137C137.691 56.1875 137.305 56.2383 136.977 56.3398C136.648 56.4414 136.379 56.5859 136.168 56.7734C135.957 56.9531 135.801 57.1641 135.699 57.4062C135.605 57.6484 135.559 57.9141 135.559 58.2031C135.559 58.4922 135.625 58.7539 135.758 58.9883C135.891 59.2148 136.082 59.3945 136.332 59.5273C136.582 59.6523 136.875 59.7148 137.211 59.7148C137.719 59.7148 138.16 59.6133 138.535 59.4102C138.91 59.207 139.199 58.957 139.402 58.6602C139.613 58.3633 139.723 58.082 139.73 57.8164L140.621 59.2461C140.496 59.5664 140.324 59.8984 140.105 60.2422C139.895 60.5859 139.625 60.9102 139.297 61.2148C138.969 61.5117 138.574 61.7578 138.113 61.9531C137.652 62.1406 137.105 62.2344 136.473 62.2344C135.668 62.2344 134.938 62.0742 134.281 61.7539C133.633 61.4258 133.117 60.9766 132.734 60.4062C132.359 59.8281 132.172 59.1719 132.172 58.4375C132.172 57.7734 132.297 57.1836 132.547 56.668C132.797 56.1523 133.164 55.7188 133.648 55.3672C134.141 55.0078 134.754 54.7383 135.488 54.5586C136.223 54.3711 137.074 54.2773 138.043 54.2773H140ZM151.766 49.3203V51.7109H144.383V49.3203H151.766ZM146.211 46.1914H149.586V58.1797C149.586 58.5469 149.633 58.8281 149.727 59.0234C149.828 59.2188 149.977 59.3555 150.172 59.4336C150.367 59.5039 150.613 59.5391 150.91 59.5391C151.121 59.5391 151.309 59.5312 151.473 59.5156C151.645 59.4922 151.789 59.4688 151.906 59.4453L151.918 61.9297C151.629 62.0234 151.316 62.0977 150.98 62.1523C150.645 62.207 150.273 62.2344 149.867 62.2344C149.125 62.2344 148.477 62.1133 147.922 61.8711C147.375 61.6211 146.953 61.2227 146.656 60.6758C146.359 60.1289 146.211 59.4102 146.211 58.5195V46.1914ZM156.98 44V62H153.605V44H156.98ZM156.5 55.2148H155.574C155.582 54.332 155.699 53.5195 155.926 52.7773C156.152 52.0273 156.477 51.3789 156.898 50.832C157.32 50.2773 157.824 49.8477 158.41 49.543C159.004 49.2383 159.66 49.0859 160.379 49.0859C161.004 49.0859 161.57 49.1758 162.078 49.3555C162.594 49.5273 163.035 49.8086 163.402 50.1992C163.777 50.582 164.066 51.0859 164.27 51.7109C164.473 52.3359 164.574 53.0938 164.574 53.9844V62H161.176V53.9609C161.176 53.3984 161.094 52.957 160.93 52.6367C160.773 52.3086 160.543 52.0781 160.238 51.9453C159.941 51.8047 159.574 51.7344 159.137 51.7344C158.652 51.7344 158.238 51.8242 157.895 52.0039C157.559 52.1836 157.289 52.4336 157.086 52.7539C156.883 53.0664 156.734 53.4336 156.641 53.8555C156.547 54.2773 156.5 54.7305 156.5 55.2148ZM180.266 47.8555L175.625 62H171.887L178.227 44.9375H180.605L180.266 47.8555ZM184.121 62L179.469 47.8555L179.094 44.9375H181.496L187.871 62H184.121ZM183.91 55.6484V58.4023H174.898V55.6484H183.91ZM196.098 58.4961C196.098 58.2539 196.027 58.0352 195.887 57.8398C195.746 57.6445 195.484 57.4648 195.102 57.3008C194.727 57.1289 194.184 56.9727 193.473 56.832C192.832 56.6914 192.234 56.5156 191.68 56.3047C191.133 56.0859 190.656 55.8242 190.25 55.5195C189.852 55.2148 189.539 54.8555 189.312 54.4414C189.086 54.0195 188.973 53.5391 188.973 53C188.973 52.4688 189.086 51.9688 189.312 51.5C189.547 51.0312 189.879 50.6172 190.309 50.2578C190.746 49.8906 191.277 49.6055 191.902 49.4023C192.535 49.1914 193.246 49.0859 194.035 49.0859C195.137 49.0859 196.082 49.2617 196.871 49.6133C197.668 49.9648 198.277 50.4492 198.699 51.0664C199.129 51.6758 199.344 52.3711 199.344 53.1523H195.969C195.969 52.8242 195.898 52.5312 195.758 52.2734C195.625 52.0078 195.414 51.8008 195.125 51.6523C194.844 51.4961 194.477 51.418 194.023 51.418C193.648 51.418 193.324 51.4844 193.051 51.6172C192.777 51.7422 192.566 51.9141 192.418 52.1328C192.277 52.3438 192.207 52.5781 192.207 52.8359C192.207 53.0312 192.246 53.207 192.324 53.3633C192.41 53.5117 192.547 53.6484 192.734 53.7734C192.922 53.8984 193.164 54.0156 193.461 54.125C193.766 54.2266 194.141 54.3203 194.586 54.4062C195.5 54.5938 196.316 54.8398 197.035 55.1445C197.754 55.4414 198.324 55.8477 198.746 56.3633C199.168 56.8711 199.379 57.5391 199.379 58.3672C199.379 58.9297 199.254 59.4453 199.004 59.9141C198.754 60.3828 198.395 60.793 197.926 61.1445C197.457 61.4883 196.895 61.7578 196.238 61.9531C195.59 62.1406 194.859 62.2344 194.047 62.2344C192.867 62.2344 191.867 62.0234 191.047 61.6016C190.234 61.1797 189.617 60.6445 189.195 59.9961C188.781 59.3398 188.574 58.668 188.574 57.9805H191.773C191.789 58.4414 191.906 58.8125 192.125 59.0938C192.352 59.375 192.637 59.5781 192.98 59.7031C193.332 59.8281 193.711 59.8906 194.117 59.8906C194.555 59.8906 194.918 59.832 195.207 59.7148C195.496 59.5898 195.715 59.4258 195.863 59.2227C196.02 59.0117 196.098 58.7695 196.098 58.4961ZM208.426 58.4961C208.426 58.2539 208.355 58.0352 208.215 57.8398C208.074 57.6445 207.812 57.4648 207.43 57.3008C207.055 57.1289 206.512 56.9727 205.801 56.832C205.16 56.6914 204.562 56.5156 204.008 56.3047C203.461 56.0859 202.984 55.8242 202.578 55.5195C202.18 55.2148 201.867 54.8555 201.641 54.4414C201.414 54.0195 201.301 53.5391 201.301 53C201.301 52.4688 201.414 51.9688 201.641 51.5C201.875 51.0312 202.207 50.6172 202.637 50.2578C203.074 49.8906 203.605 49.6055 204.23 49.4023C204.863 49.1914 205.574 49.0859 206.363 49.0859C207.465 49.0859 208.41 49.2617 209.199 49.6133C209.996 49.9648 210.605 50.4492 211.027 51.0664C211.457 51.6758 211.672 52.3711 211.672 53.1523H208.297C208.297 52.8242 208.227 52.5312 208.086 52.2734C207.953 52.0078 207.742 51.8008 207.453 51.6523C207.172 51.4961 206.805 51.418 206.352 51.418C205.977 51.418 205.652 51.4844 205.379 51.6172C205.105 51.7422 204.895 51.9141 204.746 52.1328C204.605 52.3438 204.535 52.5781 204.535 52.8359C204.535 53.0312 204.574 53.207 204.652 53.3633C204.738 53.5117 204.875 53.6484 205.062 53.7734C205.25 53.8984 205.492 54.0156 205.789 54.125C206.094 54.2266 206.469 54.3203 206.914 54.4062C207.828 54.5938 208.645 54.8398 209.363 55.1445C210.082 55.4414 210.652 55.8477 211.074 56.3633C211.496 56.8711 211.707 57.5391 211.707 58.3672C211.707 58.9297 211.582 59.4453 211.332 59.9141C211.082 60.3828 210.723 60.793 210.254 61.1445C209.785 61.4883 209.223 61.7578 208.566 61.9531C207.918 62.1406 207.188 62.2344 206.375 62.2344C205.195 62.2344 204.195 62.0234 203.375 61.6016C202.562 61.1797 201.945 60.6445 201.523 59.9961C201.109 59.3398 200.902 58.668 200.902 57.9805H204.102C204.117 58.4414 204.234 58.8125 204.453 59.0938C204.68 59.375 204.965 59.5781 205.309 59.7031C205.66 59.8281 206.039 59.8906 206.445 59.8906C206.883 59.8906 207.246 59.832 207.535 59.7148C207.824 59.5898 208.043 59.4258 208.191 59.2227C208.348 59.0117 208.426 58.7695 208.426 58.4961ZM217.461 49.3203V62H214.074V49.3203H217.461ZM213.863 46.0156C213.863 45.5234 214.035 45.1172 214.379 44.7969C214.723 44.4766 215.184 44.3164 215.762 44.3164C216.332 44.3164 216.789 44.4766 217.133 44.7969C217.484 45.1172 217.66 45.5234 217.66 46.0156C217.66 46.5078 217.484 46.9141 217.133 47.2344C216.789 47.5547 216.332 47.7148 215.762 47.7148C215.184 47.7148 214.723 47.5547 214.379 47.2344C214.035 46.9141 213.863 46.5078 213.863 46.0156ZM227.105 58.4961C227.105 58.2539 227.035 58.0352 226.895 57.8398C226.754 57.6445 226.492 57.4648 226.109 57.3008C225.734 57.1289 225.191 56.9727 224.48 56.832C223.84 56.6914 223.242 56.5156 222.688 56.3047C222.141 56.0859 221.664 55.8242 221.258 55.5195C220.859 55.2148 220.547 54.8555 220.32 54.4414C220.094 54.0195 219.98 53.5391 219.98 53C219.98 52.4688 220.094 51.9688 220.32 51.5C220.555 51.0312 220.887 50.6172 221.316 50.2578C221.754 49.8906 222.285 49.6055 222.91 49.4023C223.543 49.1914 224.254 49.0859 225.043 49.0859C226.145 49.0859 227.09 49.2617 227.879 49.6133C228.676 49.9648 229.285 50.4492 229.707 51.0664C230.137 51.6758 230.352 52.3711 230.352 53.1523H226.977C226.977 52.8242 226.906 52.5312 226.766 52.2734C226.633 52.0078 226.422 51.8008 226.133 51.6523C225.852 51.4961 225.484 51.418 225.031 51.418C224.656 51.418 224.332 51.4844 224.059 51.6172C223.785 51.7422 223.574 51.9141 223.426 52.1328C223.285 52.3438 223.215 52.5781 223.215 52.8359C223.215 53.0312 223.254 53.207 223.332 53.3633C223.418 53.5117 223.555 53.6484 223.742 53.7734C223.93 53.8984 224.172 54.0156 224.469 54.125C224.773 54.2266 225.148 54.3203 225.594 54.4062C226.508 54.5938 227.324 54.8398 228.043 55.1445C228.762 55.4414 229.332 55.8477 229.754 56.3633C230.176 56.8711 230.387 57.5391 230.387 58.3672C230.387 58.9297 230.262 59.4453 230.012 59.9141C229.762 60.3828 229.402 60.793 228.934 61.1445C228.465 61.4883 227.902 61.7578 227.246 61.9531C226.598 62.1406 225.867 62.2344 225.055 62.2344C223.875 62.2344 222.875 62.0234 222.055 61.6016C221.242 61.1797 220.625 60.6445 220.203 59.9961C219.789 59.3398 219.582 58.668 219.582 57.9805H222.781C222.797 58.4414 222.914 58.8125 223.133 59.0938C223.359 59.375 223.645 59.5781 223.988 59.7031C224.34 59.8281 224.719 59.8906 225.125 59.8906C225.562 59.8906 225.926 59.832 226.215 59.7148C226.504 59.5898 226.723 59.4258 226.871 59.2227C227.027 59.0117 227.105 58.7695 227.105 58.4961ZM238.789 49.3203V51.7109H231.406V49.3203H238.789ZM233.234 46.1914H236.609V58.1797C236.609 58.5469 236.656 58.8281 236.75 59.0234C236.852 59.2188 237 59.3555 237.195 59.4336C237.391 59.5039 237.637 59.5391 237.934 59.5391C238.145 59.5391 238.332 59.5312 238.496 59.5156C238.668 59.4922 238.812 59.4688 238.93 59.4453L238.941 61.9297C238.652 62.0234 238.34 62.0977 238.004 62.1523C237.668 62.207 237.297 62.2344 236.891 62.2344C236.148 62.2344 235.5 62.1133 234.945 61.8711C234.398 61.6211 233.977 61.2227 233.68 60.6758C233.383 60.1289 233.234 59.4102 233.234 58.5195V46.1914ZM247.555 59.1406V53.4922C247.555 53.0859 247.488 52.7383 247.355 52.4492C247.223 52.1523 247.016 51.9219 246.734 51.7578C246.461 51.5938 246.105 51.5117 245.668 51.5117C245.293 51.5117 244.969 51.5781 244.695 51.7109C244.422 51.8359 244.211 52.0195 244.062 52.2617C243.914 52.4961 243.84 52.7734 243.84 53.0938H240.465C240.465 52.5547 240.59 52.043 240.84 51.5586C241.09 51.0742 241.453 50.6484 241.93 50.2812C242.406 49.9062 242.973 49.6133 243.629 49.4023C244.293 49.1914 245.035 49.0859 245.855 49.0859C246.84 49.0859 247.715 49.25 248.48 49.5781C249.246 49.9062 249.848 50.3984 250.285 51.0547C250.73 51.7109 250.953 52.5312 250.953 53.5156V58.9414C250.953 59.6367 250.996 60.207 251.082 60.6523C251.168 61.0898 251.293 61.4727 251.457 61.8008V62H248.047C247.883 61.6562 247.758 61.2266 247.672 60.7109C247.594 60.1875 247.555 59.6641 247.555 59.1406ZM248 54.2773L248.023 56.1875H246.137C245.691 56.1875 245.305 56.2383 244.977 56.3398C244.648 56.4414 244.379 56.5859 244.168 56.7734C243.957 56.9531 243.801 57.1641 243.699 57.4062C243.605 57.6484 243.559 57.9141 243.559 58.2031C243.559 58.4922 243.625 58.7539 243.758 58.9883C243.891 59.2148 244.082 59.3945 244.332 59.5273C244.582 59.6523 244.875 59.7148 245.211 59.7148C245.719 59.7148 246.16 59.6133 246.535 59.4102C246.91 59.207 247.199 58.957 247.402 58.6602C247.613 58.3633 247.723 58.082 247.73 57.8164L248.621 59.2461C248.496 59.5664 248.324 59.8984 248.105 60.2422C247.895 60.5859 247.625 60.9102 247.297 61.2148C246.969 61.5117 246.574 61.7578 246.113 61.9531C245.652 62.1406 245.105 62.2344 244.473 62.2344C243.668 62.2344 242.938 62.0742 242.281 61.7539C241.633 61.4258 241.117 60.9766 240.734 60.4062C240.359 59.8281 240.172 59.1719 240.172 58.4375C240.172 57.7734 240.297 57.1836 240.547 56.668C240.797 56.1523 241.164 55.7188 241.648 55.3672C242.141 55.0078 242.754 54.7383 243.488 54.5586C244.223 54.3711 245.074 54.2773 246.043 54.2773H248ZM256.859 52.0273V62H253.484V49.3203H256.648L256.859 52.0273ZM256.367 55.2148H255.453C255.453 54.2773 255.574 53.4336 255.816 52.6836C256.059 51.9258 256.398 51.2812 256.836 50.75C257.273 50.2109 257.793 49.8008 258.395 49.5195C259.004 49.2305 259.684 49.0859 260.434 49.0859C261.027 49.0859 261.57 49.1719 262.062 49.3438C262.555 49.5156 262.977 49.7891 263.328 50.1641C263.688 50.5391 263.961 51.0352 264.148 51.6523C264.344 52.2695 264.441 53.0234 264.441 53.9141V62H261.043V53.9023C261.043 53.3398 260.965 52.9023 260.809 52.5898C260.652 52.2773 260.422 52.0586 260.117 51.9336C259.82 51.8008 259.453 51.7344 259.016 51.7344C258.562 51.7344 258.168 51.8242 257.832 52.0039C257.504 52.1836 257.23 52.4336 257.012 52.7539C256.801 53.0664 256.641 53.4336 256.531 53.8555C256.422 54.2773 256.367 54.7305 256.367 55.2148ZM273.219 49.3203V51.7109H265.836V49.3203H273.219ZM267.664 46.1914H271.039V58.1797C271.039 58.5469 271.086 58.8281 271.18 59.0234C271.281 59.2188 271.43 59.3555 271.625 59.4336C271.82 59.5039 272.066 59.5391 272.363 59.5391C272.574 59.5391 272.762 59.5312 272.926 59.5156C273.098 59.4922 273.242 59.4688 273.359 59.4453L273.371 61.9297C273.082 62.0234 272.77 62.0977 272.434 62.1523C272.098 62.207 271.727 62.2344 271.32 62.2344C270.578 62.2344 269.93 62.1133 269.375 61.8711C268.828 61.6211 268.406 61.2227 268.109 60.6758C267.812 60.1289 267.664 59.4102 267.664 58.5195V46.1914Z" fill="#888888"/>
<path d="M107.205 107.146H99.251V101.191H107.205C108.289 101.191 109.168 101.008 109.842 100.642C110.516 100.275 111.006 99.77 111.314 99.1255C111.636 98.4663 111.797 97.7266 111.797 96.9062C111.797 96.0273 111.636 95.2144 111.314 94.4673C111.006 93.7202 110.516 93.1196 109.842 92.6655C109.168 92.1968 108.289 91.9624 107.205 91.9624H102.151V118H94.439V86.0078H107.205C109.769 86.0078 111.973 86.4766 113.819 87.4141C115.679 88.3516 117.107 89.6406 118.104 91.2812C119.1 92.9072 119.598 94.7676 119.598 96.8623C119.598 98.9277 119.1 100.729 118.104 102.268C117.107 103.806 115.679 105.007 113.819 105.871C111.973 106.721 109.769 107.146 107.205 107.146ZM130.87 100.114V118H123.465V94.2256H130.386L130.87 100.114ZM137.901 94.0498L137.769 100.927C137.476 100.898 137.081 100.861 136.583 100.817C136.084 100.773 135.667 100.751 135.33 100.751C134.466 100.751 133.719 100.854 133.089 101.059C132.474 101.25 131.961 101.542 131.551 101.938C131.155 102.319 130.862 102.802 130.672 103.388C130.496 103.974 130.416 104.655 130.43 105.432L129.09 104.553C129.09 102.956 129.244 101.506 129.551 100.202C129.874 98.8838 130.328 97.7485 130.914 96.7964C131.5 95.8296 132.21 95.0898 133.045 94.5771C133.88 94.0498 134.817 93.7861 135.857 93.7861C136.224 93.7861 136.583 93.8081 136.934 93.8521C137.3 93.896 137.623 93.9619 137.901 94.0498ZM138.736 106.354V105.893C138.736 104.15 138.985 102.546 139.483 101.081C139.981 99.6016 140.713 98.3198 141.68 97.2358C142.647 96.1519 143.841 95.3096 145.262 94.709C146.683 94.0938 148.323 93.7861 150.184 93.7861C152.059 93.7861 153.707 94.0938 155.127 94.709C156.563 95.3096 157.764 96.1519 158.731 97.2358C159.698 98.3198 160.43 99.6016 160.928 101.081C161.426 102.546 161.675 104.15 161.675 105.893V106.354C161.675 108.083 161.426 109.687 160.928 111.167C160.43 112.631 159.698 113.913 158.731 115.012C157.764 116.096 156.57 116.938 155.149 117.539C153.729 118.139 152.088 118.439 150.228 118.439C148.367 118.439 146.719 118.139 145.284 117.539C143.848 116.938 142.647 116.096 141.68 115.012C140.713 113.913 139.981 112.631 139.483 111.167C138.985 109.687 138.736 108.083 138.736 106.354ZM146.141 105.893V106.354C146.141 107.248 146.207 108.083 146.338 108.859C146.47 109.636 146.69 110.317 146.998 110.903C147.305 111.474 147.723 111.921 148.25 112.243C148.777 112.565 149.437 112.727 150.228 112.727C151.004 112.727 151.648 112.565 152.161 112.243C152.688 111.921 153.106 111.474 153.414 110.903C153.721 110.317 153.941 109.636 154.073 108.859C154.205 108.083 154.271 107.248 154.271 106.354V105.893C154.271 105.029 154.205 104.216 154.073 103.454C153.941 102.678 153.721 101.997 153.414 101.411C153.106 100.81 152.688 100.341 152.161 100.004C151.634 99.6675 150.975 99.499 150.184 99.499C149.407 99.499 148.755 99.6675 148.228 100.004C147.715 100.341 147.305 100.81 146.998 101.411C146.69 101.997 146.47 102.678 146.338 103.454C146.207 104.216 146.141 105.029 146.141 105.893ZM165.521 94.2256H172.947V118.769C172.947 120.673 172.581 122.277 171.849 123.581C171.116 124.899 170.069 125.896 168.707 126.569C167.344 127.258 165.718 127.602 163.829 127.602C163.199 127.602 162.62 127.573 162.093 127.514C161.551 127.47 160.958 127.375 160.313 127.229V121.625C160.694 121.684 161.045 121.728 161.368 121.757C161.69 121.801 162.042 121.823 162.422 121.823C163.096 121.823 163.66 121.713 164.114 121.494C164.568 121.274 164.913 120.937 165.147 120.483C165.396 120.029 165.521 119.458 165.521 118.769V94.2256ZM164.971 88.0952C164.971 87.0405 165.352 86.1763 166.114 85.5024C166.875 84.8286 167.864 84.4917 169.08 84.4917C170.296 84.4917 171.285 84.8286 172.046 85.5024C172.808 86.1763 173.189 87.0405 173.189 88.0952C173.189 89.1499 172.808 90.0142 172.046 90.688C171.285 91.3618 170.296 91.6987 169.08 91.6987C167.864 91.6987 166.875 91.3618 166.114 90.688C165.352 90.0142 164.971 89.1499 164.971 88.0952ZM188.658 118.439C186.724 118.439 184.996 118.139 183.472 117.539C181.949 116.923 180.66 116.081 179.605 115.012C178.565 113.942 177.767 112.712 177.21 111.32C176.668 109.929 176.397 108.457 176.397 106.904V106.069C176.397 104.326 176.639 102.714 177.122 101.235C177.605 99.7407 178.323 98.437 179.275 97.3237C180.228 96.2104 181.421 95.3462 182.857 94.731C184.292 94.1011 185.962 93.7861 187.867 93.7861C189.551 93.7861 191.06 94.0571 192.393 94.5991C193.726 95.1411 194.854 95.9175 195.777 96.9282C196.714 97.939 197.425 99.1621 197.908 100.598C198.406 102.033 198.655 103.645 198.655 105.432V108.442H179.231V103.806H191.426V103.234C191.441 102.443 191.302 101.77 191.009 101.213C190.73 100.656 190.32 100.231 189.778 99.9385C189.236 99.6455 188.577 99.499 187.801 99.499C186.995 99.499 186.329 99.6748 185.801 100.026C185.289 100.378 184.886 100.861 184.593 101.477C184.314 102.077 184.117 102.773 184 103.564C183.882 104.355 183.824 105.19 183.824 106.069V106.904C183.824 107.783 183.941 108.581 184.175 109.299C184.424 110.017 184.776 110.632 185.23 111.145C185.699 111.643 186.255 112.031 186.9 112.309C187.559 112.587 188.306 112.727 189.141 112.727C190.152 112.727 191.148 112.536 192.129 112.155C193.111 111.774 193.953 111.145 194.656 110.266L198.018 114.265C197.535 114.953 196.846 115.62 195.953 116.264C195.074 116.909 194.019 117.436 192.789 117.846C191.558 118.242 190.181 118.439 188.658 118.439ZM211.707 112.727C212.396 112.727 212.981 112.602 213.465 112.353C213.963 112.089 214.336 111.723 214.585 111.254C214.849 110.771 214.974 110.192 214.959 109.519H221.924C221.939 111.306 221.5 112.873 220.606 114.221C219.727 115.554 218.526 116.594 217.002 117.341C215.494 118.073 213.787 118.439 211.883 118.439C210.022 118.439 208.396 118.139 207.005 117.539C205.613 116.923 204.449 116.074 203.511 114.99C202.588 113.891 201.893 112.609 201.424 111.145C200.97 109.68 200.743 108.09 200.743 106.376V105.871C200.743 104.157 200.97 102.568 201.424 101.103C201.893 99.6235 202.588 98.3418 203.511 97.2578C204.449 96.1592 205.606 95.3096 206.983 94.709C208.375 94.0938 209.993 93.7861 211.839 93.7861C213.816 93.7861 215.56 94.1597 217.068 94.9067C218.592 95.6538 219.786 96.7378 220.65 98.1587C221.514 99.5796 221.939 101.301 221.924 103.322H214.959C214.974 102.604 214.864 101.96 214.629 101.389C214.395 100.817 214.029 100.363 213.531 100.026C213.047 99.6748 212.425 99.499 211.663 99.499C210.901 99.499 210.286 99.6675 209.817 100.004C209.349 100.341 208.99 100.81 208.741 101.411C208.506 101.997 208.345 102.67 208.257 103.432C208.184 104.194 208.147 105.007 208.147 105.871V106.376C208.147 107.255 208.184 108.083 208.257 108.859C208.345 109.621 208.514 110.295 208.763 110.881C209.012 111.452 209.371 111.906 209.839 112.243C210.308 112.565 210.931 112.727 211.707 112.727ZM237.613 94.2256V99.3672H223.287V94.2256H237.613ZM226.297 88.3149H233.702V110.244C233.702 110.874 233.775 111.364 233.921 111.716C234.068 112.053 234.317 112.294 234.668 112.441C235.035 112.573 235.518 112.639 236.119 112.639C236.543 112.639 236.895 112.631 237.173 112.617C237.452 112.587 237.715 112.551 237.964 112.507V117.802C237.334 118.007 236.675 118.161 235.987 118.264C235.298 118.381 234.566 118.439 233.79 118.439C232.208 118.439 230.853 118.19 229.725 117.692C228.611 117.194 227.762 116.411 227.176 115.341C226.59 114.272 226.297 112.88 226.297 111.167V88.3149ZM264.881 107.146H256.927V101.191H264.881C265.965 101.191 266.844 101.008 267.518 100.642C268.191 100.275 268.682 99.77 268.99 99.1255C269.312 98.4663 269.473 97.7266 269.473 96.9062C269.473 96.0273 269.312 95.2144 268.99 94.4673C268.682 93.7202 268.191 93.1196 267.518 92.6655C266.844 92.1968 265.965 91.9624 264.881 91.9624H259.827V118H252.115V86.0078H264.881C267.444 86.0078 269.649 86.4766 271.495 87.4141C273.355 88.3516 274.783 89.6406 275.779 91.2812C276.775 92.9072 277.273 94.7676 277.273 96.8623C277.273 98.9277 276.775 100.729 275.779 102.268C274.783 103.806 273.355 105.007 271.495 105.871C269.649 106.721 267.444 107.146 264.881 107.146ZM288.326 84.25V118H280.921V84.25H288.326ZM287.447 105.3L285.711 105.344C285.711 103.674 285.916 102.136 286.326 100.729C286.736 99.3232 287.322 98.1001 288.084 97.0601C288.846 96.02 289.761 95.2144 290.831 94.6431C291.9 94.0718 293.086 93.7861 294.39 93.7861C295.562 93.7861 296.631 93.9546 297.598 94.2915C298.58 94.6284 299.422 95.1704 300.125 95.9175C300.843 96.6646 301.392 97.6387 301.773 98.8398C302.168 100.041 302.366 101.506 302.366 103.234V118H294.917V103.19C294.917 102.224 294.778 101.477 294.5 100.949C294.236 100.407 293.855 100.034 293.357 99.8286C292.859 99.6089 292.251 99.499 291.534 99.499C290.669 99.499 289.966 99.6455 289.424 99.9385C288.882 100.231 288.465 100.642 288.172 101.169C287.894 101.682 287.703 102.29 287.601 102.993C287.498 103.696 287.447 104.465 287.447 105.3ZM314.297 94.2256V118H306.871V94.2256H314.297ZM306.431 88.0952C306.431 87.0405 306.812 86.1763 307.574 85.5024C308.335 84.8286 309.324 84.4917 310.54 84.4917C311.756 84.4917 312.745 84.8286 313.506 85.5024C314.268 86.1763 314.649 87.0405 314.649 88.0952C314.649 89.1499 314.268 90.0142 313.506 90.688C312.745 91.3618 311.756 91.6987 310.54 91.6987C309.324 91.6987 308.335 91.3618 307.574 90.688C306.812 90.0142 306.431 89.1499 306.431 88.0952ZM326.69 84.25V118H319.263V84.25H326.69ZM330.337 106.354V105.893C330.337 104.15 330.586 102.546 331.084 101.081C331.583 99.6016 332.315 98.3198 333.282 97.2358C334.249 96.1519 335.442 95.3096 336.863 94.709C338.284 94.0938 339.925 93.7861 341.785 93.7861C343.66 93.7861 345.308 94.0938 346.729 94.709C348.165 95.3096 349.366 96.1519 350.333 97.2358C351.299 98.3198 352.032 99.6016 352.53 101.081C353.028 102.546 353.277 104.15 353.277 105.893V106.354C353.277 108.083 353.028 109.687 352.53 111.167C352.032 112.631 351.299 113.913 350.333 115.012C349.366 116.096 348.172 116.938 346.751 117.539C345.33 118.139 343.689 118.439 341.829 118.439C339.969 118.439 338.321 118.139 336.885 117.539C335.45 116.938 334.249 116.096 333.282 115.012C332.315 113.913 331.583 112.631 331.084 111.167C330.586 109.687 330.337 108.083 330.337 106.354ZM337.742 105.893V106.354C337.742 107.248 337.808 108.083 337.94 108.859C338.072 109.636 338.292 110.317 338.599 110.903C338.907 111.474 339.324 111.921 339.852 112.243C340.379 112.565 341.038 112.727 341.829 112.727C342.605 112.727 343.25 112.565 343.763 112.243C344.29 111.921 344.708 111.474 345.015 110.903C345.323 110.317 345.542 109.636 345.674 108.859C345.806 108.083 345.872 107.248 345.872 106.354V105.893C345.872 105.029 345.806 104.216 345.674 103.454C345.542 102.678 345.323 101.997 345.015 101.411C344.708 100.81 344.29 100.341 343.763 100.004C343.235 99.6675 342.576 99.499 341.785 99.499C341.009 99.499 340.357 99.6675 339.83 100.004C339.317 100.341 338.907 100.81 338.599 101.411C338.292 101.997 338.072 102.678 337.94 103.454C337.808 104.216 337.742 105.029 337.742 105.893ZM369.031 111.32C369.031 110.91 368.892 110.559 368.614 110.266C368.35 109.958 367.881 109.68 367.208 109.431C366.534 109.167 365.589 108.903 364.373 108.64C363.216 108.391 362.125 108.061 361.099 107.651C360.088 107.241 359.202 106.743 358.44 106.157C357.679 105.571 357.078 104.875 356.639 104.069C356.214 103.264 356.001 102.341 356.001 101.301C356.001 100.29 356.214 99.3379 356.639 98.4443C357.078 97.5361 357.715 96.7378 358.55 96.0493C359.4 95.3462 360.433 94.7969 361.648 94.4014C362.864 93.9912 364.249 93.7861 365.801 93.7861C367.94 93.7861 369.786 94.1157 371.338 94.7749C372.891 95.4194 374.085 96.3276 374.92 97.4995C375.77 98.6567 376.194 99.9971 376.194 101.521H368.79C368.79 100.92 368.687 100.407 368.482 99.9824C368.292 99.5576 367.977 99.2354 367.537 99.0156C367.098 98.7812 366.512 98.6641 365.779 98.6641C365.267 98.6641 364.798 98.7593 364.373 98.9497C363.963 99.1401 363.633 99.4038 363.384 99.7407C363.135 100.078 363.011 100.473 363.011 100.927C363.011 101.25 363.084 101.542 363.23 101.806C363.392 102.055 363.633 102.29 363.956 102.509C364.278 102.714 364.688 102.905 365.186 103.081C365.684 103.242 366.285 103.388 366.988 103.52C368.584 103.813 370.079 104.23 371.47 104.772C372.862 105.314 373.99 106.083 374.854 107.08C375.733 108.076 376.172 109.416 376.172 111.101C376.172 112.155 375.931 113.129 375.447 114.023C374.964 114.902 374.268 115.678 373.36 116.352C372.452 117.011 371.36 117.524 370.086 117.89C368.812 118.256 367.376 118.439 365.779 118.439C363.509 118.439 361.59 118.037 360.022 117.231C358.455 116.411 357.269 115.385 356.463 114.155C355.672 112.91 355.276 111.65 355.276 110.375H362.176C362.205 111.108 362.381 111.708 362.703 112.177C363.04 112.646 363.487 112.99 364.043 113.21C364.6 113.43 365.245 113.54 365.977 113.54C366.651 113.54 367.208 113.444 367.647 113.254C368.101 113.063 368.445 112.807 368.68 112.485C368.914 112.148 369.031 111.76 369.031 111.32ZM378.721 106.354V105.893C378.721 104.15 378.97 102.546 379.468 101.081C379.966 99.6016 380.699 98.3198 381.666 97.2358C382.632 96.1519 383.826 95.3096 385.247 94.709C386.668 94.0938 388.309 93.7861 390.169 93.7861C392.044 93.7861 393.692 94.0938 395.113 94.709C396.548 95.3096 397.75 96.1519 398.716 97.2358C399.683 98.3198 400.416 99.6016 400.914 101.081C401.412 102.546 401.661 104.15 401.661 105.893V106.354C401.661 108.083 401.412 109.687 400.914 111.167C400.416 112.631 399.683 113.913 398.716 115.012C397.75 116.096 396.556 116.938 395.135 117.539C393.714 118.139 392.073 118.439 390.213 118.439C388.353 118.439 386.705 118.139 385.269 117.539C383.833 116.938 382.632 116.096 381.666 115.012C380.699 113.913 379.966 112.631 379.468 111.167C378.97 109.687 378.721 108.083 378.721 106.354ZM386.126 105.893V106.354C386.126 107.248 386.192 108.083 386.324 108.859C386.456 109.636 386.675 110.317 386.983 110.903C387.291 111.474 387.708 111.921 388.235 112.243C388.763 112.565 389.422 112.727 390.213 112.727C390.989 112.727 391.634 112.565 392.146 112.243C392.674 111.921 393.091 111.474 393.399 110.903C393.707 110.317 393.926 109.636 394.058 108.859C394.19 108.083 394.256 107.248 394.256 106.354V105.893C394.256 105.029 394.19 104.216 394.058 103.454C393.926 102.678 393.707 101.997 393.399 101.411C393.091 100.81 392.674 100.341 392.146 100.004C391.619 99.6675 390.96 99.499 390.169 99.499C389.393 99.499 388.741 99.6675 388.213 100.004C387.701 100.341 387.291 100.81 386.983 101.411C386.675 101.997 386.456 102.678 386.324 103.454C386.192 104.216 386.126 105.029 386.126 105.893ZM412.427 98.7959V127.141H405.022V94.2256H411.922L412.427 98.7959ZM427.017 105.827V106.289C427.017 108.017 426.819 109.621 426.424 111.101C426.028 112.58 425.442 113.869 424.666 114.968C423.89 116.066 422.923 116.923 421.766 117.539C420.623 118.139 419.297 118.439 417.789 118.439C416.368 118.439 415.145 118.125 414.119 117.495C413.094 116.865 412.237 115.993 411.548 114.88C410.86 113.767 410.303 112.492 409.878 111.057C409.454 109.621 409.117 108.105 408.868 106.508V105.915C409.117 104.201 409.454 102.612 409.878 101.147C410.303 99.6675 410.86 98.3784 411.548 97.2798C412.237 96.1812 413.086 95.3242 414.097 94.709C415.123 94.0938 416.346 93.7861 417.767 93.7861C419.275 93.7861 420.601 94.0718 421.744 94.6431C422.901 95.2144 423.868 96.0347 424.644 97.104C425.435 98.1587 426.028 99.4258 426.424 100.905C426.819 102.385 427.017 104.025 427.017 105.827ZM419.612 106.289V105.827C419.612 104.904 419.546 104.062 419.415 103.3C419.283 102.524 419.07 101.85 418.777 101.279C418.499 100.708 418.125 100.268 417.657 99.9604C417.188 99.6528 416.609 99.499 415.921 99.499C415.13 99.499 414.463 99.6235 413.921 99.8726C413.394 100.107 412.969 100.473 412.647 100.971C412.339 101.455 412.12 102.062 411.988 102.795C411.871 103.513 411.819 104.355 411.834 105.322V107.124C411.805 108.237 411.915 109.218 412.164 110.068C412.413 110.903 412.845 111.555 413.46 112.023C414.075 112.492 414.91 112.727 415.965 112.727C416.668 112.727 417.254 112.565 417.723 112.243C418.191 111.906 418.565 111.445 418.843 110.859C419.122 110.258 419.319 109.57 419.437 108.793C419.554 108.017 419.612 107.182 419.612 106.289ZM437.564 84.25V118H430.159V84.25H437.564ZM436.685 105.3L434.949 105.344C434.949 103.674 435.154 102.136 435.564 100.729C435.975 99.3232 436.561 98.1001 437.322 97.0601C438.084 96.02 439 95.2144 440.069 94.6431C441.138 94.0718 442.325 93.7861 443.628 93.7861C444.8 93.7861 445.87 93.9546 446.836 94.2915C447.818 94.6284 448.66 95.1704 449.363 95.9175C450.081 96.6646 450.63 97.6387 451.011 98.8398C451.407 100.041 451.604 101.506 451.604 103.234V118H444.156V103.19C444.156 102.224 444.017 101.477 443.738 100.949C443.475 100.407 443.094 100.034 442.596 99.8286C442.098 99.6089 441.49 99.499 440.772 99.499C439.908 99.499 439.205 99.6455 438.663 99.9385C438.121 100.231 437.703 100.642 437.41 101.169C437.132 101.682 436.941 102.29 436.839 102.993C436.736 103.696 436.685 104.465 436.685 105.3ZM463.008 115.209L469.161 94.2256H477.115L467.557 121.538C467.352 122.138 467.081 122.783 466.744 123.471C466.407 124.174 465.945 124.841 465.359 125.471C464.773 126.101 464.019 126.613 463.096 127.009C462.188 127.404 461.06 127.602 459.712 127.602C458.995 127.602 458.467 127.565 458.13 127.492C457.808 127.434 457.31 127.324 456.636 127.163V121.867C456.827 121.867 456.988 121.867 457.12 121.867C457.266 121.867 457.427 121.867 457.603 121.867C458.394 121.867 459.024 121.787 459.493 121.625C459.976 121.464 460.342 121.23 460.591 120.922C460.855 120.615 461.06 120.241 461.207 119.802L463.008 115.209ZM461.448 94.2256L466.128 110.859L466.941 118.703H461.976L453.516 94.2256H461.448Z" fill="#424241"/>
<path d="M1363 15C1363 6.71573 1356.28 0 1348 0H1134V167H1348C1356.28 167 1363 160.284 1363 152V15Z" fill="#E09E50"/>
<path d="M1234.26 106.286H1262.74V111.857H1234.26V106.286ZM1239.96 117.429H1257.04V123H1239.96V117.429ZM1248.5 45C1240.95 45 1233.71 47.9349 1228.37 53.1592C1223.03 58.3834 1220.03 65.469 1220.03 72.8571C1219.84 76.9057 1220.63 80.9412 1222.34 84.6315C1224.05 88.3219 1226.64 91.5616 1229.88 94.0843C1232.73 96.675 1234.26 98.1514 1234.26 100.714H1239.96C1239.96 95.5886 1236.8 92.7193 1233.72 89.9614C1231.06 87.9676 1228.94 85.3658 1227.55 82.3838C1226.15 79.4019 1225.53 76.1308 1225.72 72.8571C1225.72 66.9466 1228.12 61.2781 1232.39 57.0988C1236.67 52.9194 1242.46 50.5714 1248.5 50.5714C1254.54 50.5714 1260.33 52.9194 1264.61 57.0988C1268.88 61.2781 1271.28 66.9466 1271.28 72.8571C1271.47 76.1333 1270.84 79.4059 1269.44 82.388C1268.04 85.3701 1265.92 87.9706 1263.25 89.9614C1260.2 92.7471 1257.04 95.5329 1257.04 100.714H1262.74C1262.74 98.1514 1264.25 96.675 1267.12 94.0564C1270.36 91.5381 1272.94 88.3031 1274.66 84.6176C1276.37 80.9321 1277.16 76.9014 1276.97 72.8571C1276.97 69.1989 1276.24 65.5765 1274.81 62.1967C1273.37 58.8169 1271.28 55.7459 1268.63 53.1592C1265.99 50.5724 1262.85 48.5205 1259.4 47.1205C1255.94 45.7205 1252.24 45 1248.5 45Z" fill="white"/>
</svg>
