<svg width="1363" height="167" viewBox="0 0 1363 167" fill="none" xmlns="http://www.w3.org/2000/svg">
<rect width="1363" height="167" rx="15" fill="#F0F0F0"/>
<path d="M0 15C0 6.71573 6.71573 0 15 0H37V167H15C6.71573 167 0 160.284 0 152V15Z" fill="#424241"/>
<path d="M100.906 54.9219L93.3945 52.2383V49.0859L103.602 53.375V55.6367L100.906 54.9219ZM93.3945 57.1719L100.918 54.4297L103.602 53.7852V56.0352L93.3945 60.3242V57.1719ZM113.504 44.9375H116.48L120.863 57.4648L125.246 44.9375H128.223L122.059 62H119.668L113.504 44.9375ZM111.898 44.9375H114.863L115.402 57.1484V62H111.898V44.9375ZM126.863 44.9375H129.84V62H126.324V57.1484L126.863 44.9375ZM139.555 59.1406V53.4922C139.555 53.0859 139.488 52.7383 139.355 52.4492C139.223 52.1523 139.016 51.9219 138.734 51.7578C138.461 51.5938 138.105 51.5117 137.668 51.5117C137.293 51.5117 136.969 51.5781 136.695 51.7109C136.422 51.8359 136.211 52.0195 136.062 52.2617C135.914 52.4961 135.84 52.7734 135.84 53.0938H132.465C132.465 52.5547 132.59 52.043 132.84 51.5586C133.09 51.0742 133.453 50.6484 133.93 50.2812C134.406 49.9062 134.973 49.6133 135.629 49.4023C136.293 49.1914 137.035 49.0859 137.855 49.0859C138.84 49.0859 139.715 49.25 140.48 49.5781C141.246 49.9062 141.848 50.3984 142.285 51.0547C142.73 51.7109 142.953 52.5312 142.953 53.5156V58.9414C142.953 59.6367 142.996 60.207 143.082 60.6523C143.168 61.0898 143.293 61.4727 143.457 61.8008V62H140.047C139.883 61.6562 139.758 61.2266 139.672 60.7109C139.594 60.1875 139.555 59.6641 139.555 59.1406ZM140 54.2773L140.023 56.1875H138.137C137.691 56.1875 137.305 56.2383 136.977 56.3398C136.648 56.4414 136.379 56.5859 136.168 56.7734C135.957 56.9531 135.801 57.1641 135.699 57.4062C135.605 57.6484 135.559 57.9141 135.559 58.2031C135.559 58.4922 135.625 58.7539 135.758 58.9883C135.891 59.2148 136.082 59.3945 136.332 59.5273C136.582 59.6523 136.875 59.7148 137.211 59.7148C137.719 59.7148 138.16 59.6133 138.535 59.4102C138.91 59.207 139.199 58.957 139.402 58.6602C139.613 58.3633 139.723 58.082 139.73 57.8164L140.621 59.2461C140.496 59.5664 140.324 59.8984 140.105 60.2422C139.895 60.5859 139.625 60.9102 139.297 61.2148C138.969 61.5117 138.574 61.7578 138.113 61.9531C137.652 62.1406 137.105 62.2344 136.473 62.2344C135.668 62.2344 134.938 62.0742 134.281 61.7539C133.633 61.4258 133.117 60.9766 132.734 60.4062C132.359 59.8281 132.172 59.1719 132.172 58.4375C132.172 57.7734 132.297 57.1836 132.547 56.668C132.797 56.1523 133.164 55.7188 133.648 55.3672C134.141 55.0078 134.754 54.7383 135.488 54.5586C136.223 54.3711 137.074 54.2773 138.043 54.2773H140ZM151.766 49.3203V51.7109H144.383V49.3203H151.766ZM146.211 46.1914H149.586V58.1797C149.586 58.5469 149.633 58.8281 149.727 59.0234C149.828 59.2188 149.977 59.3555 150.172 59.4336C150.367 59.5039 150.613 59.5391 150.91 59.5391C151.121 59.5391 151.309 59.5312 151.473 59.5156C151.645 59.4922 151.789 59.4688 151.906 59.4453L151.918 61.9297C151.629 62.0234 151.316 62.0977 150.98 62.1523C150.645 62.207 150.273 62.2344 149.867 62.2344C149.125 62.2344 148.477 62.1133 147.922 61.8711C147.375 61.6211 146.953 61.2227 146.656 60.6758C146.359 60.1289 146.211 59.4102 146.211 58.5195V46.1914ZM156.98 44V62H153.605V44H156.98ZM156.5 55.2148H155.574C155.582 54.332 155.699 53.5195 155.926 52.7773C156.152 52.0273 156.477 51.3789 156.898 50.832C157.32 50.2773 157.824 49.8477 158.41 49.543C159.004 49.2383 159.66 49.0859 160.379 49.0859C161.004 49.0859 161.57 49.1758 162.078 49.3555C162.594 49.5273 163.035 49.8086 163.402 50.1992C163.777 50.582 164.066 51.0859 164.27 51.7109C164.473 52.3359 164.574 53.0938 164.574 53.9844V62H161.176V53.9609C161.176 53.3984 161.094 52.957 160.93 52.6367C160.773 52.3086 160.543 52.0781 160.238 51.9453C159.941 51.8047 159.574 51.7344 159.137 51.7344C158.652 51.7344 158.238 51.8242 157.895 52.0039C157.559 52.1836 157.289 52.4336 157.086 52.7539C156.883 53.0664 156.734 53.4336 156.641 53.8555C156.547 54.2773 156.5 54.7305 156.5 55.2148ZM180.266 47.8555L175.625 62H171.887L178.227 44.9375H180.605L180.266 47.8555ZM184.121 62L179.469 47.8555L179.094 44.9375H181.496L187.871 62H184.121ZM183.91 55.6484V58.4023H174.898V55.6484H183.91ZM196.098 58.4961C196.098 58.2539 196.027 58.0352 195.887 57.8398C195.746 57.6445 195.484 57.4648 195.102 57.3008C194.727 57.1289 194.184 56.9727 193.473 56.832C192.832 56.6914 192.234 56.5156 191.68 56.3047C191.133 56.0859 190.656 55.8242 190.25 55.5195C189.852 55.2148 189.539 54.8555 189.312 54.4414C189.086 54.0195 188.973 53.5391 188.973 53C188.973 52.4688 189.086 51.9688 189.312 51.5C189.547 51.0312 189.879 50.6172 190.309 50.2578C190.746 49.8906 191.277 49.6055 191.902 49.4023C192.535 49.1914 193.246 49.0859 194.035 49.0859C195.137 49.0859 196.082 49.2617 196.871 49.6133C197.668 49.9648 198.277 50.4492 198.699 51.0664C199.129 51.6758 199.344 52.3711 199.344 53.1523H195.969C195.969 52.8242 195.898 52.5312 195.758 52.2734C195.625 52.0078 195.414 51.8008 195.125 51.6523C194.844 51.4961 194.477 51.418 194.023 51.418C193.648 51.418 193.324 51.4844 193.051 51.6172C192.777 51.7422 192.566 51.9141 192.418 52.1328C192.277 52.3438 192.207 52.5781 192.207 52.8359C192.207 53.0312 192.246 53.207 192.324 53.3633C192.41 53.5117 192.547 53.6484 192.734 53.7734C192.922 53.8984 193.164 54.0156 193.461 54.125C193.766 54.2266 194.141 54.3203 194.586 54.4062C195.5 54.5938 196.316 54.8398 197.035 55.1445C197.754 55.4414 198.324 55.8477 198.746 56.3633C199.168 56.8711 199.379 57.5391 199.379 58.3672C199.379 58.9297 199.254 59.4453 199.004 59.9141C198.754 60.3828 198.395 60.793 197.926 61.1445C197.457 61.4883 196.895 61.7578 196.238 61.9531C195.59 62.1406 194.859 62.2344 194.047 62.2344C192.867 62.2344 191.867 62.0234 191.047 61.6016C190.234 61.1797 189.617 60.6445 189.195 59.9961C188.781 59.3398 188.574 58.668 188.574 57.9805H191.773C191.789 58.4414 191.906 58.8125 192.125 59.0938C192.352 59.375 192.637 59.5781 192.98 59.7031C193.332 59.8281 193.711 59.8906 194.117 59.8906C194.555 59.8906 194.918 59.832 195.207 59.7148C195.496 59.5898 195.715 59.4258 195.863 59.2227C196.02 59.0117 196.098 58.7695 196.098 58.4961ZM208.426 58.4961C208.426 58.2539 208.355 58.0352 208.215 57.8398C208.074 57.6445 207.812 57.4648 207.43 57.3008C207.055 57.1289 206.512 56.9727 205.801 56.832C205.16 56.6914 204.562 56.5156 204.008 56.3047C203.461 56.0859 202.984 55.8242 202.578 55.5195C202.18 55.2148 201.867 54.8555 201.641 54.4414C201.414 54.0195 201.301 53.5391 201.301 53C201.301 52.4688 201.414 51.9688 201.641 51.5C201.875 51.0312 202.207 50.6172 202.637 50.2578C203.074 49.8906 203.605 49.6055 204.23 49.4023C204.863 49.1914 205.574 49.0859 206.363 49.0859C207.465 49.0859 208.41 49.2617 209.199 49.6133C209.996 49.9648 210.605 50.4492 211.027 51.0664C211.457 51.6758 211.672 52.3711 211.672 53.1523H208.297C208.297 52.8242 208.227 52.5312 208.086 52.2734C207.953 52.0078 207.742 51.8008 207.453 51.6523C207.172 51.4961 206.805 51.418 206.352 51.418C205.977 51.418 205.652 51.4844 205.379 51.6172C205.105 51.7422 204.895 51.9141 204.746 52.1328C204.605 52.3438 204.535 52.5781 204.535 52.8359C204.535 53.0312 204.574 53.207 204.652 53.3633C204.738 53.5117 204.875 53.6484 205.062 53.7734C205.25 53.8984 205.492 54.0156 205.789 54.125C206.094 54.2266 206.469 54.3203 206.914 54.4062C207.828 54.5938 208.645 54.8398 209.363 55.1445C210.082 55.4414 210.652 55.8477 211.074 56.3633C211.496 56.8711 211.707 57.5391 211.707 58.3672C211.707 58.9297 211.582 59.4453 211.332 59.9141C211.082 60.3828 210.723 60.793 210.254 61.1445C209.785 61.4883 209.223 61.7578 208.566 61.9531C207.918 62.1406 207.188 62.2344 206.375 62.2344C205.195 62.2344 204.195 62.0234 203.375 61.6016C202.562 61.1797 201.945 60.6445 201.523 59.9961C201.109 59.3398 200.902 58.668 200.902 57.9805H204.102C204.117 58.4414 204.234 58.8125 204.453 59.0938C204.68 59.375 204.965 59.5781 205.309 59.7031C205.66 59.8281 206.039 59.8906 206.445 59.8906C206.883 59.8906 207.246 59.832 207.535 59.7148C207.824 59.5898 208.043 59.4258 208.191 59.2227C208.348 59.0117 208.426 58.7695 208.426 58.4961ZM217.461 49.3203V62H214.074V49.3203H217.461ZM213.863 46.0156C213.863 45.5234 214.035 45.1172 214.379 44.7969C214.723 44.4766 215.184 44.3164 215.762 44.3164C216.332 44.3164 216.789 44.4766 217.133 44.7969C217.484 45.1172 217.66 45.5234 217.66 46.0156C217.66 46.5078 217.484 46.9141 217.133 47.2344C216.789 47.5547 216.332 47.7148 215.762 47.7148C215.184 47.7148 214.723 47.5547 214.379 47.2344C214.035 46.9141 213.863 46.5078 213.863 46.0156ZM227.105 58.4961C227.105 58.2539 227.035 58.0352 226.895 57.8398C226.754 57.6445 226.492 57.4648 226.109 57.3008C225.734 57.1289 225.191 56.9727 224.48 56.832C223.84 56.6914 223.242 56.5156 222.688 56.3047C222.141 56.0859 221.664 55.8242 221.258 55.5195C220.859 55.2148 220.547 54.8555 220.32 54.4414C220.094 54.0195 219.98 53.5391 219.98 53C219.98 52.4688 220.094 51.9688 220.32 51.5C220.555 51.0312 220.887 50.6172 221.316 50.2578C221.754 49.8906 222.285 49.6055 222.91 49.4023C223.543 49.1914 224.254 49.0859 225.043 49.0859C226.145 49.0859 227.09 49.2617 227.879 49.6133C228.676 49.9648 229.285 50.4492 229.707 51.0664C230.137 51.6758 230.352 52.3711 230.352 53.1523H226.977C226.977 52.8242 226.906 52.5312 226.766 52.2734C226.633 52.0078 226.422 51.8008 226.133 51.6523C225.852 51.4961 225.484 51.418 225.031 51.418C224.656 51.418 224.332 51.4844 224.059 51.6172C223.785 51.7422 223.574 51.9141 223.426 52.1328C223.285 52.3438 223.215 52.5781 223.215 52.8359C223.215 53.0312 223.254 53.207 223.332 53.3633C223.418 53.5117 223.555 53.6484 223.742 53.7734C223.93 53.8984 224.172 54.0156 224.469 54.125C224.773 54.2266 225.148 54.3203 225.594 54.4062C226.508 54.5938 227.324 54.8398 228.043 55.1445C228.762 55.4414 229.332 55.8477 229.754 56.3633C230.176 56.8711 230.387 57.5391 230.387 58.3672C230.387 58.9297 230.262 59.4453 230.012 59.9141C229.762 60.3828 229.402 60.793 228.934 61.1445C228.465 61.4883 227.902 61.7578 227.246 61.9531C226.598 62.1406 225.867 62.2344 225.055 62.2344C223.875 62.2344 222.875 62.0234 222.055 61.6016C221.242 61.1797 220.625 60.6445 220.203 59.9961C219.789 59.3398 219.582 58.668 219.582 57.9805H222.781C222.797 58.4414 222.914 58.8125 223.133 59.0938C223.359 59.375 223.645 59.5781 223.988 59.7031C224.34 59.8281 224.719 59.8906 225.125 59.8906C225.562 59.8906 225.926 59.832 226.215 59.7148C226.504 59.5898 226.723 59.4258 226.871 59.2227C227.027 59.0117 227.105 58.7695 227.105 58.4961ZM238.789 49.3203V51.7109H231.406V49.3203H238.789ZM233.234 46.1914H236.609V58.1797C236.609 58.5469 236.656 58.8281 236.75 59.0234C236.852 59.2188 237 59.3555 237.195 59.4336C237.391 59.5039 237.637 59.5391 237.934 59.5391C238.145 59.5391 238.332 59.5312 238.496 59.5156C238.668 59.4922 238.812 59.4688 238.93 59.4453L238.941 61.9297C238.652 62.0234 238.34 62.0977 238.004 62.1523C237.668 62.207 237.297 62.2344 236.891 62.2344C236.148 62.2344 235.5 62.1133 234.945 61.8711C234.398 61.6211 233.977 61.2227 233.68 60.6758C233.383 60.1289 233.234 59.4102 233.234 58.5195V46.1914ZM247.555 59.1406V53.4922C247.555 53.0859 247.488 52.7383 247.355 52.4492C247.223 52.1523 247.016 51.9219 246.734 51.7578C246.461 51.5938 246.105 51.5117 245.668 51.5117C245.293 51.5117 244.969 51.5781 244.695 51.7109C244.422 51.8359 244.211 52.0195 244.062 52.2617C243.914 52.4961 243.84 52.7734 243.84 53.0938H240.465C240.465 52.5547 240.59 52.043 240.84 51.5586C241.09 51.0742 241.453 50.6484 241.93 50.2812C242.406 49.9062 242.973 49.6133 243.629 49.4023C244.293 49.1914 245.035 49.0859 245.855 49.0859C246.84 49.0859 247.715 49.25 248.48 49.5781C249.246 49.9062 249.848 50.3984 250.285 51.0547C250.73 51.7109 250.953 52.5312 250.953 53.5156V58.9414C250.953 59.6367 250.996 60.207 251.082 60.6523C251.168 61.0898 251.293 61.4727 251.457 61.8008V62H248.047C247.883 61.6562 247.758 61.2266 247.672 60.7109C247.594 60.1875 247.555 59.6641 247.555 59.1406ZM248 54.2773L248.023 56.1875H246.137C245.691 56.1875 245.305 56.2383 244.977 56.3398C244.648 56.4414 244.379 56.5859 244.168 56.7734C243.957 56.9531 243.801 57.1641 243.699 57.4062C243.605 57.6484 243.559 57.9141 243.559 58.2031C243.559 58.4922 243.625 58.7539 243.758 58.9883C243.891 59.2148 244.082 59.3945 244.332 59.5273C244.582 59.6523 244.875 59.7148 245.211 59.7148C245.719 59.7148 246.16 59.6133 246.535 59.4102C246.91 59.207 247.199 58.957 247.402 58.6602C247.613 58.3633 247.723 58.082 247.73 57.8164L248.621 59.2461C248.496 59.5664 248.324 59.8984 248.105 60.2422C247.895 60.5859 247.625 60.9102 247.297 61.2148C246.969 61.5117 246.574 61.7578 246.113 61.9531C245.652 62.1406 245.105 62.2344 244.473 62.2344C243.668 62.2344 242.938 62.0742 242.281 61.7539C241.633 61.4258 241.117 60.9766 240.734 60.4062C240.359 59.8281 240.172 59.1719 240.172 58.4375C240.172 57.7734 240.297 57.1836 240.547 56.668C240.797 56.1523 241.164 55.7188 241.648 55.3672C242.141 55.0078 242.754 54.7383 243.488 54.5586C244.223 54.3711 245.074 54.2773 246.043 54.2773H248ZM256.859 52.0273V62H253.484V49.3203H256.648L256.859 52.0273ZM256.367 55.2148H255.453C255.453 54.2773 255.574 53.4336 255.816 52.6836C256.059 51.9258 256.398 51.2812 256.836 50.75C257.273 50.2109 257.793 49.8008 258.395 49.5195C259.004 49.2305 259.684 49.0859 260.434 49.0859C261.027 49.0859 261.57 49.1719 262.062 49.3438C262.555 49.5156 262.977 49.7891 263.328 50.1641C263.688 50.5391 263.961 51.0352 264.148 51.6523C264.344 52.2695 264.441 53.0234 264.441 53.9141V62H261.043V53.9023C261.043 53.3398 260.965 52.9023 260.809 52.5898C260.652 52.2773 260.422 52.0586 260.117 51.9336C259.82 51.8008 259.453 51.7344 259.016 51.7344C258.562 51.7344 258.168 51.8242 257.832 52.0039C257.504 52.1836 257.23 52.4336 257.012 52.7539C256.801 53.0664 256.641 53.4336 256.531 53.8555C256.422 54.2773 256.367 54.7305 256.367 55.2148ZM273.219 49.3203V51.7109H265.836V49.3203H273.219ZM267.664 46.1914H271.039V58.1797C271.039 58.5469 271.086 58.8281 271.18 59.0234C271.281 59.2188 271.43 59.3555 271.625 59.4336C271.82 59.5039 272.066 59.5391 272.363 59.5391C272.574 59.5391 272.762 59.5312 272.926 59.5156C273.098 59.4922 273.242 59.4688 273.359 59.4453L273.371 61.9297C273.082 62.0234 272.77 62.0977 272.434 62.1523C272.098 62.207 271.727 62.2344 271.32 62.2344C270.578 62.2344 269.93 62.1133 269.375 61.8711C268.828 61.6211 268.406 61.2227 268.109 60.6758C267.812 60.1289 267.664 59.4102 267.664 58.5195V46.1914Z" fill="#888888"/>
<path d="M115.994 98.708V104.641H99.5806V98.708H115.994ZM102.151 86.0078V118H94.439V86.0078H102.151ZM121.18 86.0078V118H113.489V86.0078H121.18ZM124.805 106.354V105.893C124.805 104.15 125.054 102.546 125.552 101.081C126.05 99.6016 126.783 98.3198 127.75 97.2358C128.716 96.1519 129.91 95.3096 131.331 94.709C132.752 94.0938 134.393 93.7861 136.253 93.7861C138.128 93.7861 139.776 94.0938 141.197 94.709C142.632 95.3096 143.833 96.1519 144.8 97.2358C145.767 98.3198 146.5 99.6016 146.998 101.081C147.496 102.546 147.745 104.15 147.745 105.893V106.354C147.745 108.083 147.496 109.687 146.998 111.167C146.5 112.631 145.767 113.913 144.8 115.012C143.833 116.096 142.64 116.938 141.219 117.539C139.798 118.139 138.157 118.439 136.297 118.439C134.437 118.439 132.789 118.139 131.353 117.539C129.917 116.938 128.716 116.096 127.75 115.012C126.783 113.913 126.05 112.631 125.552 111.167C125.054 109.687 124.805 108.083 124.805 106.354ZM132.21 105.893V106.354C132.21 107.248 132.276 108.083 132.408 108.859C132.54 109.636 132.759 110.317 133.067 110.903C133.375 111.474 133.792 111.921 134.319 112.243C134.847 112.565 135.506 112.727 136.297 112.727C137.073 112.727 137.718 112.565 138.23 112.243C138.758 111.921 139.175 111.474 139.483 110.903C139.791 110.317 140.01 109.636 140.142 108.859C140.274 108.083 140.34 107.248 140.34 106.354V105.893C140.34 105.029 140.274 104.216 140.142 103.454C140.01 102.678 139.791 101.997 139.483 101.411C139.175 100.81 138.758 100.341 138.23 100.004C137.703 99.6675 137.044 99.499 136.253 99.499C135.477 99.499 134.825 99.6675 134.297 100.004C133.785 100.341 133.375 100.81 133.067 101.411C132.759 101.997 132.54 102.678 132.408 103.454C132.276 104.216 132.21 105.029 132.21 105.893ZM158.27 110.925L162.664 94.2256H167.3L165.652 102.597L161.302 118H157.588L158.27 110.925ZM156.534 94.2256L159.258 110.793L159.566 118H155.062L149.437 94.2256H156.534ZM171.211 110.441L173.958 94.2256H181.055L175.474 118H170.97L171.211 110.441ZM167.828 94.2256L172.266 110.881L172.947 118H169.19L164.927 102.641L163.345 94.2256H167.828ZM209.466 86.0078V118H201.753V86.0078H209.466ZM219.09 86.0078V91.9624H192.349V86.0078H219.09ZM216.475 106.354V105.893C216.475 104.15 216.724 102.546 217.222 101.081C217.72 99.6016 218.453 98.3198 219.419 97.2358C220.386 96.1519 221.58 95.3096 223.001 94.709C224.422 94.0938 226.062 93.7861 227.923 93.7861C229.798 93.7861 231.446 94.0938 232.867 94.709C234.302 95.3096 235.503 96.1519 236.47 97.2358C237.437 98.3198 238.169 99.6016 238.667 101.081C239.166 102.546 239.415 104.15 239.415 105.893V106.354C239.415 108.083 239.166 109.687 238.667 111.167C238.169 112.631 237.437 113.913 236.47 115.012C235.503 116.096 234.31 116.938 232.889 117.539C231.468 118.139 229.827 118.439 227.967 118.439C226.106 118.439 224.458 118.139 223.023 117.539C221.587 116.938 220.386 116.096 219.419 115.012C218.453 113.913 217.72 112.631 217.222 111.167C216.724 109.687 216.475 108.083 216.475 106.354ZM223.88 105.893V106.354C223.88 107.248 223.946 108.083 224.078 108.859C224.209 109.636 224.429 110.317 224.737 110.903C225.044 111.474 225.462 111.921 225.989 112.243C226.517 112.565 227.176 112.727 227.967 112.727C228.743 112.727 229.388 112.565 229.9 112.243C230.428 111.921 230.845 111.474 231.153 110.903C231.46 110.317 231.68 109.636 231.812 108.859C231.944 108.083 232.01 107.248 232.01 106.354V105.893C232.01 105.029 231.944 104.216 231.812 103.454C231.68 102.678 231.46 101.997 231.153 101.411C230.845 100.81 230.428 100.341 229.9 100.004C229.373 99.6675 228.714 99.499 227.923 99.499C227.146 99.499 226.495 99.6675 225.967 100.004C225.455 100.341 225.044 100.81 224.737 101.411C224.429 101.997 224.209 102.678 224.078 103.454C223.946 104.216 223.88 105.029 223.88 105.893ZM254.268 86.0078H266.858C269.319 86.0078 271.458 86.374 273.274 87.1064C275.091 87.8389 276.49 88.9229 277.471 90.3584C278.467 91.7939 278.965 93.5664 278.965 95.6758C278.965 97.5068 278.68 99.0376 278.108 100.268C277.537 101.499 276.739 102.517 275.713 103.322C274.703 104.113 273.523 104.765 272.176 105.278L269.649 106.706H259.08L259.036 100.751H266.858C267.84 100.751 268.653 100.576 269.297 100.224C269.942 99.8726 270.425 99.3745 270.748 98.73C271.084 98.0708 271.253 97.2871 271.253 96.3789C271.253 95.4561 271.084 94.665 270.748 94.0059C270.411 93.3467 269.913 92.8413 269.253 92.4897C268.609 92.1382 267.811 91.9624 266.858 91.9624H261.98V118H254.268V86.0078ZM271.78 118L264.705 103.85L272.879 103.806L280.042 117.67V118H271.78ZM297.159 112.221V94.2256H304.585V118H297.642L297.159 112.221ZM297.862 107.387L299.795 107.343C299.795 108.94 299.605 110.419 299.224 111.782C298.843 113.129 298.279 114.301 297.532 115.297C296.8 116.293 295.892 117.07 294.808 117.626C293.738 118.168 292.5 118.439 291.094 118.439C289.922 118.439 288.846 118.278 287.864 117.956C286.897 117.619 286.062 117.099 285.359 116.396C284.656 115.678 284.107 114.763 283.711 113.649C283.331 112.521 283.14 111.174 283.14 109.606V94.2256H290.545V109.65C290.545 110.178 290.611 110.632 290.743 111.013C290.875 111.394 291.065 111.716 291.314 111.979C291.563 112.229 291.871 112.419 292.237 112.551C292.618 112.668 293.05 112.727 293.533 112.727C294.646 112.727 295.518 112.492 296.148 112.023C296.778 111.555 297.217 110.917 297.466 110.112C297.73 109.306 297.862 108.398 297.862 107.387ZM315.945 99.3013V118H308.541V94.2256H315.484L315.945 99.3013ZM315.066 105.3L313.331 105.344C313.331 103.527 313.55 101.909 313.99 100.488C314.429 99.0522 315.052 97.8364 315.857 96.8403C316.663 95.8442 317.623 95.0898 318.736 94.5771C319.864 94.0498 321.116 93.7861 322.493 93.7861C323.592 93.7861 324.595 93.9473 325.503 94.2695C326.426 94.5918 327.217 95.1118 327.876 95.8296C328.55 96.5474 329.063 97.4995 329.415 98.686C329.781 99.8579 329.964 101.308 329.964 103.037V118H322.515V103.015C322.515 102.062 322.383 101.337 322.12 100.839C321.856 100.327 321.475 99.9751 320.977 99.7847C320.479 99.5942 319.871 99.499 319.153 99.499C318.392 99.499 317.747 99.6455 317.22 99.9385C316.692 100.231 316.268 100.642 315.945 101.169C315.638 101.682 315.411 102.29 315.264 102.993C315.132 103.696 315.066 104.465 315.066 105.3ZM345.85 107.871H339.544C339.544 106.582 339.632 105.446 339.808 104.465C339.998 103.469 340.32 102.575 340.774 101.784C341.229 100.993 341.844 100.261 342.62 99.5869C343.309 99.0156 343.902 98.4663 344.4 97.939C344.898 97.4116 345.279 96.877 345.542 96.335C345.806 95.793 345.938 95.2144 345.938 94.5991C345.938 93.8374 345.828 93.2148 345.608 92.7314C345.403 92.248 345.088 91.8892 344.664 91.6548C344.253 91.4058 343.733 91.2812 343.104 91.2812C342.591 91.2812 342.107 91.4058 341.653 91.6548C341.214 91.9038 340.855 92.292 340.577 92.8193C340.298 93.332 340.145 94.0132 340.115 94.8628H332.667C332.71 92.6802 333.194 90.9077 334.117 89.5454C335.054 88.1685 336.299 87.165 337.852 86.5352C339.419 85.8906 341.17 85.5684 343.104 85.5684C345.242 85.5684 347.081 85.8979 348.619 86.5571C350.157 87.2163 351.336 88.1978 352.156 89.5015C352.977 90.7905 353.387 92.3799 353.387 94.2695C353.387 95.5293 353.145 96.6279 352.662 97.5654C352.193 98.4883 351.556 99.3525 350.75 100.158C349.959 100.949 349.073 101.799 348.091 102.707C347.242 103.454 346.663 104.216 346.355 104.992C346.048 105.754 345.879 106.713 345.85 107.871ZM338.643 114.55C338.643 113.496 339.024 112.617 339.786 111.914C340.547 111.196 341.536 110.837 342.752 110.837C343.968 110.837 344.957 111.196 345.718 111.914C346.48 112.617 346.861 113.496 346.861 114.55C346.861 115.605 346.48 116.491 345.718 117.209C344.957 117.912 343.968 118.264 342.752 118.264C341.536 118.264 340.547 117.912 339.786 117.209C339.024 116.491 338.643 115.605 338.643 114.55Z" fill="#424241"/>
<path d="M1363 15C1363 6.71573 1356.28 0 1348 0H1134V167H1348C1356.28 167 1363 160.284 1363 152V15Z" fill="#E09E50"/>
<path d="M1260.77 81.3079C1263.96 81.3079 1267.09 82.2553 1269.74 84.0303C1272.4 85.8054 1274.47 88.3282 1275.69 91.2799C1276.92 94.2317 1277.24 97.4797 1276.61 100.613C1275.99 103.747 1274.45 106.625 1272.19 108.884C1269.93 111.143 1267.05 112.682 1263.92 113.305C1260.79 113.928 1257.54 113.609 1254.59 112.386C1251.64 111.163 1249.11 109.093 1247.34 106.436C1245.56 103.78 1244.62 100.657 1244.62 97.4617C1244.62 93.1775 1246.32 89.0687 1249.35 86.0393C1252.38 83.0099 1256.48 81.3079 1260.77 81.3079ZM1260.77 75.9233C1256.51 75.9233 1252.35 77.1865 1248.8 79.5532C1245.26 81.9199 1242.5 85.2837 1240.87 89.2193C1239.24 93.155 1238.81 97.4856 1239.64 101.664C1240.48 105.842 1242.53 109.679 1245.54 112.692C1248.55 115.704 1252.39 117.755 1256.57 118.586C1260.75 119.417 1265.08 118.991 1269.01 117.361C1272.95 115.73 1276.31 112.97 1278.68 109.428C1281.04 105.886 1282.31 101.722 1282.31 97.4617C1282.31 91.7494 1280.04 86.271 1276 82.2318C1271.96 78.1926 1266.48 75.9233 1260.77 75.9233Z" fill="white"/>
<path d="M1274.23 49H1220.38C1218.96 49 1217.59 49.5673 1216.58 50.5771C1215.57 51.5869 1215 52.9565 1215 54.3846V108.231C1215 109.659 1215.57 111.028 1216.58 112.038C1217.59 113.048 1218.96 113.615 1220.38 113.615H1231.15V108.231H1220.38V70.5384H1279.62V54.3846C1279.62 52.9565 1279.05 51.5869 1278.04 50.5771C1277.03 49.5673 1275.66 49 1274.23 49ZM1220.38 65.1538V54.3846H1274.23V65.1538H1220.38Z" fill="white"/>
<path d="M1255.38 89.385V105.539L1268.85 97.4619L1255.38 89.385Z" fill="white"/>
</svg>
