<svg width="1363" height="167" viewBox="0 0 1363 167" fill="none" xmlns="http://www.w3.org/2000/svg">
<rect width="1363" height="167" rx="15" fill="#F0F0F0"/>
<path d="M0 15C0 6.71573 6.71573 0 15 0H37V167H15C6.71573 167 0 160.284 0 152V15Z" fill="#424241"/>
<path d="M100.906 54.9219L93.3945 52.2383V49.0859L103.602 53.375V55.6367L100.906 54.9219ZM93.3945 57.1719L100.918 54.4297L103.602 53.7852V56.0352L93.3945 60.3242V57.1719ZM113.504 44.9375H116.48L120.863 57.4648L125.246 44.9375H128.223L122.059 62H119.668L113.504 44.9375ZM111.898 44.9375H114.863L115.402 57.1484V62H111.898V44.9375ZM126.863 44.9375H129.84V62H126.324V57.1484L126.863 44.9375ZM139.555 59.1406V53.4922C139.555 53.0859 139.488 52.7383 139.355 52.4492C139.223 52.1523 139.016 51.9219 138.734 51.7578C138.461 51.5938 138.105 51.5117 137.668 51.5117C137.293 51.5117 136.969 51.5781 136.695 51.7109C136.422 51.8359 136.211 52.0195 136.062 52.2617C135.914 52.4961 135.84 52.7734 135.84 53.0938H132.465C132.465 52.5547 132.59 52.043 132.84 51.5586C133.09 51.0742 133.453 50.6484 133.93 50.2812C134.406 49.9062 134.973 49.6133 135.629 49.4023C136.293 49.1914 137.035 49.0859 137.855 49.0859C138.84 49.0859 139.715 49.25 140.48 49.5781C141.246 49.9062 141.848 50.3984 142.285 51.0547C142.73 51.7109 142.953 52.5312 142.953 53.5156V58.9414C142.953 59.6367 142.996 60.207 143.082 60.6523C143.168 61.0898 143.293 61.4727 143.457 61.8008V62H140.047C139.883 61.6562 139.758 61.2266 139.672 60.7109C139.594 60.1875 139.555 59.6641 139.555 59.1406ZM140 54.2773L140.023 56.1875H138.137C137.691 56.1875 137.305 56.2383 136.977 56.3398C136.648 56.4414 136.379 56.5859 136.168 56.7734C135.957 56.9531 135.801 57.1641 135.699 57.4062C135.605 57.6484 135.559 57.9141 135.559 58.2031C135.559 58.4922 135.625 58.7539 135.758 58.9883C135.891 59.2148 136.082 59.3945 136.332 59.5273C136.582 59.6523 136.875 59.7148 137.211 59.7148C137.719 59.7148 138.16 59.6133 138.535 59.4102C138.91 59.207 139.199 58.957 139.402 58.6602C139.613 58.3633 139.723 58.082 139.73 57.8164L140.621 59.2461C140.496 59.5664 140.324 59.8984 140.105 60.2422C139.895 60.5859 139.625 60.9102 139.297 61.2148C138.969 61.5117 138.574 61.7578 138.113 61.9531C137.652 62.1406 137.105 62.2344 136.473 62.2344C135.668 62.2344 134.938 62.0742 134.281 61.7539C133.633 61.4258 133.117 60.9766 132.734 60.4062C132.359 59.8281 132.172 59.1719 132.172 58.4375C132.172 57.7734 132.297 57.1836 132.547 56.668C132.797 56.1523 133.164 55.7188 133.648 55.3672C134.141 55.0078 134.754 54.7383 135.488 54.5586C136.223 54.3711 137.074 54.2773 138.043 54.2773H140ZM151.766 49.3203V51.7109H144.383V49.3203H151.766ZM146.211 46.1914H149.586V58.1797C149.586 58.5469 149.633 58.8281 149.727 59.0234C149.828 59.2188 149.977 59.3555 150.172 59.4336C150.367 59.5039 150.613 59.5391 150.91 59.5391C151.121 59.5391 151.309 59.5312 151.473 59.5156C151.645 59.4922 151.789 59.4688 151.906 59.4453L151.918 61.9297C151.629 62.0234 151.316 62.0977 150.98 62.1523C150.645 62.207 150.273 62.2344 149.867 62.2344C149.125 62.2344 148.477 62.1133 147.922 61.8711C147.375 61.6211 146.953 61.2227 146.656 60.6758C146.359 60.1289 146.211 59.4102 146.211 58.5195V46.1914ZM156.98 44V62H153.605V44H156.98ZM156.5 55.2148H155.574C155.582 54.332 155.699 53.5195 155.926 52.7773C156.152 52.0273 156.477 51.3789 156.898 50.832C157.32 50.2773 157.824 49.8477 158.41 49.543C159.004 49.2383 159.66 49.0859 160.379 49.0859C161.004 49.0859 161.57 49.1758 162.078 49.3555C162.594 49.5273 163.035 49.8086 163.402 50.1992C163.777 50.582 164.066 51.0859 164.27 51.7109C164.473 52.3359 164.574 53.0938 164.574 53.9844V62H161.176V53.9609C161.176 53.3984 161.094 52.957 160.93 52.6367C160.773 52.3086 160.543 52.0781 160.238 51.9453C159.941 51.8047 159.574 51.7344 159.137 51.7344C158.652 51.7344 158.238 51.8242 157.895 52.0039C157.559 52.1836 157.289 52.4336 157.086 52.7539C156.883 53.0664 156.734 53.4336 156.641 53.8555C156.547 54.2773 156.5 54.7305 156.5 55.2148ZM180.266 47.8555L175.625 62H171.887L178.227 44.9375H180.605L180.266 47.8555ZM184.121 62L179.469 47.8555L179.094 44.9375H181.496L187.871 62H184.121ZM183.91 55.6484V58.4023H174.898V55.6484H183.91ZM196.098 58.4961C196.098 58.2539 196.027 58.0352 195.887 57.8398C195.746 57.6445 195.484 57.4648 195.102 57.3008C194.727 57.1289 194.184 56.9727 193.473 56.832C192.832 56.6914 192.234 56.5156 191.68 56.3047C191.133 56.0859 190.656 55.8242 190.25 55.5195C189.852 55.2148 189.539 54.8555 189.312 54.4414C189.086 54.0195 188.973 53.5391 188.973 53C188.973 52.4688 189.086 51.9688 189.312 51.5C189.547 51.0312 189.879 50.6172 190.309 50.2578C190.746 49.8906 191.277 49.6055 191.902 49.4023C192.535 49.1914 193.246 49.0859 194.035 49.0859C195.137 49.0859 196.082 49.2617 196.871 49.6133C197.668 49.9648 198.277 50.4492 198.699 51.0664C199.129 51.6758 199.344 52.3711 199.344 53.1523H195.969C195.969 52.8242 195.898 52.5312 195.758 52.2734C195.625 52.0078 195.414 51.8008 195.125 51.6523C194.844 51.4961 194.477 51.418 194.023 51.418C193.648 51.418 193.324 51.4844 193.051 51.6172C192.777 51.7422 192.566 51.9141 192.418 52.1328C192.277 52.3438 192.207 52.5781 192.207 52.8359C192.207 53.0312 192.246 53.207 192.324 53.3633C192.41 53.5117 192.547 53.6484 192.734 53.7734C192.922 53.8984 193.164 54.0156 193.461 54.125C193.766 54.2266 194.141 54.3203 194.586 54.4062C195.5 54.5938 196.316 54.8398 197.035 55.1445C197.754 55.4414 198.324 55.8477 198.746 56.3633C199.168 56.8711 199.379 57.5391 199.379 58.3672C199.379 58.9297 199.254 59.4453 199.004 59.9141C198.754 60.3828 198.395 60.793 197.926 61.1445C197.457 61.4883 196.895 61.7578 196.238 61.9531C195.59 62.1406 194.859 62.2344 194.047 62.2344C192.867 62.2344 191.867 62.0234 191.047 61.6016C190.234 61.1797 189.617 60.6445 189.195 59.9961C188.781 59.3398 188.574 58.668 188.574 57.9805H191.773C191.789 58.4414 191.906 58.8125 192.125 59.0938C192.352 59.375 192.637 59.5781 192.98 59.7031C193.332 59.8281 193.711 59.8906 194.117 59.8906C194.555 59.8906 194.918 59.832 195.207 59.7148C195.496 59.5898 195.715 59.4258 195.863 59.2227C196.02 59.0117 196.098 58.7695 196.098 58.4961ZM208.426 58.4961C208.426 58.2539 208.355 58.0352 208.215 57.8398C208.074 57.6445 207.812 57.4648 207.43 57.3008C207.055 57.1289 206.512 56.9727 205.801 56.832C205.16 56.6914 204.562 56.5156 204.008 56.3047C203.461 56.0859 202.984 55.8242 202.578 55.5195C202.18 55.2148 201.867 54.8555 201.641 54.4414C201.414 54.0195 201.301 53.5391 201.301 53C201.301 52.4688 201.414 51.9688 201.641 51.5C201.875 51.0312 202.207 50.6172 202.637 50.2578C203.074 49.8906 203.605 49.6055 204.23 49.4023C204.863 49.1914 205.574 49.0859 206.363 49.0859C207.465 49.0859 208.41 49.2617 209.199 49.6133C209.996 49.9648 210.605 50.4492 211.027 51.0664C211.457 51.6758 211.672 52.3711 211.672 53.1523H208.297C208.297 52.8242 208.227 52.5312 208.086 52.2734C207.953 52.0078 207.742 51.8008 207.453 51.6523C207.172 51.4961 206.805 51.418 206.352 51.418C205.977 51.418 205.652 51.4844 205.379 51.6172C205.105 51.7422 204.895 51.9141 204.746 52.1328C204.605 52.3438 204.535 52.5781 204.535 52.8359C204.535 53.0312 204.574 53.207 204.652 53.3633C204.738 53.5117 204.875 53.6484 205.062 53.7734C205.25 53.8984 205.492 54.0156 205.789 54.125C206.094 54.2266 206.469 54.3203 206.914 54.4062C207.828 54.5938 208.645 54.8398 209.363 55.1445C210.082 55.4414 210.652 55.8477 211.074 56.3633C211.496 56.8711 211.707 57.5391 211.707 58.3672C211.707 58.9297 211.582 59.4453 211.332 59.9141C211.082 60.3828 210.723 60.793 210.254 61.1445C209.785 61.4883 209.223 61.7578 208.566 61.9531C207.918 62.1406 207.188 62.2344 206.375 62.2344C205.195 62.2344 204.195 62.0234 203.375 61.6016C202.562 61.1797 201.945 60.6445 201.523 59.9961C201.109 59.3398 200.902 58.668 200.902 57.9805H204.102C204.117 58.4414 204.234 58.8125 204.453 59.0938C204.68 59.375 204.965 59.5781 205.309 59.7031C205.66 59.8281 206.039 59.8906 206.445 59.8906C206.883 59.8906 207.246 59.832 207.535 59.7148C207.824 59.5898 208.043 59.4258 208.191 59.2227C208.348 59.0117 208.426 58.7695 208.426 58.4961ZM217.461 49.3203V62H214.074V49.3203H217.461ZM213.863 46.0156C213.863 45.5234 214.035 45.1172 214.379 44.7969C214.723 44.4766 215.184 44.3164 215.762 44.3164C216.332 44.3164 216.789 44.4766 217.133 44.7969C217.484 45.1172 217.66 45.5234 217.66 46.0156C217.66 46.5078 217.484 46.9141 217.133 47.2344C216.789 47.5547 216.332 47.7148 215.762 47.7148C215.184 47.7148 214.723 47.5547 214.379 47.2344C214.035 46.9141 213.863 46.5078 213.863 46.0156ZM227.105 58.4961C227.105 58.2539 227.035 58.0352 226.895 57.8398C226.754 57.6445 226.492 57.4648 226.109 57.3008C225.734 57.1289 225.191 56.9727 224.48 56.832C223.84 56.6914 223.242 56.5156 222.688 56.3047C222.141 56.0859 221.664 55.8242 221.258 55.5195C220.859 55.2148 220.547 54.8555 220.32 54.4414C220.094 54.0195 219.98 53.5391 219.98 53C219.98 52.4688 220.094 51.9688 220.32 51.5C220.555 51.0312 220.887 50.6172 221.316 50.2578C221.754 49.8906 222.285 49.6055 222.91 49.4023C223.543 49.1914 224.254 49.0859 225.043 49.0859C226.145 49.0859 227.09 49.2617 227.879 49.6133C228.676 49.9648 229.285 50.4492 229.707 51.0664C230.137 51.6758 230.352 52.3711 230.352 53.1523H226.977C226.977 52.8242 226.906 52.5312 226.766 52.2734C226.633 52.0078 226.422 51.8008 226.133 51.6523C225.852 51.4961 225.484 51.418 225.031 51.418C224.656 51.418 224.332 51.4844 224.059 51.6172C223.785 51.7422 223.574 51.9141 223.426 52.1328C223.285 52.3438 223.215 52.5781 223.215 52.8359C223.215 53.0312 223.254 53.207 223.332 53.3633C223.418 53.5117 223.555 53.6484 223.742 53.7734C223.93 53.8984 224.172 54.0156 224.469 54.125C224.773 54.2266 225.148 54.3203 225.594 54.4062C226.508 54.5938 227.324 54.8398 228.043 55.1445C228.762 55.4414 229.332 55.8477 229.754 56.3633C230.176 56.8711 230.387 57.5391 230.387 58.3672C230.387 58.9297 230.262 59.4453 230.012 59.9141C229.762 60.3828 229.402 60.793 228.934 61.1445C228.465 61.4883 227.902 61.7578 227.246 61.9531C226.598 62.1406 225.867 62.2344 225.055 62.2344C223.875 62.2344 222.875 62.0234 222.055 61.6016C221.242 61.1797 220.625 60.6445 220.203 59.9961C219.789 59.3398 219.582 58.668 219.582 57.9805H222.781C222.797 58.4414 222.914 58.8125 223.133 59.0938C223.359 59.375 223.645 59.5781 223.988 59.7031C224.34 59.8281 224.719 59.8906 225.125 59.8906C225.562 59.8906 225.926 59.832 226.215 59.7148C226.504 59.5898 226.723 59.4258 226.871 59.2227C227.027 59.0117 227.105 58.7695 227.105 58.4961ZM238.789 49.3203V51.7109H231.406V49.3203H238.789ZM233.234 46.1914H236.609V58.1797C236.609 58.5469 236.656 58.8281 236.75 59.0234C236.852 59.2188 237 59.3555 237.195 59.4336C237.391 59.5039 237.637 59.5391 237.934 59.5391C238.145 59.5391 238.332 59.5312 238.496 59.5156C238.668 59.4922 238.812 59.4688 238.93 59.4453L238.941 61.9297C238.652 62.0234 238.34 62.0977 238.004 62.1523C237.668 62.207 237.297 62.2344 236.891 62.2344C236.148 62.2344 235.5 62.1133 234.945 61.8711C234.398 61.6211 233.977 61.2227 233.68 60.6758C233.383 60.1289 233.234 59.4102 233.234 58.5195V46.1914ZM247.555 59.1406V53.4922C247.555 53.0859 247.488 52.7383 247.355 52.4492C247.223 52.1523 247.016 51.9219 246.734 51.7578C246.461 51.5938 246.105 51.5117 245.668 51.5117C245.293 51.5117 244.969 51.5781 244.695 51.7109C244.422 51.8359 244.211 52.0195 244.062 52.2617C243.914 52.4961 243.84 52.7734 243.84 53.0938H240.465C240.465 52.5547 240.59 52.043 240.84 51.5586C241.09 51.0742 241.453 50.6484 241.93 50.2812C242.406 49.9062 242.973 49.6133 243.629 49.4023C244.293 49.1914 245.035 49.0859 245.855 49.0859C246.84 49.0859 247.715 49.25 248.48 49.5781C249.246 49.9062 249.848 50.3984 250.285 51.0547C250.73 51.7109 250.953 52.5312 250.953 53.5156V58.9414C250.953 59.6367 250.996 60.207 251.082 60.6523C251.168 61.0898 251.293 61.4727 251.457 61.8008V62H248.047C247.883 61.6562 247.758 61.2266 247.672 60.7109C247.594 60.1875 247.555 59.6641 247.555 59.1406ZM248 54.2773L248.023 56.1875H246.137C245.691 56.1875 245.305 56.2383 244.977 56.3398C244.648 56.4414 244.379 56.5859 244.168 56.7734C243.957 56.9531 243.801 57.1641 243.699 57.4062C243.605 57.6484 243.559 57.9141 243.559 58.2031C243.559 58.4922 243.625 58.7539 243.758 58.9883C243.891 59.2148 244.082 59.3945 244.332 59.5273C244.582 59.6523 244.875 59.7148 245.211 59.7148C245.719 59.7148 246.16 59.6133 246.535 59.4102C246.91 59.207 247.199 58.957 247.402 58.6602C247.613 58.3633 247.723 58.082 247.73 57.8164L248.621 59.2461C248.496 59.5664 248.324 59.8984 248.105 60.2422C247.895 60.5859 247.625 60.9102 247.297 61.2148C246.969 61.5117 246.574 61.7578 246.113 61.9531C245.652 62.1406 245.105 62.2344 244.473 62.2344C243.668 62.2344 242.938 62.0742 242.281 61.7539C241.633 61.4258 241.117 60.9766 240.734 60.4062C240.359 59.8281 240.172 59.1719 240.172 58.4375C240.172 57.7734 240.297 57.1836 240.547 56.668C240.797 56.1523 241.164 55.7188 241.648 55.3672C242.141 55.0078 242.754 54.7383 243.488 54.5586C244.223 54.3711 245.074 54.2773 246.043 54.2773H248ZM256.859 52.0273V62H253.484V49.3203H256.648L256.859 52.0273ZM256.367 55.2148H255.453C255.453 54.2773 255.574 53.4336 255.816 52.6836C256.059 51.9258 256.398 51.2812 256.836 50.75C257.273 50.2109 257.793 49.8008 258.395 49.5195C259.004 49.2305 259.684 49.0859 260.434 49.0859C261.027 49.0859 261.57 49.1719 262.062 49.3438C262.555 49.5156 262.977 49.7891 263.328 50.1641C263.688 50.5391 263.961 51.0352 264.148 51.6523C264.344 52.2695 264.441 53.0234 264.441 53.9141V62H261.043V53.9023C261.043 53.3398 260.965 52.9023 260.809 52.5898C260.652 52.2773 260.422 52.0586 260.117 51.9336C259.82 51.8008 259.453 51.7344 259.016 51.7344C258.562 51.7344 258.168 51.8242 257.832 52.0039C257.504 52.1836 257.23 52.4336 257.012 52.7539C256.801 53.0664 256.641 53.4336 256.531 53.8555C256.422 54.2773 256.367 54.7305 256.367 55.2148ZM273.219 49.3203V51.7109H265.836V49.3203H273.219ZM267.664 46.1914H271.039V58.1797C271.039 58.5469 271.086 58.8281 271.18 59.0234C271.281 59.2188 271.43 59.3555 271.625 59.4336C271.82 59.5039 272.066 59.5391 272.363 59.5391C272.574 59.5391 272.762 59.5312 272.926 59.5156C273.098 59.4922 273.242 59.4688 273.359 59.4453L273.371 61.9297C273.082 62.0234 272.77 62.0977 272.434 62.1523C272.098 62.207 271.727 62.2344 271.32 62.2344C270.578 62.2344 269.93 62.1133 269.375 61.8711C268.828 61.6211 268.406 61.2227 268.109 60.6758C267.812 60.1289 267.664 59.4102 267.664 58.5195V46.1914Z" fill="#888888"/>
<path d="M102.635 86.0078V118H94.9443V86.0078H102.635ZM115.181 99.2573V118H107.776V94.2256H114.72L115.181 99.2573ZM114.28 105.3L112.588 105.344C112.588 103.674 112.786 102.136 113.182 100.729C113.577 99.3232 114.163 98.1001 114.939 97.0601C115.716 96.02 116.668 95.2144 117.796 94.6431C118.938 94.0718 120.257 93.7861 121.751 93.7861C122.791 93.7861 123.736 93.9473 124.585 94.2695C125.435 94.5771 126.167 95.0679 126.783 95.7417C127.398 96.4009 127.867 97.2651 128.189 98.3345C128.526 99.3892 128.694 100.656 128.694 102.136V118H121.29V103.081C121.29 102.07 121.172 101.308 120.938 100.795C120.718 100.283 120.396 99.9385 119.971 99.7627C119.546 99.5869 119.026 99.499 118.411 99.499C117.767 99.499 117.188 99.6455 116.675 99.9385C116.163 100.231 115.723 100.642 115.357 101.169C115.005 101.682 114.734 102.29 114.544 102.993C114.368 103.696 114.28 104.465 114.28 105.3ZM127.859 105.3L125.794 105.344C125.794 103.674 125.977 102.136 126.343 100.729C126.724 99.3232 127.288 98.1001 128.035 97.0601C128.797 96.02 129.742 95.2144 130.87 94.6431C131.998 94.0718 133.309 93.7861 134.803 93.7861C135.887 93.7861 136.883 93.9473 137.791 94.2695C138.699 94.5918 139.483 95.1118 140.142 95.8296C140.801 96.5474 141.314 97.4995 141.68 98.686C142.046 99.8579 142.229 101.308 142.229 103.037V118H134.803V103.037C134.803 102.055 134.686 101.315 134.451 100.817C134.231 100.305 133.909 99.9604 133.484 99.7847C133.06 99.5942 132.554 99.499 131.968 99.499C131.265 99.499 130.657 99.6455 130.145 99.9385C129.632 100.231 129.2 100.642 128.848 101.169C128.511 101.682 128.262 102.29 128.101 102.993C127.94 103.696 127.859 104.465 127.859 105.3ZM153.941 98.7959V127.141H146.536V94.2256H153.436L153.941 98.7959ZM168.531 105.827V106.289C168.531 108.017 168.333 109.621 167.938 111.101C167.542 112.58 166.956 113.869 166.18 114.968C165.403 116.066 164.437 116.923 163.279 117.539C162.137 118.139 160.811 118.439 159.302 118.439C157.881 118.439 156.658 118.125 155.633 117.495C154.607 116.865 153.75 115.993 153.062 114.88C152.374 113.767 151.817 112.492 151.392 111.057C150.967 109.621 150.63 108.105 150.381 106.508V105.915C150.63 104.201 150.967 102.612 151.392 101.147C151.817 99.6675 152.374 98.3784 153.062 97.2798C153.75 96.1812 154.6 95.3242 155.611 94.709C156.636 94.0938 157.859 93.7861 159.28 93.7861C160.789 93.7861 162.115 94.0718 163.257 94.6431C164.415 95.2144 165.381 96.0347 166.158 97.104C166.949 98.1587 167.542 99.4258 167.938 100.905C168.333 102.385 168.531 104.025 168.531 105.827ZM161.126 106.289V105.827C161.126 104.904 161.06 104.062 160.928 103.3C160.796 102.524 160.584 101.85 160.291 101.279C160.013 100.708 159.639 100.268 159.17 99.9604C158.702 99.6528 158.123 99.499 157.435 99.499C156.644 99.499 155.977 99.6235 155.435 99.8726C154.908 100.107 154.483 100.473 154.161 100.971C153.853 101.455 153.633 102.062 153.501 102.795C153.384 103.513 153.333 104.355 153.348 105.322V107.124C153.318 108.237 153.428 109.218 153.677 110.068C153.926 110.903 154.358 111.555 154.974 112.023C155.589 112.492 156.424 112.727 157.479 112.727C158.182 112.727 158.768 112.565 159.236 112.243C159.705 111.906 160.079 111.445 160.357 110.859C160.635 110.258 160.833 109.57 160.95 108.793C161.067 108.017 161.126 107.182 161.126 106.289ZM179.649 84.25V118H172.222V84.25H179.649ZM195.733 118.439C193.799 118.439 192.071 118.139 190.547 117.539C189.024 116.923 187.735 116.081 186.68 115.012C185.64 113.942 184.842 112.712 184.285 111.32C183.743 109.929 183.472 108.457 183.472 106.904V106.069C183.472 104.326 183.714 102.714 184.197 101.235C184.681 99.7407 185.398 98.437 186.351 97.3237C187.303 96.2104 188.497 95.3462 189.932 94.731C191.368 94.1011 193.038 93.7861 194.942 93.7861C196.626 93.7861 198.135 94.0571 199.468 94.5991C200.801 95.1411 201.929 95.9175 202.852 96.9282C203.79 97.939 204.5 99.1621 204.983 100.598C205.481 102.033 205.73 103.645 205.73 105.432V108.442H186.307V103.806H198.501V103.234C198.516 102.443 198.377 101.77 198.084 101.213C197.806 100.656 197.396 100.231 196.854 99.9385C196.312 99.6455 195.652 99.499 194.876 99.499C194.07 99.499 193.404 99.6748 192.876 100.026C192.364 100.378 191.961 100.861 191.668 101.477C191.39 102.077 191.192 102.773 191.075 103.564C190.958 104.355 190.899 105.19 190.899 106.069V106.904C190.899 107.783 191.016 108.581 191.25 109.299C191.5 110.017 191.851 110.632 192.305 111.145C192.774 111.643 193.331 112.031 193.975 112.309C194.634 112.587 195.381 112.727 196.216 112.727C197.227 112.727 198.223 112.536 199.205 112.155C200.186 111.774 201.028 111.145 201.731 110.266L205.093 114.265C204.61 114.953 203.921 115.62 203.028 116.264C202.149 116.909 201.094 117.436 199.864 117.846C198.633 118.242 197.256 118.439 195.733 118.439ZM216.211 99.2573V118H208.807V94.2256H215.75L216.211 99.2573ZM215.311 105.3L213.619 105.344C213.619 103.674 213.816 102.136 214.212 100.729C214.607 99.3232 215.193 98.1001 215.97 97.0601C216.746 96.02 217.698 95.2144 218.826 94.6431C219.969 94.0718 221.287 93.7861 222.781 93.7861C223.821 93.7861 224.766 93.9473 225.616 94.2695C226.465 94.5771 227.198 95.0679 227.813 95.7417C228.428 96.4009 228.897 97.2651 229.219 98.3345C229.556 99.3892 229.725 100.656 229.725 102.136V118H222.32V103.081C222.32 102.07 222.203 101.308 221.968 100.795C221.749 100.283 221.426 99.9385 221.001 99.7627C220.577 99.5869 220.057 99.499 219.441 99.499C218.797 99.499 218.218 99.6455 217.706 99.9385C217.193 100.231 216.753 100.642 216.387 101.169C216.036 101.682 215.765 102.29 215.574 102.993C215.398 103.696 215.311 104.465 215.311 105.3ZM228.89 105.3L226.824 105.344C226.824 103.674 227.007 102.136 227.374 100.729C227.754 99.3232 228.318 98.1001 229.065 97.0601C229.827 96.02 230.772 95.2144 231.9 94.6431C233.028 94.0718 234.339 93.7861 235.833 93.7861C236.917 93.7861 237.913 93.9473 238.821 94.2695C239.729 94.5918 240.513 95.1118 241.172 95.8296C241.832 96.5474 242.344 97.4995 242.71 98.686C243.077 99.8579 243.26 101.308 243.26 103.037V118H235.833V103.037C235.833 102.055 235.716 101.315 235.481 100.817C235.262 100.305 234.939 99.9604 234.515 99.7847C234.09 99.5942 233.584 99.499 232.999 99.499C232.295 99.499 231.688 99.6455 231.175 99.9385C230.662 100.231 230.23 100.642 229.878 101.169C229.542 101.682 229.292 102.29 229.131 102.993C228.97 103.696 228.89 104.465 228.89 105.3ZM259.014 118.439C257.081 118.439 255.352 118.139 253.829 117.539C252.305 116.923 251.016 116.081 249.961 115.012C248.921 113.942 248.123 112.712 247.566 111.32C247.024 109.929 246.753 108.457 246.753 106.904V106.069C246.753 104.326 246.995 102.714 247.479 101.235C247.962 99.7407 248.68 98.437 249.632 97.3237C250.584 96.2104 251.778 95.3462 253.213 94.731C254.649 94.1011 256.319 93.7861 258.223 93.7861C259.908 93.7861 261.417 94.0571 262.75 94.5991C264.083 95.1411 265.21 95.9175 266.133 96.9282C267.071 97.939 267.781 99.1621 268.265 100.598C268.763 102.033 269.012 103.645 269.012 105.432V108.442H249.588V103.806H261.783V103.234C261.797 102.443 261.658 101.77 261.365 101.213C261.087 100.656 260.677 100.231 260.135 99.9385C259.593 99.6455 258.934 99.499 258.157 99.499C257.352 99.499 256.685 99.6748 256.158 100.026C255.645 100.378 255.242 100.861 254.949 101.477C254.671 102.077 254.473 102.773 254.356 103.564C254.239 104.355 254.18 105.19 254.18 106.069V106.904C254.18 107.783 254.297 108.581 254.532 109.299C254.781 110.017 255.132 110.632 255.586 111.145C256.055 111.643 256.612 112.031 257.256 112.309C257.916 112.587 258.663 112.727 259.498 112.727C260.508 112.727 261.504 112.536 262.486 112.155C263.467 111.774 264.31 111.145 265.013 110.266L268.375 114.265C267.891 114.953 267.203 115.62 266.309 116.264C265.43 116.909 264.375 117.436 263.145 117.846C261.915 118.242 260.538 118.439 259.014 118.439ZM279.295 99.3013V118H271.89V94.2256H278.833L279.295 99.3013ZM278.416 105.3L276.68 105.344C276.68 103.527 276.9 101.909 277.339 100.488C277.779 99.0522 278.401 97.8364 279.207 96.8403C280.013 95.8442 280.972 95.0898 282.085 94.5771C283.213 94.0498 284.466 93.7861 285.843 93.7861C286.941 93.7861 287.945 93.9473 288.853 94.2695C289.776 94.5918 290.567 95.1118 291.226 95.8296C291.9 96.5474 292.413 97.4995 292.764 98.686C293.13 99.8579 293.313 101.308 293.313 103.037V118H285.865V103.015C285.865 102.062 285.733 101.337 285.469 100.839C285.206 100.327 284.825 99.9751 284.327 99.7847C283.829 99.5942 283.221 99.499 282.503 99.499C281.741 99.499 281.097 99.6455 280.569 99.9385C280.042 100.231 279.617 100.642 279.295 101.169C278.987 101.682 278.76 102.29 278.614 102.993C278.482 103.696 278.416 104.465 278.416 105.3ZM309.947 94.2256V99.3672H295.621V94.2256H309.947ZM298.631 88.3149H306.036V110.244C306.036 110.874 306.109 111.364 306.255 111.716C306.402 112.053 306.651 112.294 307.002 112.441C307.369 112.573 307.852 112.639 308.453 112.639C308.877 112.639 309.229 112.631 309.507 112.617C309.786 112.587 310.049 112.551 310.298 112.507V117.802C309.668 118.007 309.009 118.161 308.321 118.264C307.632 118.381 306.9 118.439 306.124 118.439C304.542 118.439 303.187 118.19 302.059 117.692C300.945 117.194 300.096 116.411 299.51 115.341C298.924 114.272 298.631 112.88 298.631 111.167V88.3149ZM325.24 112.023V102.224C325.24 101.55 325.145 100.971 324.954 100.488C324.764 100.004 324.463 99.6309 324.053 99.3672C323.643 99.0889 323.094 98.9497 322.405 98.9497C321.849 98.9497 321.373 99.0449 320.977 99.2354C320.582 99.4258 320.281 99.7114 320.076 100.092C319.871 100.473 319.769 100.957 319.769 101.542H312.364C312.364 100.444 312.605 99.4258 313.089 98.4883C313.587 97.5361 314.29 96.7085 315.198 96.0054C316.121 95.3022 317.22 94.7603 318.494 94.3794C319.783 93.9839 321.219 93.7861 322.801 93.7861C324.69 93.7861 326.375 94.1011 327.854 94.731C329.349 95.3608 330.528 96.3057 331.392 97.5654C332.256 98.8105 332.688 100.378 332.688 102.268V112.001C332.688 113.554 332.776 114.733 332.952 115.539C333.128 116.33 333.377 117.026 333.699 117.626V118H326.272C325.921 117.268 325.657 116.374 325.481 115.319C325.32 114.25 325.24 113.151 325.24 112.023ZM326.141 103.476L326.185 107.431H322.911C322.222 107.431 321.636 107.526 321.153 107.717C320.684 107.907 320.303 108.171 320.01 108.508C319.732 108.83 319.527 109.196 319.395 109.606C319.278 110.017 319.219 110.449 319.219 110.903C319.219 111.342 319.322 111.738 319.527 112.089C319.747 112.426 320.04 112.69 320.406 112.88C320.772 113.071 321.182 113.166 321.636 113.166C322.457 113.166 323.152 113.012 323.724 112.705C324.31 112.382 324.756 111.994 325.064 111.54C325.372 111.086 325.525 110.661 325.525 110.266L327.151 113.298C326.858 113.884 326.521 114.477 326.141 115.078C325.774 115.678 325.313 116.235 324.756 116.748C324.214 117.246 323.548 117.656 322.757 117.978C321.966 118.286 321.006 118.439 319.878 118.439C318.414 118.439 317.066 118.139 315.835 117.539C314.62 116.938 313.646 116.103 312.913 115.034C312.181 113.95 311.814 112.705 311.814 111.298C311.814 110.068 312.034 108.969 312.474 108.002C312.928 107.036 313.609 106.215 314.517 105.542C315.425 104.868 316.583 104.355 317.989 104.003C319.395 103.652 321.05 103.476 322.955 103.476H326.141ZM349.322 94.2256V99.3672H334.996V94.2256H349.322ZM338.006 88.3149H345.411V110.244C345.411 110.874 345.484 111.364 345.63 111.716C345.777 112.053 346.026 112.294 346.377 112.441C346.744 112.573 347.227 112.639 347.828 112.639C348.252 112.639 348.604 112.631 348.882 112.617C349.161 112.587 349.424 112.551 349.673 112.507V117.802C349.043 118.007 348.384 118.161 347.696 118.264C347.007 118.381 346.275 118.439 345.499 118.439C343.917 118.439 342.562 118.19 341.434 117.692C340.32 117.194 339.471 116.411 338.885 115.341C338.299 114.272 338.006 112.88 338.006 111.167V88.3149ZM360.088 94.2256V118H352.662V94.2256H360.088ZM352.222 88.0952C352.222 87.0405 352.603 86.1763 353.365 85.5024C354.126 84.8286 355.115 84.4917 356.331 84.4917C357.547 84.4917 358.536 84.8286 359.297 85.5024C360.059 86.1763 360.44 87.0405 360.44 88.0952C360.44 89.1499 360.059 90.0142 359.297 90.688C358.536 91.3618 357.547 91.6987 356.331 91.6987C355.115 91.6987 354.126 91.3618 353.365 90.688C352.603 90.0142 352.222 89.1499 352.222 88.0952ZM363.736 106.354V105.893C363.736 104.15 363.985 102.546 364.483 101.081C364.981 99.6016 365.713 98.3198 366.68 97.2358C367.647 96.1519 368.841 95.3096 370.262 94.709C371.683 94.0938 373.323 93.7861 375.184 93.7861C377.059 93.7861 378.707 94.0938 380.127 94.709C381.563 95.3096 382.764 96.1519 383.731 97.2358C384.698 98.3198 385.43 99.6016 385.928 101.081C386.426 102.546 386.675 104.15 386.675 105.893V106.354C386.675 108.083 386.426 109.687 385.928 111.167C385.43 112.631 384.698 113.913 383.731 115.012C382.764 116.096 381.57 116.938 380.149 117.539C378.729 118.139 377.088 118.439 375.228 118.439C373.367 118.439 371.719 118.139 370.284 117.539C368.848 116.938 367.647 116.096 366.68 115.012C365.713 113.913 364.981 112.631 364.483 111.167C363.985 109.687 363.736 108.083 363.736 106.354ZM371.141 105.893V106.354C371.141 107.248 371.207 108.083 371.338 108.859C371.47 109.636 371.69 110.317 371.998 110.903C372.305 111.474 372.723 111.921 373.25 112.243C373.777 112.565 374.437 112.727 375.228 112.727C376.004 112.727 376.648 112.565 377.161 112.243C377.688 111.921 378.106 111.474 378.414 110.903C378.721 110.317 378.941 109.636 379.073 108.859C379.205 108.083 379.271 107.248 379.271 106.354V105.893C379.271 105.029 379.205 104.216 379.073 103.454C378.941 102.678 378.721 101.997 378.414 101.411C378.106 100.81 377.688 100.341 377.161 100.004C376.634 99.6675 375.975 99.499 375.184 99.499C374.407 99.499 373.755 99.6675 373.228 100.004C372.715 100.341 372.305 100.81 371.998 101.411C371.69 101.997 371.47 102.678 371.338 103.454C371.207 104.216 371.141 105.029 371.141 105.893ZM397.244 99.3013V118H389.839V94.2256H396.783L397.244 99.3013ZM396.365 105.3L394.629 105.344C394.629 103.527 394.849 101.909 395.289 100.488C395.728 99.0522 396.351 97.8364 397.156 96.8403C397.962 95.8442 398.921 95.0898 400.035 94.5771C401.163 94.0498 402.415 93.7861 403.792 93.7861C404.891 93.7861 405.894 93.9473 406.802 94.2695C407.725 94.5918 408.516 95.1118 409.175 95.8296C409.849 96.5474 410.362 97.4995 410.713 98.686C411.08 99.8579 411.263 101.308 411.263 103.037V118H403.814V103.015C403.814 102.062 403.682 101.337 403.418 100.839C403.155 100.327 402.774 99.9751 402.276 99.7847C401.778 99.5942 401.17 99.499 400.452 99.499C399.69 99.499 399.046 99.6455 398.519 99.9385C397.991 100.231 397.566 100.642 397.244 101.169C396.937 101.682 396.709 102.29 396.563 102.993C396.431 103.696 396.365 104.465 396.365 105.3Z" fill="#424241"/>
<path d="M1363 15C1363 6.71573 1356.28 0 1348 0H1134V167H1348C1356.28 167 1363 160.284 1363 152V15Z" fill="#E09E50"/>
<path d="M1281.5 49H1216.5L1214 51.5V116.5L1216.5 119H1281.5L1284 116.5V51.5L1281.5 49ZM1279 114H1234V104H1245.5C1247 107 1250.5 109 1254 109C1259.5 109 1264 104.5 1264 99C1264 93.5 1259.5 89 1254 89C1248.5 89 1244 93.5 1244 99H1229V114H1219V54H1229V65.5C1226 67 1224 70.5 1224 74C1224 79.5 1228.5 84 1234 84C1239.5 84 1244 79.5 1244 74H1254C1254 79.5 1258.5 84 1264 84C1269.5 84 1274 79.5 1274 74C1274 68.5 1269.5 64 1264 64C1260.5 64 1257 66 1255.5 69H1242.5C1241 66 1237.5 64 1234 64V54H1279V114ZM1249 99C1249 96 1251 94 1254 94C1257 94 1259 96 1259 99C1259 102 1257 104 1254 104C1251 104 1249 102 1249 99ZM1234 69C1237 69 1239 71 1239 74C1239 77 1237 79 1234 79C1231 79 1229 77 1229 74C1229 71 1231 69 1234 69ZM1264 69C1267 69 1269 71 1269 74C1269 77 1267 79 1264 79C1261 79 1259 77 1259 74C1259 71 1261 69 1264 69Z" fill="white"/>
</svg>
