<svg width="1363" height="301" viewBox="0 0 1363 301" fill="none" xmlns="http://www.w3.org/2000/svg">
<rect width="1363" height="301" rx="15" fill="#F0F0F0"/>
<path d="M0 15C0 6.71573 6.71573 0 15 0H37V301H15C6.71573 301 0 294.284 0 286V15Z" fill="#E09E50"/>
<path d="M99.6538 104.898H107.334L116.062 132.103L124.791 104.898H132.471L119.178 144H112.947L99.6538 104.898ZM94.981 104.898H102.93L104.407 134.869V144H94.981V104.898ZM129.195 104.898H137.171V144H127.718V134.869L129.195 104.898ZM157.876 136.695V124.718C157.876 123.894 157.76 123.187 157.527 122.596C157.295 122.005 156.928 121.549 156.426 121.227C155.925 120.886 155.254 120.716 154.412 120.716C153.732 120.716 153.15 120.833 152.667 121.065C152.183 121.298 151.816 121.647 151.565 122.113C151.315 122.578 151.189 123.169 151.189 123.885H142.139C142.139 122.542 142.435 121.298 143.025 120.152C143.634 118.989 144.493 117.977 145.604 117.118C146.731 116.258 148.074 115.596 149.632 115.13C151.207 114.647 152.962 114.405 154.896 114.405C157.205 114.405 159.264 114.79 161.072 115.56C162.898 116.33 164.34 117.485 165.396 119.024C166.452 120.546 166.98 122.462 166.98 124.771V136.668C166.98 138.566 167.088 140.007 167.303 140.992C167.518 141.959 167.822 142.809 168.216 143.543V144H159.139C158.709 143.105 158.387 142.013 158.172 140.724C157.975 139.417 157.876 138.074 157.876 136.695ZM158.978 126.249L159.031 131.083H155.03C154.188 131.083 153.472 131.199 152.881 131.432C152.308 131.664 151.843 131.987 151.485 132.398C151.145 132.792 150.894 133.24 150.733 133.741C150.59 134.243 150.518 134.771 150.518 135.326C150.518 135.863 150.643 136.346 150.894 136.776C151.163 137.188 151.521 137.51 151.968 137.743C152.416 137.975 152.917 138.092 153.472 138.092C154.475 138.092 155.325 137.904 156.023 137.528C156.74 137.134 157.286 136.66 157.662 136.104C158.038 135.549 158.226 135.03 158.226 134.547L160.213 138.253C159.855 138.969 159.443 139.694 158.978 140.428C158.53 141.162 157.966 141.843 157.286 142.469C156.623 143.078 155.809 143.579 154.842 143.973C153.875 144.349 152.702 144.537 151.324 144.537C149.533 144.537 147.886 144.17 146.382 143.436C144.896 142.702 143.706 141.681 142.811 140.375C141.915 139.05 141.468 137.528 141.468 135.809C141.468 134.305 141.736 132.962 142.273 131.781C142.828 130.599 143.661 129.597 144.771 128.773C145.881 127.949 147.295 127.323 149.014 126.893C150.733 126.463 152.756 126.249 155.083 126.249H158.978ZM187.31 114.942V121.227H169.8V114.942H187.31ZM173.479 107.718H182.53V134.52C182.53 135.29 182.619 135.89 182.798 136.319C182.977 136.731 183.282 137.027 183.711 137.206C184.159 137.367 184.75 137.447 185.484 137.447C186.003 137.447 186.433 137.438 186.773 137.42C187.113 137.385 187.435 137.34 187.74 137.286V143.758C186.97 144.009 186.164 144.197 185.323 144.322C184.481 144.465 183.586 144.537 182.637 144.537C180.704 144.537 179.048 144.233 177.669 143.624C176.308 143.015 175.27 142.057 174.554 140.75C173.838 139.444 173.479 137.743 173.479 135.648V107.718ZM199.771 102.75V144H190.721V102.75H199.771ZM198.697 128.478L196.575 128.531C196.575 126.49 196.826 124.61 197.327 122.892C197.828 121.173 198.545 119.678 199.476 118.407C200.407 117.136 201.526 116.151 202.833 115.453C204.139 114.754 205.59 114.405 207.183 114.405C208.615 114.405 209.922 114.611 211.104 115.023C212.304 115.435 213.333 116.097 214.192 117.01C215.07 117.923 215.741 119.114 216.207 120.582C216.69 122.05 216.932 123.84 216.932 125.953V144H207.828V125.899C207.828 124.718 207.658 123.805 207.317 123.16C206.995 122.498 206.53 122.041 205.921 121.791C205.312 121.522 204.569 121.388 203.692 121.388C202.636 121.388 201.776 121.567 201.114 121.925C200.451 122.283 199.941 122.784 199.583 123.429C199.243 124.055 199.01 124.798 198.885 125.658C198.759 126.517 198.697 127.457 198.697 128.478ZM252.649 113.116L243.116 144H232.991L247.359 104.898H253.777L252.649 113.116ZM260.545 144L250.984 113.116L249.749 104.898H256.248L270.696 144H260.545ZM260.169 129.417V136.695H240.108V129.417H260.169ZM288.367 135.836C288.367 135.335 288.197 134.905 287.857 134.547C287.535 134.171 286.962 133.831 286.138 133.526C285.315 133.204 284.16 132.882 282.674 132.56C281.259 132.255 279.926 131.852 278.672 131.351C277.437 130.85 276.354 130.241 275.423 129.525C274.492 128.809 273.758 127.958 273.221 126.974C272.701 125.989 272.442 124.861 272.442 123.59C272.442 122.354 272.701 121.191 273.221 120.099C273.758 118.989 274.537 118.013 275.557 117.171C276.596 116.312 277.858 115.641 279.344 115.157C280.83 114.656 282.522 114.405 284.419 114.405C287.033 114.405 289.289 114.808 291.187 115.614C293.085 116.402 294.544 117.512 295.564 118.944C296.603 120.358 297.122 121.996 297.122 123.858H288.072C288.072 123.124 287.946 122.498 287.696 121.979C287.463 121.459 287.078 121.065 286.541 120.797C286.004 120.51 285.288 120.367 284.393 120.367C283.766 120.367 283.193 120.484 282.674 120.716C282.173 120.949 281.77 121.271 281.465 121.683C281.161 122.095 281.009 122.578 281.009 123.133C281.009 123.527 281.098 123.885 281.277 124.208C281.474 124.512 281.77 124.798 282.164 125.067C282.557 125.318 283.059 125.55 283.667 125.765C284.276 125.962 285.01 126.141 285.87 126.302C287.821 126.66 289.647 127.171 291.348 127.833C293.049 128.495 294.428 129.435 295.484 130.653C296.558 131.87 297.095 133.508 297.095 135.567C297.095 136.856 296.8 138.047 296.209 139.139C295.618 140.213 294.768 141.162 293.658 141.986C292.548 142.792 291.214 143.418 289.656 143.866C288.099 144.313 286.344 144.537 284.393 144.537C281.618 144.537 279.272 144.045 277.356 143.06C275.441 142.057 273.991 140.804 273.006 139.3C272.039 137.778 271.556 136.239 271.556 134.681H279.988C280.024 135.576 280.239 136.31 280.633 136.883C281.045 137.456 281.591 137.877 282.271 138.146C282.951 138.414 283.739 138.548 284.634 138.548C285.458 138.548 286.138 138.432 286.675 138.199C287.23 137.966 287.651 137.653 287.938 137.259C288.224 136.847 288.367 136.373 288.367 135.836ZM316.565 135.836C316.565 135.335 316.395 134.905 316.055 134.547C315.733 134.171 315.16 133.831 314.336 133.526C313.513 133.204 312.358 132.882 310.872 132.56C309.458 132.255 308.124 131.852 306.871 131.351C305.635 130.85 304.552 130.241 303.621 129.525C302.69 128.809 301.956 127.958 301.419 126.974C300.9 125.989 300.64 124.861 300.64 123.59C300.64 122.354 300.9 121.191 301.419 120.099C301.956 118.989 302.735 118.013 303.755 117.171C304.794 116.312 306.056 115.641 307.542 115.157C309.028 114.656 310.72 114.405 312.618 114.405C315.232 114.405 317.487 114.808 319.385 115.614C321.283 116.402 322.742 117.512 323.763 118.944C324.801 120.358 325.32 121.996 325.32 123.858H316.27C316.27 123.124 316.145 122.498 315.894 121.979C315.661 121.459 315.276 121.065 314.739 120.797C314.202 120.51 313.486 120.367 312.591 120.367C311.964 120.367 311.391 120.484 310.872 120.716C310.371 120.949 309.968 121.271 309.664 121.683C309.359 122.095 309.207 122.578 309.207 123.133C309.207 123.527 309.297 123.885 309.476 124.208C309.673 124.512 309.968 124.798 310.362 125.067C310.756 125.318 311.257 125.55 311.866 125.765C312.474 125.962 313.208 126.141 314.068 126.302C316.019 126.66 317.846 127.171 319.546 127.833C321.247 128.495 322.626 129.435 323.682 130.653C324.756 131.87 325.293 133.508 325.293 135.567C325.293 136.856 324.998 138.047 324.407 139.139C323.816 140.213 322.966 141.162 321.856 141.986C320.746 142.792 319.412 143.418 317.854 143.866C316.297 144.313 314.542 144.537 312.591 144.537C309.816 144.537 307.47 144.045 305.555 143.06C303.639 142.057 302.189 140.804 301.204 139.3C300.237 137.778 299.754 136.239 299.754 134.681H308.187C308.222 135.576 308.437 136.31 308.831 136.883C309.243 137.456 309.789 137.877 310.469 138.146C311.15 138.414 311.937 138.548 312.833 138.548C313.656 138.548 314.336 138.432 314.874 138.199C315.429 137.966 315.849 137.653 316.136 137.259C316.422 136.847 316.565 136.373 316.565 135.836ZM339.097 114.942V144H330.02V114.942H339.097ZM329.483 107.45C329.483 106.161 329.948 105.104 330.879 104.281C331.81 103.457 333.019 103.045 334.505 103.045C335.991 103.045 337.199 103.457 338.13 104.281C339.061 105.104 339.527 106.161 339.527 107.45C339.527 108.739 339.061 109.795 338.13 110.619C337.199 111.442 335.991 111.854 334.505 111.854C333.019 111.854 331.81 111.442 330.879 110.619C329.948 109.795 329.483 108.739 329.483 107.45ZM359.91 135.836C359.91 135.335 359.74 134.905 359.4 134.547C359.078 134.171 358.505 133.831 357.681 133.526C356.858 133.204 355.703 132.882 354.217 132.56C352.802 132.255 351.469 131.852 350.215 131.351C348.98 130.85 347.897 130.241 346.966 129.525C346.035 128.809 345.301 127.958 344.764 126.974C344.244 125.989 343.985 124.861 343.985 123.59C343.985 122.354 344.244 121.191 344.764 120.099C345.301 118.989 346.08 118.013 347.1 117.171C348.139 116.312 349.401 115.641 350.887 115.157C352.373 114.656 354.065 114.405 355.962 114.405C358.576 114.405 360.832 114.808 362.73 115.614C364.628 116.402 366.087 117.512 367.107 118.944C368.146 120.358 368.665 121.996 368.665 123.858H359.615C359.615 123.124 359.489 122.498 359.239 121.979C359.006 121.459 358.621 121.065 358.084 120.797C357.547 120.51 356.831 120.367 355.936 120.367C355.309 120.367 354.736 120.484 354.217 120.716C353.715 120.949 353.313 121.271 353.008 121.683C352.704 122.095 352.552 122.578 352.552 123.133C352.552 123.527 352.641 123.885 352.82 124.208C353.017 124.512 353.313 124.798 353.707 125.067C354.1 125.318 354.602 125.55 355.21 125.765C355.819 125.962 356.553 126.141 357.413 126.302C359.364 126.66 361.19 127.171 362.891 127.833C364.592 128.495 365.971 129.435 367.027 130.653C368.101 131.87 368.638 133.508 368.638 135.567C368.638 136.856 368.343 138.047 367.752 139.139C367.161 140.213 366.311 141.162 365.201 141.986C364.091 142.792 362.757 143.418 361.199 143.866C359.642 144.313 357.887 144.537 355.936 144.537C353.16 144.537 350.815 144.045 348.899 143.06C346.984 142.057 345.534 140.804 344.549 139.3C343.582 137.778 343.099 136.239 343.099 134.681H351.531C351.567 135.576 351.782 136.31 352.176 136.883C352.588 137.456 353.134 137.877 353.814 138.146C354.494 138.414 355.282 138.548 356.177 138.548C357.001 138.548 357.681 138.432 358.218 138.199C358.773 137.966 359.194 137.653 359.48 137.259C359.767 136.847 359.91 136.373 359.91 135.836ZM388.189 114.942V121.227H370.679V114.942H388.189ZM374.358 107.718H383.409V134.52C383.409 135.29 383.498 135.89 383.677 136.319C383.856 136.731 384.161 137.027 384.59 137.206C385.038 137.367 385.629 137.447 386.363 137.447C386.882 137.447 387.312 137.438 387.652 137.42C387.992 137.385 388.314 137.34 388.619 137.286V143.758C387.849 144.009 387.043 144.197 386.202 144.322C385.36 144.465 384.465 144.537 383.516 144.537C381.583 144.537 379.926 144.233 378.548 143.624C377.187 143.015 376.149 142.057 375.433 140.75C374.716 139.444 374.358 137.743 374.358 135.648V107.718ZM406.88 136.695V124.718C406.88 123.894 406.764 123.187 406.531 122.596C406.299 122.005 405.931 121.549 405.43 121.227C404.929 120.886 404.257 120.716 403.416 120.716C402.736 120.716 402.154 120.833 401.67 121.065C401.187 121.298 400.82 121.647 400.569 122.113C400.319 122.578 400.193 123.169 400.193 123.885H391.143C391.143 122.542 391.438 121.298 392.029 120.152C392.638 118.989 393.497 117.977 394.607 117.118C395.735 116.258 397.078 115.596 398.636 115.13C400.211 114.647 401.966 114.405 403.899 114.405C406.209 114.405 408.268 114.79 410.076 115.56C411.902 116.33 413.344 117.485 414.4 119.024C415.456 120.546 415.984 122.462 415.984 124.771V136.668C415.984 138.566 416.092 140.007 416.307 140.992C416.521 141.959 416.826 142.809 417.22 143.543V144H408.143C407.713 143.105 407.391 142.013 407.176 140.724C406.979 139.417 406.88 138.074 406.88 136.695ZM407.981 126.249L408.035 131.083H404.034C403.192 131.083 402.476 131.199 401.885 131.432C401.312 131.664 400.847 131.987 400.489 132.398C400.149 132.792 399.898 133.24 399.737 133.741C399.594 134.243 399.522 134.771 399.522 135.326C399.522 135.863 399.647 136.346 399.898 136.776C400.167 137.188 400.525 137.51 400.972 137.743C401.42 137.975 401.921 138.092 402.476 138.092C403.479 138.092 404.329 137.904 405.027 137.528C405.743 137.134 406.29 136.66 406.666 136.104C407.042 135.549 407.229 135.03 407.229 134.547L409.217 138.253C408.859 138.969 408.447 139.694 407.981 140.428C407.534 141.162 406.97 141.843 406.29 142.469C405.627 143.078 404.812 143.579 403.846 143.973C402.879 144.349 401.706 144.537 400.328 144.537C398.537 144.537 396.89 144.17 395.386 143.436C393.9 142.702 392.71 141.681 391.814 140.375C390.919 139.05 390.472 137.528 390.472 135.809C390.472 134.305 390.74 132.962 391.277 131.781C391.832 130.599 392.665 129.597 393.775 128.773C394.885 127.949 396.299 127.323 398.018 126.893C399.737 126.463 401.76 126.249 404.087 126.249H407.981ZM429.896 121.146V144H420.845V114.942H429.332L429.896 121.146ZM428.821 128.478L426.7 128.531C426.7 126.311 426.968 124.333 427.505 122.596C428.042 120.842 428.803 119.356 429.788 118.138C430.773 116.921 431.945 115.999 433.306 115.372C434.685 114.728 436.215 114.405 437.898 114.405C439.241 114.405 440.468 114.602 441.578 114.996C442.706 115.39 443.672 116.026 444.478 116.903C445.302 117.78 445.928 118.944 446.358 120.394C446.806 121.826 447.029 123.599 447.029 125.711V144H437.925V125.685C437.925 124.521 437.764 123.635 437.442 123.026C437.12 122.399 436.654 121.97 436.045 121.737C435.437 121.504 434.694 121.388 433.816 121.388C432.885 121.388 432.098 121.567 431.453 121.925C430.809 122.283 430.289 122.784 429.896 123.429C429.52 124.055 429.242 124.798 429.063 125.658C428.902 126.517 428.821 127.457 428.821 128.478ZM467.359 114.942V121.227H449.849V114.942H467.359ZM453.528 107.718H462.579V134.52C462.579 135.29 462.668 135.89 462.847 136.319C463.026 136.731 463.331 137.027 463.76 137.206C464.208 137.367 464.799 137.447 465.533 137.447C466.052 137.447 466.482 137.438 466.822 137.42C467.162 137.385 467.484 137.34 467.789 137.286V143.758C467.019 144.009 466.213 144.197 465.372 144.322C464.53 144.465 463.635 144.537 462.686 144.537C460.752 144.537 459.096 144.233 457.718 143.624C456.357 143.015 455.319 142.057 454.603 140.75C453.886 139.444 453.528 137.743 453.528 135.648V107.718Z" fill="black"/>
<path d="M107.176 73.4888C107.176 73.0444 107.107 72.6457 106.971 72.2925C106.845 71.9279 106.606 71.5975 106.253 71.3013C105.9 70.9937 105.404 70.6917 104.766 70.3955C104.128 70.0993 103.302 69.7917 102.288 69.4727C101.16 69.1081 100.089 68.6979 99.0752 68.2422C98.0726 67.7865 97.1839 67.2567 96.4092 66.6528C95.6458 66.0376 95.042 65.3255 94.5977 64.5166C94.1647 63.7077 93.9482 62.7677 93.9482 61.6968C93.9482 60.66 94.1761 59.7201 94.6318 58.877C95.0876 58.0225 95.7256 57.2933 96.5459 56.6895C97.3662 56.0742 98.3346 55.6014 99.4512 55.271C100.579 54.9406 101.815 54.7754 103.16 54.7754C104.994 54.7754 106.595 55.1058 107.962 55.7666C109.329 56.4274 110.389 57.3332 111.141 58.4839C111.904 59.6346 112.286 60.9505 112.286 62.4316H107.193C107.193 61.7025 107.039 61.0645 106.731 60.5176C106.435 59.9593 105.979 59.5207 105.364 59.2017C104.76 58.8826 103.997 58.7231 103.074 58.7231C102.186 58.7231 101.445 58.8599 100.853 59.1333C100.26 59.3953 99.8158 59.7542 99.5195 60.21C99.2233 60.6543 99.0752 61.1556 99.0752 61.7139C99.0752 62.1354 99.1777 62.5171 99.3828 62.8589C99.5993 63.2007 99.9183 63.5197 100.34 63.8159C100.761 64.1121 101.28 64.3913 101.895 64.6533C102.51 64.9154 103.222 65.1717 104.031 65.4224C105.387 65.8325 106.578 66.2939 107.603 66.8066C108.64 67.3193 109.506 67.8947 110.201 68.5327C110.896 69.1707 111.42 69.8942 111.773 70.7031C112.126 71.512 112.303 72.4292 112.303 73.4546C112.303 74.5369 112.092 75.5054 111.67 76.3599C111.249 77.2144 110.639 77.9378 109.842 78.5303C109.044 79.1227 108.093 79.5728 106.988 79.8804C105.883 80.188 104.646 80.3418 103.279 80.3418C102.049 80.3418 100.835 80.1823 99.6392 79.8633C98.4429 79.5329 97.3548 79.0373 96.375 78.3765C95.4066 77.7157 94.6318 76.8726 94.0508 75.8472C93.4697 74.8218 93.1792 73.6084 93.1792 72.207H98.3232C98.3232 72.9818 98.4429 73.6369 98.6821 74.1724C98.9214 74.7078 99.2575 75.1408 99.6904 75.4712C100.135 75.8016 100.659 76.0409 101.263 76.189C101.878 76.3371 102.55 76.4111 103.279 76.4111C104.168 76.4111 104.897 76.2858 105.467 76.0352C106.048 75.7845 106.475 75.437 106.749 74.9927C107.033 74.5483 107.176 74.047 107.176 73.4888ZM114.695 70.9424V70.5835C114.695 69.2277 114.889 67.9801 115.276 66.8408C115.664 65.6901 116.228 64.6932 116.968 63.8501C117.709 63.007 118.62 62.3519 119.703 61.8848C120.785 61.4062 122.027 61.167 123.428 61.167C124.83 61.167 126.077 61.4062 127.171 61.8848C128.265 62.3519 129.182 63.007 129.922 63.8501C130.674 64.6932 131.244 65.6901 131.631 66.8408C132.019 67.9801 132.212 69.2277 132.212 70.5835V70.9424C132.212 72.2868 132.019 73.5343 131.631 74.6851C131.244 75.8244 130.674 76.8213 129.922 77.6758C129.182 78.5189 128.27 79.174 127.188 79.6411C126.106 80.1082 124.864 80.3418 123.462 80.3418C122.061 80.3418 120.813 80.1082 119.72 79.6411C118.637 79.174 117.72 78.5189 116.968 77.6758C116.228 76.8213 115.664 75.8244 115.276 74.6851C114.889 73.5343 114.695 72.2868 114.695 70.9424ZM119.617 70.5835V70.9424C119.617 71.7171 119.686 72.4406 119.822 73.1128C119.959 73.785 120.175 74.3774 120.472 74.8901C120.779 75.3914 121.178 75.7845 121.668 76.0693C122.158 76.3542 122.756 76.4966 123.462 76.4966C124.146 76.4966 124.733 76.3542 125.223 76.0693C125.713 75.7845 126.106 75.3914 126.402 74.8901C126.698 74.3774 126.915 73.785 127.051 73.1128C127.199 72.4406 127.273 71.7171 127.273 70.9424V70.5835C127.273 69.8315 127.199 69.1252 127.051 68.4644C126.915 67.7922 126.692 67.1997 126.385 66.687C126.089 66.1629 125.695 65.7528 125.206 65.4565C124.716 65.1603 124.123 65.0122 123.428 65.0122C122.733 65.0122 122.141 65.1603 121.651 65.4565C121.172 65.7528 120.779 66.1629 120.472 66.687C120.175 67.1997 119.959 67.7922 119.822 68.4644C119.686 69.1252 119.617 69.8315 119.617 70.5835ZM146.175 75.5737V61.5088H151.097V80H146.465L146.175 75.5737ZM146.722 71.7798L148.174 71.7456C148.174 72.9761 148.032 74.1211 147.747 75.1807C147.462 76.2288 147.035 77.1403 146.465 77.915C145.896 78.6784 145.178 79.2765 144.312 79.7095C143.446 80.131 142.426 80.3418 141.253 80.3418C140.353 80.3418 139.521 80.2165 138.758 79.9658C138.006 79.7038 137.356 79.2993 136.81 78.7524C136.274 78.1942 135.853 77.4821 135.545 76.6162C135.249 75.7389 135.101 74.6851 135.101 73.4546V61.5088H140.022V73.4888C140.022 74.0356 140.085 74.4971 140.21 74.873C140.347 75.249 140.535 75.5566 140.774 75.7959C141.014 76.0352 141.293 76.2061 141.612 76.3086C141.942 76.4111 142.307 76.4624 142.706 76.4624C143.72 76.4624 144.517 76.2573 145.098 75.8472C145.691 75.437 146.106 74.8787 146.346 74.1724C146.596 73.4546 146.722 72.6571 146.722 71.7798ZM159.778 65.542V80H154.856V61.5088H159.488L159.778 65.542ZM165.35 61.3892L165.264 65.9521C165.025 65.918 164.734 65.8895 164.393 65.8667C164.062 65.8325 163.76 65.8154 163.487 65.8154C162.792 65.8154 162.188 65.9066 161.675 66.0889C161.174 66.2598 160.752 66.5161 160.411 66.8579C160.08 67.1997 159.83 67.6156 159.659 68.1055C159.499 68.5954 159.408 69.1536 159.385 69.7803L158.394 69.4727C158.394 68.2764 158.514 67.1769 158.753 66.1743C158.992 65.1603 159.34 64.2773 159.795 63.5254C160.263 62.7734 160.832 62.1924 161.504 61.7822C162.177 61.3721 162.946 61.167 163.812 61.167C164.085 61.167 164.364 61.1898 164.649 61.2354C164.934 61.2695 165.167 61.3208 165.35 61.3892ZM177.073 75.8301V67.5928C177.073 67.0003 176.976 66.4933 176.783 66.0718C176.589 65.6388 176.287 65.3027 175.877 65.0635C175.478 64.8242 174.96 64.7046 174.322 64.7046C173.775 64.7046 173.302 64.8014 172.903 64.9951C172.505 65.1774 172.197 65.4451 171.98 65.7983C171.764 66.1401 171.656 66.5446 171.656 67.0117H166.734C166.734 66.2256 166.916 65.4793 167.281 64.7729C167.645 64.0666 168.175 63.4456 168.87 62.9102C169.565 62.3633 170.391 61.936 171.348 61.6284C172.317 61.3208 173.399 61.167 174.595 61.167C176.031 61.167 177.307 61.4062 178.423 61.8848C179.54 62.3633 180.417 63.0811 181.055 64.0381C181.705 64.9951 182.029 66.1914 182.029 67.627V75.5396C182.029 76.5535 182.092 77.3853 182.217 78.0347C182.343 78.6727 182.525 79.231 182.764 79.7095V80H177.791C177.552 79.4987 177.369 78.8721 177.244 78.1201C177.13 77.3568 177.073 76.5934 177.073 75.8301ZM177.723 68.7378L177.757 71.5234H175.005C174.356 71.5234 173.792 71.5975 173.313 71.7456C172.835 71.8937 172.442 72.1045 172.134 72.3779C171.827 72.64 171.599 72.9476 171.451 73.3008C171.314 73.654 171.246 74.0413 171.246 74.4629C171.246 74.8844 171.342 75.2661 171.536 75.6079C171.73 75.9383 172.009 76.2004 172.374 76.394C172.738 76.5763 173.165 76.6675 173.655 76.6675C174.396 76.6675 175.04 76.5194 175.586 76.2231C176.133 75.9269 176.555 75.5623 176.851 75.1294C177.159 74.6965 177.318 74.2863 177.33 73.8989L178.628 75.9839C178.446 76.451 178.195 76.9352 177.876 77.4365C177.569 77.9378 177.176 78.4106 176.697 78.855C176.219 79.2879 175.643 79.6468 174.971 79.9316C174.299 80.2051 173.501 80.3418 172.579 80.3418C171.405 80.3418 170.34 80.1082 169.383 79.6411C168.437 79.1626 167.685 78.5075 167.127 77.6758C166.58 76.8327 166.307 75.8757 166.307 74.8047C166.307 73.8363 166.489 72.9761 166.854 72.2241C167.218 71.4722 167.754 70.8398 168.46 70.3271C169.178 69.8031 170.072 69.41 171.143 69.1479C172.214 68.8745 173.456 68.7378 174.869 68.7378H177.723ZM191.036 77.915L195.94 61.5088H201.221L193.787 82.7856C193.628 83.2528 193.411 83.7541 193.138 84.2896C192.876 84.825 192.517 85.332 192.061 85.8105C191.617 86.3005 191.053 86.6992 190.369 87.0068C189.697 87.3145 188.871 87.4683 187.891 87.4683C187.424 87.4683 187.042 87.4398 186.746 87.3828C186.45 87.3258 186.097 87.2461 185.687 87.1436V83.5376C185.812 83.5376 185.943 83.5376 186.08 83.5376C186.216 83.549 186.347 83.5547 186.473 83.5547C187.122 83.5547 187.652 83.4806 188.062 83.3325C188.472 83.1844 188.803 82.9565 189.053 82.6489C189.304 82.3527 189.503 81.9653 189.651 81.4868L191.036 77.915ZM188.985 61.5088L193.001 74.9072L193.702 80.1196L190.352 80.4785L183.704 61.5088H188.985ZM212.894 75.8301V67.5928C212.894 67.0003 212.797 66.4933 212.603 66.0718C212.409 65.6388 212.107 65.3027 211.697 65.0635C211.299 64.8242 210.78 64.7046 210.142 64.7046C209.595 64.7046 209.122 64.8014 208.724 64.9951C208.325 65.1774 208.017 65.4451 207.801 65.7983C207.584 66.1401 207.476 66.5446 207.476 67.0117H202.554C202.554 66.2256 202.736 65.4793 203.101 64.7729C203.466 64.0666 203.995 63.4456 204.69 62.9102C205.385 62.3633 206.211 61.936 207.168 61.6284C208.137 61.3208 209.219 61.167 210.416 61.167C211.851 61.167 213.127 61.4062 214.244 61.8848C215.36 62.3633 216.237 63.0811 216.875 64.0381C217.525 64.9951 217.85 66.1914 217.85 67.627V75.5396C217.85 76.5535 217.912 77.3853 218.038 78.0347C218.163 78.6727 218.345 79.231 218.584 79.7095V80H213.611C213.372 79.4987 213.19 78.8721 213.064 78.1201C212.951 77.3568 212.894 76.5934 212.894 75.8301ZM213.543 68.7378L213.577 71.5234H210.826C210.176 71.5234 209.612 71.5975 209.134 71.7456C208.655 71.8937 208.262 72.1045 207.955 72.3779C207.647 72.64 207.419 72.9476 207.271 73.3008C207.134 73.654 207.066 74.0413 207.066 74.4629C207.066 74.8844 207.163 75.2661 207.356 75.6079C207.55 75.9383 207.829 76.2004 208.194 76.394C208.558 76.5763 208.986 76.6675 209.476 76.6675C210.216 76.6675 210.86 76.5194 211.407 76.2231C211.954 75.9269 212.375 75.5623 212.671 75.1294C212.979 74.6965 213.139 74.2863 213.15 73.8989L214.449 75.9839C214.266 76.451 214.016 76.9352 213.697 77.4365C213.389 77.9378 212.996 78.4106 212.518 78.855C212.039 79.2879 211.464 79.6468 210.792 79.9316C210.119 80.2051 209.322 80.3418 208.399 80.3418C207.225 80.3418 206.16 80.1082 205.203 79.6411C204.257 79.1626 203.506 78.5075 202.947 77.6758C202.4 76.8327 202.127 75.8757 202.127 74.8047C202.127 73.8363 202.309 72.9761 202.674 72.2241C203.038 71.4722 203.574 70.8398 204.28 70.3271C204.998 69.8031 205.892 69.41 206.963 69.1479C208.034 68.8745 209.276 68.7378 210.689 68.7378H213.543ZM240.784 59.3726L234.017 80H228.565L237.811 55.1172H241.28L240.784 59.3726ZM246.407 80L239.622 59.3726L239.075 55.1172H242.579L251.875 80H246.407ZM246.099 70.7373V74.7534H232.957V70.7373H246.099ZM253.875 53.75H258.797V75.7617L258.301 80H253.875V53.75ZM270.503 70.5664V70.9253C270.503 72.3039 270.355 73.5685 270.059 74.7192C269.774 75.87 269.33 76.8669 268.726 77.71C268.122 78.5417 267.37 79.1911 266.47 79.6582C265.582 80.1139 264.533 80.3418 263.326 80.3418C262.198 80.3418 261.218 80.1139 260.386 79.6582C259.566 79.2025 258.877 78.5588 258.318 77.7271C257.76 76.8953 257.31 75.9212 256.968 74.8047C256.626 73.6882 256.37 72.4691 256.199 71.1475V70.3613C256.37 69.0397 256.626 67.8206 256.968 66.7041C257.31 65.5876 257.76 64.6134 258.318 63.7817C258.877 62.95 259.566 62.3063 260.386 61.8506C261.207 61.3949 262.175 61.167 263.292 61.167C264.511 61.167 265.57 61.4006 266.47 61.8677C267.382 62.3234 268.134 62.9728 268.726 63.8159C269.33 64.6476 269.774 65.6388 270.059 66.7896C270.355 67.9289 270.503 69.1878 270.503 70.5664ZM265.582 70.9253V70.5664C265.582 69.8145 265.525 69.1081 265.411 68.4473C265.308 67.7751 265.126 67.1883 264.864 66.687C264.602 66.1743 264.243 65.7699 263.787 65.4736C263.343 65.1774 262.767 65.0293 262.061 65.0293C261.389 65.0293 260.819 65.1432 260.352 65.3711C259.885 65.599 259.498 65.918 259.19 66.3281C258.894 66.7383 258.672 67.2282 258.523 67.7979C258.375 68.3561 258.284 68.9714 258.25 69.6436V71.8823C258.284 72.7824 258.432 73.5799 258.694 74.2749C258.968 74.9585 259.378 75.4997 259.925 75.8984C260.483 76.2858 261.207 76.4795 262.095 76.4795C262.79 76.4795 263.366 76.3428 263.821 76.0693C264.277 75.7959 264.63 75.4085 264.881 74.9072C265.143 74.4059 265.325 73.8192 265.428 73.147C265.53 72.4634 265.582 71.7228 265.582 70.9253ZM284.483 75.9668V53.75H289.439V80H284.979L284.483 75.9668ZM272.793 70.9766V70.6177C272.793 69.2049 272.953 67.9232 273.272 66.7725C273.591 65.6104 274.058 64.6134 274.673 63.7817C275.289 62.95 276.046 62.3063 276.946 61.8506C277.846 61.3949 278.872 61.167 280.022 61.167C281.105 61.167 282.05 61.3949 282.859 61.8506C283.68 62.3063 284.375 62.9557 284.944 63.7988C285.525 64.6305 285.993 65.616 286.346 66.7554C286.699 67.8833 286.955 69.1195 287.115 70.4639V71.25C286.955 72.5374 286.699 73.7337 286.346 74.8389C285.993 75.944 285.525 76.9124 284.944 77.7441C284.375 78.5645 283.68 79.2025 282.859 79.6582C282.039 80.1139 281.082 80.3418 279.988 80.3418C278.838 80.3418 277.812 80.1082 276.912 79.6411C276.023 79.174 275.271 78.5189 274.656 77.6758C274.052 76.8327 273.591 75.8415 273.272 74.7021C272.953 73.5628 272.793 72.321 272.793 70.9766ZM277.715 70.6177V70.9766C277.715 71.7399 277.772 72.452 277.886 73.1128C278.012 73.7736 278.211 74.3604 278.484 74.873C278.769 75.3743 279.134 75.7674 279.578 76.0522C280.034 76.3257 280.586 76.4624 281.236 76.4624C282.079 76.4624 282.774 76.2744 283.321 75.8984C283.868 75.5111 284.284 74.9813 284.568 74.3091C284.865 73.6369 285.035 72.8621 285.081 71.9849V69.7461C285.047 69.0283 284.944 68.3846 284.773 67.8149C284.614 67.2339 284.375 66.7383 284.056 66.3281C283.748 65.918 283.361 65.599 282.894 65.3711C282.438 65.1432 281.897 65.0293 281.27 65.0293C280.632 65.0293 280.085 65.1774 279.629 65.4736C279.174 65.7585 278.803 66.1515 278.519 66.6528C278.245 67.1541 278.04 67.7466 277.903 68.4302C277.778 69.1024 277.715 69.8315 277.715 70.6177ZM301.795 80.3418C300.359 80.3418 299.072 80.1139 297.933 79.6582C296.793 79.1911 295.825 78.5474 295.027 77.7271C294.241 76.9067 293.637 75.9554 293.216 74.873C292.794 73.7793 292.583 72.6172 292.583 71.3867V70.7031C292.583 69.3018 292.783 68.02 293.182 66.8579C293.58 65.6958 294.15 64.6875 294.891 63.833C295.643 62.9785 296.554 62.3234 297.625 61.8677C298.696 61.4006 299.904 61.167 301.248 61.167C302.558 61.167 303.72 61.3835 304.734 61.8164C305.748 62.2493 306.597 62.8646 307.281 63.6621C307.976 64.4596 308.5 65.4167 308.853 66.5332C309.206 67.6383 309.383 68.8688 309.383 70.2246V72.2754H294.686V68.9941H304.546V68.6182C304.546 67.9346 304.421 67.325 304.17 66.7896C303.931 66.2427 303.567 65.8097 303.077 65.4907C302.587 65.1717 301.96 65.0122 301.197 65.0122C300.547 65.0122 299.989 65.1546 299.522 65.4395C299.055 65.7243 298.673 66.123 298.377 66.6357C298.092 67.1484 297.876 67.7523 297.728 68.4473C297.591 69.1309 297.522 69.8828 297.522 70.7031V71.3867C297.522 72.1273 297.625 72.8109 297.83 73.4375C298.047 74.0641 298.348 74.6053 298.736 75.061C299.135 75.5168 299.613 75.87 300.171 76.1206C300.741 76.3713 301.385 76.4966 302.103 76.4966C302.991 76.4966 303.817 76.3257 304.581 75.9839C305.355 75.6307 306.022 75.1009 306.58 74.3945L308.973 76.9922C308.585 77.5505 308.056 78.0859 307.383 78.5986C306.722 79.1113 305.925 79.5329 304.991 79.8633C304.056 80.1823 302.991 80.3418 301.795 80.3418ZM317.381 53.75V80H312.442V53.75H317.381ZM335.599 55.1172V80H330.472V55.1172H335.599ZM350.501 55.1172L340.64 67.4048L334.949 73.5229L334.026 68.6694L337.872 63.4058L344.212 55.1172H350.501ZM344.673 80L337.342 68.4985L341.136 65.3198L350.74 80H344.673ZM362.396 75.8301V67.5928C362.396 67.0003 362.299 66.4933 362.105 66.0718C361.911 65.6388 361.609 65.3027 361.199 65.0635C360.8 64.8242 360.282 64.7046 359.644 64.7046C359.097 64.7046 358.624 64.8014 358.226 64.9951C357.827 65.1774 357.519 65.4451 357.303 65.7983C357.086 66.1401 356.978 66.5446 356.978 67.0117H352.056C352.056 66.2256 352.238 65.4793 352.603 64.7729C352.968 64.0666 353.497 63.4456 354.192 62.9102C354.887 62.3633 355.713 61.936 356.67 61.6284C357.639 61.3208 358.721 61.167 359.917 61.167C361.353 61.167 362.629 61.4062 363.746 61.8848C364.862 62.3633 365.739 63.0811 366.377 64.0381C367.027 64.9951 367.352 66.1914 367.352 67.627V75.5396C367.352 76.5535 367.414 77.3853 367.54 78.0347C367.665 78.6727 367.847 79.231 368.086 79.7095V80H363.113C362.874 79.4987 362.692 78.8721 362.566 78.1201C362.452 77.3568 362.396 76.5934 362.396 75.8301ZM363.045 68.7378L363.079 71.5234H360.328C359.678 71.5234 359.114 71.5975 358.636 71.7456C358.157 71.8937 357.764 72.1045 357.457 72.3779C357.149 72.64 356.921 72.9476 356.773 73.3008C356.636 73.654 356.568 74.0413 356.568 74.4629C356.568 74.8844 356.665 75.2661 356.858 75.6079C357.052 75.9383 357.331 76.2004 357.696 76.394C358.06 76.5763 358.488 76.6675 358.978 76.6675C359.718 76.6675 360.362 76.5194 360.909 76.2231C361.456 75.9269 361.877 75.5623 362.173 75.1294C362.481 74.6965 362.64 74.2863 362.652 73.8989L363.951 75.9839C363.768 76.451 363.518 76.9352 363.199 77.4365C362.891 77.9378 362.498 78.4106 362.02 78.855C361.541 79.2879 360.966 79.6468 360.293 79.9316C359.621 80.2051 358.824 80.3418 357.901 80.3418C356.727 80.3418 355.662 80.1082 354.705 79.6411C353.759 79.1626 353.007 78.5075 352.449 77.6758C351.902 76.8327 351.629 75.8757 351.629 74.8047C351.629 73.8363 351.811 72.9761 352.176 72.2241C352.54 71.4722 353.076 70.8398 353.782 70.3271C354.5 69.8031 355.394 69.41 356.465 69.1479C357.536 68.8745 358.778 68.7378 360.191 68.7378H363.045ZM382.066 75.9668V53.75H387.022V80H382.562L382.066 75.9668ZM370.376 70.9766V70.6177C370.376 69.2049 370.536 67.9232 370.855 66.7725C371.174 65.6104 371.641 64.6134 372.256 63.7817C372.872 62.95 373.629 62.3063 374.529 61.8506C375.429 61.3949 376.455 61.167 377.605 61.167C378.688 61.167 379.633 61.3949 380.442 61.8506C381.263 62.3063 381.958 62.9557 382.527 63.7988C383.108 64.6305 383.576 65.616 383.929 66.7554C384.282 67.8833 384.538 69.1195 384.698 70.4639V71.25C384.538 72.5374 384.282 73.7337 383.929 74.8389C383.576 75.944 383.108 76.9124 382.527 77.7441C381.958 78.5645 381.263 79.2025 380.442 79.6582C379.622 80.1139 378.665 80.3418 377.571 80.3418C376.421 80.3418 375.395 80.1082 374.495 79.6411C373.606 79.174 372.854 78.5189 372.239 77.6758C371.635 76.8327 371.174 75.8415 370.855 74.7021C370.536 73.5628 370.376 72.321 370.376 70.9766ZM375.298 70.6177V70.9766C375.298 71.7399 375.355 72.452 375.469 73.1128C375.595 73.7736 375.794 74.3604 376.067 74.873C376.352 75.3743 376.717 75.7674 377.161 76.0522C377.617 76.3257 378.169 76.4624 378.819 76.4624C379.662 76.4624 380.357 76.2744 380.904 75.8984C381.451 75.5111 381.867 74.9813 382.151 74.3091C382.448 73.6369 382.618 72.8621 382.664 71.9849V69.7461C382.63 69.0283 382.527 68.3846 382.356 67.8149C382.197 67.2339 381.958 66.7383 381.639 66.3281C381.331 65.918 380.944 65.599 380.477 65.3711C380.021 65.1432 379.48 65.0293 378.853 65.0293C378.215 65.0293 377.668 65.1774 377.212 65.4736C376.757 65.7585 376.386 66.1515 376.102 66.6528C375.828 67.1541 375.623 67.7466 375.486 68.4302C375.361 69.1024 375.298 69.8315 375.298 70.6177ZM399.378 80.3418C397.942 80.3418 396.655 80.1139 395.516 79.6582C394.376 79.1911 393.408 78.5474 392.61 77.7271C391.824 76.9067 391.22 75.9554 390.799 74.873C390.377 73.7793 390.167 72.6172 390.167 71.3867V70.7031C390.167 69.3018 390.366 68.02 390.765 66.8579C391.163 65.6958 391.733 64.6875 392.474 63.833C393.226 62.9785 394.137 62.3234 395.208 61.8677C396.279 61.4006 397.487 61.167 398.831 61.167C400.141 61.167 401.303 61.3835 402.317 61.8164C403.331 62.2493 404.18 62.8646 404.864 63.6621C405.559 64.4596 406.083 65.4167 406.436 66.5332C406.789 67.6383 406.966 68.8688 406.966 70.2246V72.2754H392.269V68.9941H402.129V68.6182C402.129 67.9346 402.004 67.325 401.753 66.7896C401.514 66.2427 401.15 65.8097 400.66 65.4907C400.17 65.1717 399.543 65.0122 398.78 65.0122C398.13 65.0122 397.572 65.1546 397.105 65.4395C396.638 65.7243 396.256 66.123 395.96 66.6357C395.675 67.1484 395.459 67.7523 395.311 68.4473C395.174 69.1309 395.105 69.8828 395.105 70.7031V71.3867C395.105 72.1273 395.208 72.8109 395.413 73.4375C395.63 74.0641 395.931 74.6053 396.319 75.061C396.718 75.5168 397.196 75.87 397.754 76.1206C398.324 76.3713 398.968 76.4966 399.686 76.4966C400.574 76.4966 401.4 76.3257 402.164 75.9839C402.938 75.6307 403.605 75.1009 404.163 74.3945L406.556 76.9922C406.168 77.5505 405.639 78.0859 404.966 78.5986C404.306 79.1113 403.508 79.5329 402.574 79.8633C401.639 80.1823 400.574 80.3418 399.378 80.3418ZM414.69 65.542V80H409.769V61.5088H414.4L414.69 65.542ZM420.262 61.3892L420.176 65.9521C419.937 65.918 419.646 65.8895 419.305 65.8667C418.974 65.8325 418.672 65.8154 418.399 65.8154C417.704 65.8154 417.1 65.9066 416.587 66.0889C416.086 66.2598 415.665 66.5161 415.323 66.8579C414.992 67.1997 414.742 67.6156 414.571 68.1055C414.411 68.5954 414.32 69.1536 414.297 69.7803L413.306 69.4727C413.306 68.2764 413.426 67.1769 413.665 66.1743C413.904 65.1603 414.252 64.2773 414.708 63.5254C415.175 62.7734 415.744 62.1924 416.417 61.7822C417.089 61.3721 417.858 61.167 418.724 61.167C418.997 61.167 419.276 61.1898 419.561 61.2354C419.846 61.2695 420.079 61.3208 420.262 61.3892Z" fill="#888888"/>
<rect x="92" y="181" width="1179" height="80" rx="13.3333" fill="#CCCCCC"/>
<rect x="107" y="196.333" width="208" height="49.3333" rx="4.66667" fill="#888888" stroke="#888888" stroke-width="4"/>
<path d="M171.823 213.167H177.792C178.958 213.167 179.972 213.34 180.833 213.687C181.694 214.035 182.358 214.549 182.823 215.229C183.295 215.91 183.531 216.75 183.531 217.75C183.531 218.618 183.396 219.344 183.125 219.927C182.854 220.51 182.476 220.993 181.99 221.375C181.51 221.75 180.951 222.059 180.312 222.302L179.115 222.979H174.104L174.083 220.156H177.792C178.257 220.156 178.642 220.073 178.948 219.906C179.253 219.74 179.483 219.503 179.635 219.198C179.795 218.885 179.875 218.514 179.875 218.083C179.875 217.646 179.795 217.271 179.635 216.958C179.476 216.646 179.24 216.406 178.927 216.24C178.622 216.073 178.243 215.99 177.792 215.99H175.479V228.333H171.823V213.167ZM180.125 228.333L176.771 221.625L180.646 221.604L184.042 228.177V228.333H180.125ZM191.031 228.542C190.115 228.542 189.295 228.399 188.573 228.115C187.851 227.823 187.24 227.424 186.74 226.917C186.247 226.41 185.868 225.826 185.604 225.167C185.347 224.507 185.219 223.809 185.219 223.073V222.677C185.219 221.851 185.333 221.087 185.562 220.385C185.792 219.677 186.132 219.059 186.583 218.531C187.035 218.003 187.601 217.594 188.281 217.302C188.962 217.003 189.753 216.854 190.656 216.854C191.455 216.854 192.17 216.983 192.802 217.24C193.434 217.497 193.969 217.865 194.406 218.344C194.851 218.823 195.187 219.403 195.417 220.083C195.653 220.764 195.771 221.528 195.771 222.375V223.802H186.562V221.604H192.344V221.333C192.351 220.958 192.285 220.639 192.146 220.375C192.014 220.111 191.819 219.91 191.562 219.771C191.306 219.632 190.993 219.562 190.625 219.562C190.243 219.562 189.927 219.646 189.677 219.812C189.434 219.979 189.243 220.208 189.104 220.5C188.972 220.785 188.878 221.115 188.823 221.49C188.767 221.865 188.74 222.26 188.74 222.677V223.073C188.74 223.49 188.795 223.868 188.906 224.208C189.024 224.549 189.191 224.84 189.406 225.083C189.628 225.319 189.892 225.503 190.198 225.635C190.51 225.767 190.865 225.833 191.26 225.833C191.74 225.833 192.212 225.743 192.677 225.562C193.142 225.382 193.542 225.083 193.875 224.667L195.469 226.562C195.24 226.889 194.913 227.205 194.49 227.51C194.073 227.816 193.573 228.066 192.99 228.26C192.406 228.448 191.753 228.542 191.031 228.542ZM203.052 225.5V220.854C203.052 220.535 203.007 220.26 202.917 220.031C202.826 219.802 202.684 219.625 202.49 219.5C202.295 219.368 202.035 219.302 201.708 219.302C201.444 219.302 201.219 219.347 201.031 219.437C200.844 219.528 200.701 219.663 200.604 219.844C200.507 220.024 200.458 220.253 200.458 220.531H196.948C196.948 220.01 197.062 219.528 197.292 219.083C197.528 218.632 197.861 218.24 198.292 217.906C198.729 217.573 199.25 217.316 199.854 217.135C200.465 216.948 201.146 216.854 201.896 216.854C202.792 216.854 203.59 217.003 204.292 217.302C205 217.601 205.559 218.049 205.969 218.646C206.378 219.236 206.583 219.979 206.583 220.875V225.49C206.583 226.226 206.625 226.785 206.708 227.167C206.792 227.542 206.91 227.872 207.062 228.156V228.333H203.542C203.375 227.986 203.25 227.562 203.167 227.062C203.09 226.556 203.052 226.035 203.052 225.5ZM203.479 221.448L203.5 223.323H201.948C201.622 223.323 201.344 223.368 201.115 223.458C200.892 223.549 200.712 223.674 200.573 223.833C200.441 223.986 200.344 224.16 200.281 224.354C200.226 224.549 200.198 224.753 200.198 224.969C200.198 225.177 200.247 225.365 200.344 225.531C200.448 225.691 200.587 225.816 200.76 225.906C200.934 225.997 201.128 226.042 201.344 226.042C201.733 226.042 202.062 225.969 202.333 225.823C202.611 225.67 202.823 225.486 202.969 225.271C203.115 225.056 203.187 224.854 203.187 224.667L203.958 226.104C203.819 226.382 203.66 226.663 203.479 226.948C203.306 227.233 203.087 227.497 202.823 227.74C202.566 227.976 202.25 228.17 201.875 228.323C201.5 228.469 201.045 228.542 200.51 228.542C199.816 228.542 199.177 228.399 198.594 228.115C198.017 227.83 197.556 227.434 197.208 226.927C196.861 226.413 196.687 225.823 196.687 225.156C196.687 224.573 196.792 224.052 197 223.594C197.215 223.135 197.538 222.747 197.969 222.427C198.399 222.108 198.948 221.865 199.615 221.698C200.281 221.531 201.066 221.448 201.969 221.448H203.479ZM213.292 225.833C213.618 225.833 213.896 225.774 214.125 225.656C214.361 225.531 214.538 225.358 214.656 225.135C214.781 224.906 214.84 224.632 214.833 224.312H218.135C218.142 225.16 217.934 225.903 217.51 226.542C217.094 227.174 216.524 227.667 215.802 228.021C215.087 228.368 214.278 228.542 213.375 228.542C212.493 228.542 211.722 228.399 211.062 228.115C210.403 227.823 209.851 227.42 209.406 226.906C208.969 226.385 208.639 225.778 208.417 225.083C208.201 224.389 208.094 223.635 208.094 222.823V222.583C208.094 221.771 208.201 221.017 208.417 220.323C208.639 219.622 208.969 219.014 209.406 218.5C209.851 217.979 210.399 217.576 211.052 217.292C211.712 217 212.479 216.854 213.354 216.854C214.292 216.854 215.118 217.031 215.833 217.385C216.556 217.74 217.122 218.253 217.531 218.927C217.941 219.601 218.142 220.417 218.135 221.375H214.833C214.84 221.035 214.788 220.729 214.677 220.458C214.566 220.187 214.392 219.972 214.156 219.812C213.927 219.646 213.632 219.562 213.271 219.562C212.91 219.562 212.618 219.642 212.396 219.802C212.174 219.962 212.003 220.184 211.885 220.469C211.774 220.747 211.698 221.066 211.656 221.427C211.622 221.788 211.604 222.174 211.604 222.583V222.823C211.604 223.24 211.622 223.632 211.656 224C211.698 224.361 211.778 224.681 211.896 224.958C212.014 225.229 212.184 225.444 212.406 225.604C212.628 225.757 212.924 225.833 213.292 225.833ZM225.573 217.062V219.5H218.781V217.062H225.573ZM220.208 214.26H223.719V224.656C223.719 224.955 223.753 225.187 223.823 225.354C223.892 225.514 224.01 225.628 224.177 225.698C224.351 225.76 224.58 225.792 224.865 225.792C225.066 225.792 225.233 225.788 225.365 225.781C225.497 225.767 225.622 225.75 225.74 225.729V228.24C225.441 228.337 225.128 228.41 224.802 228.458C224.476 228.514 224.128 228.542 223.76 228.542C223.01 228.542 222.368 228.424 221.833 228.187C221.306 227.951 220.903 227.58 220.625 227.073C220.347 226.566 220.208 225.906 220.208 225.094V214.26ZM233.167 223.573V213.167H236.812V223.573C236.812 224.587 236.58 225.465 236.115 226.208C235.656 226.951 235.031 227.528 234.24 227.937C233.455 228.34 232.573 228.542 231.594 228.542C230.58 228.542 229.677 228.372 228.885 228.031C228.101 227.691 227.483 227.167 227.031 226.458C226.587 225.75 226.365 224.847 226.365 223.75H230.031C230.031 224.264 230.09 224.667 230.208 224.958C230.326 225.243 230.5 225.444 230.729 225.562C230.965 225.674 231.253 225.729 231.594 225.729C231.927 225.729 232.208 225.646 232.437 225.479C232.674 225.306 232.854 225.059 232.979 224.74C233.104 224.413 233.167 224.024 233.167 223.573ZM246.948 224.302C246.948 224.066 246.913 223.854 246.844 223.667C246.774 223.472 246.646 223.292 246.458 223.125C246.271 222.958 246 222.792 245.646 222.625C245.299 222.451 244.84 222.271 244.271 222.083C243.604 221.861 242.962 221.611 242.344 221.333C241.726 221.049 241.174 220.719 240.687 220.344C240.201 219.962 239.816 219.517 239.531 219.01C239.247 218.497 239.104 217.899 239.104 217.219C239.104 216.566 239.25 215.979 239.542 215.458C239.833 214.931 240.24 214.483 240.76 214.115C241.288 213.74 241.906 213.455 242.615 213.26C243.323 213.059 244.097 212.958 244.937 212.958C246.049 212.958 247.028 213.153 247.875 213.542C248.729 213.924 249.396 214.469 249.875 215.177C250.361 215.878 250.604 216.708 250.604 217.667H246.969C246.969 217.285 246.889 216.948 246.729 216.656C246.576 216.365 246.344 216.135 246.031 215.969C245.719 215.802 245.326 215.719 244.854 215.719C244.396 215.719 244.01 215.788 243.698 215.927C243.385 216.066 243.149 216.253 242.99 216.49C242.83 216.719 242.75 216.972 242.75 217.25C242.75 217.479 242.812 217.687 242.937 217.875C243.069 218.056 243.253 218.226 243.49 218.385C243.733 218.545 244.024 218.698 244.365 218.844C244.712 218.99 245.101 219.132 245.531 219.271C246.337 219.528 247.052 219.816 247.677 220.135C248.309 220.448 248.84 220.806 249.271 221.208C249.708 221.604 250.038 222.056 250.26 222.562C250.49 223.069 250.604 223.642 250.604 224.281C250.604 224.962 250.472 225.566 250.208 226.094C249.944 226.622 249.566 227.069 249.073 227.437C248.58 227.799 247.99 228.073 247.302 228.26C246.615 228.448 245.847 228.542 245 228.542C244.222 228.542 243.455 228.444 242.698 228.25C241.948 228.049 241.267 227.743 240.656 227.333C240.045 226.917 239.556 226.385 239.187 225.74C238.826 225.087 238.646 224.312 238.646 223.417H242.312C242.312 223.861 242.372 224.236 242.49 224.542C242.608 224.847 242.781 225.094 243.01 225.281C243.24 225.462 243.521 225.594 243.854 225.677C244.187 225.753 244.569 225.792 245 225.792C245.465 225.792 245.84 225.726 246.125 225.594C246.41 225.455 246.618 225.274 246.75 225.052C246.882 224.823 246.948 224.573 246.948 224.302Z" fill="white"/>
<rect x="339" y="196.333" width="208" height="49.3333" rx="4.66667" fill="#888888" stroke="#888888" stroke-width="4"/>
<path d="M419.073 225.521V228.333H411.406V225.521H419.073ZM412.708 213.167V228.333H409.052V213.167H412.708ZM426.302 225.5V220.854C426.302 220.535 426.257 220.26 426.167 220.031C426.076 219.802 425.934 219.625 425.74 219.5C425.545 219.368 425.285 219.302 424.958 219.302C424.694 219.302 424.469 219.347 424.281 219.437C424.094 219.528 423.951 219.663 423.854 219.844C423.757 220.024 423.708 220.253 423.708 220.531H420.198C420.198 220.01 420.312 219.528 420.542 219.083C420.778 218.632 421.111 218.24 421.542 217.906C421.979 217.573 422.5 217.316 423.104 217.135C423.715 216.948 424.396 216.854 425.146 216.854C426.042 216.854 426.84 217.003 427.542 217.302C428.25 217.601 428.809 218.049 429.219 218.646C429.628 219.236 429.833 219.979 429.833 220.875V225.49C429.833 226.226 429.875 226.785 429.958 227.167C430.042 227.542 430.16 227.872 430.312 228.156V228.333H426.792C426.625 227.986 426.5 227.562 426.417 227.062C426.34 226.556 426.302 226.035 426.302 225.5ZM426.729 221.448L426.75 223.323H425.198C424.872 223.323 424.594 223.368 424.365 223.458C424.142 223.549 423.962 223.674 423.823 223.833C423.691 223.986 423.594 224.16 423.531 224.354C423.476 224.549 423.448 224.753 423.448 224.969C423.448 225.177 423.497 225.365 423.594 225.531C423.698 225.691 423.837 225.816 424.01 225.906C424.184 225.997 424.378 226.042 424.594 226.042C424.983 226.042 425.312 225.969 425.583 225.823C425.861 225.67 426.073 225.486 426.219 225.271C426.365 225.056 426.437 224.854 426.437 224.667L427.208 226.104C427.069 226.382 426.91 226.663 426.729 226.948C426.556 227.233 426.337 227.497 426.073 227.74C425.816 227.976 425.5 228.17 425.125 228.323C424.75 228.469 424.295 228.542 423.76 228.542C423.066 228.542 422.427 228.399 421.844 228.115C421.267 227.83 420.806 227.434 420.458 226.927C420.111 226.413 419.937 225.823 419.937 225.156C419.937 224.573 420.042 224.052 420.25 223.594C420.465 223.135 420.788 222.747 421.219 222.427C421.649 222.108 422.198 221.865 422.865 221.698C423.531 221.531 424.316 221.448 425.219 221.448H426.729ZM435.323 219.854V228.333H431.812V217.062H435.094L435.323 219.854ZM438.656 216.979L438.594 220.24C438.455 220.226 438.267 220.208 438.031 220.187C437.795 220.167 437.597 220.156 437.437 220.156C437.028 220.156 436.674 220.205 436.375 220.302C436.083 220.392 435.84 220.531 435.646 220.719C435.458 220.899 435.319 221.128 435.229 221.406C435.146 221.684 435.108 222.007 435.115 222.375L434.479 221.958C434.479 221.201 434.552 220.514 434.698 219.896C434.851 219.271 435.066 218.733 435.344 218.281C435.622 217.823 435.958 217.472 436.354 217.229C436.75 216.979 437.194 216.854 437.687 216.854C437.861 216.854 438.031 216.865 438.198 216.885C438.372 216.906 438.524 216.937 438.656 216.979ZM445.406 225.5V220.854C445.406 220.535 445.361 220.26 445.271 220.031C445.181 219.802 445.038 219.625 444.844 219.5C444.649 219.368 444.389 219.302 444.063 219.302C443.799 219.302 443.573 219.347 443.385 219.437C443.198 219.528 443.056 219.663 442.958 219.844C442.861 220.024 442.813 220.253 442.813 220.531H439.302C439.302 220.01 439.417 219.528 439.646 219.083C439.882 218.632 440.215 218.24 440.646 217.906C441.083 217.573 441.604 217.316 442.208 217.135C442.819 216.948 443.5 216.854 444.25 216.854C445.146 216.854 445.944 217.003 446.646 217.302C447.354 217.601 447.913 218.049 448.323 218.646C448.733 219.236 448.938 219.979 448.938 220.875V225.49C448.938 226.226 448.979 226.785 449.063 227.167C449.146 227.542 449.264 227.872 449.417 228.156V228.333H445.896C445.729 227.986 445.604 227.562 445.521 227.062C445.444 226.556 445.406 226.035 445.406 225.5ZM445.833 221.448L445.854 223.323H444.302C443.976 223.323 443.698 223.368 443.469 223.458C443.247 223.549 443.066 223.674 442.927 223.833C442.795 223.986 442.698 224.16 442.635 224.354C442.58 224.549 442.552 224.753 442.552 224.969C442.552 225.177 442.601 225.365 442.698 225.531C442.802 225.691 442.941 225.816 443.115 225.906C443.288 225.997 443.483 226.042 443.698 226.042C444.087 226.042 444.417 225.969 444.688 225.823C444.965 225.67 445.177 225.486 445.323 225.271C445.469 225.056 445.542 224.854 445.542 224.667L446.313 226.104C446.174 226.382 446.014 226.663 445.833 226.948C445.66 227.233 445.441 227.497 445.177 227.74C444.92 227.976 444.604 228.17 444.229 228.323C443.854 228.469 443.399 228.542 442.865 228.542C442.17 228.542 441.531 228.399 440.948 228.115C440.372 227.83 439.91 227.434 439.563 226.927C439.215 226.413 439.042 225.823 439.042 225.156C439.042 224.573 439.146 224.052 439.354 223.594C439.569 223.135 439.892 222.747 440.323 222.427C440.753 222.108 441.302 221.865 441.969 221.698C442.635 221.531 443.42 221.448 444.323 221.448H445.833ZM454.781 225.927L457 217.062H460.698L457.01 228.333H454.823L454.781 225.927ZM453.469 217.062L455.656 225.927L455.635 228.333H453.437L449.76 217.062H453.469ZM467.052 228.542C466.135 228.542 465.316 228.399 464.594 228.115C463.872 227.823 463.26 227.424 462.76 226.917C462.267 226.41 461.889 225.826 461.625 225.167C461.368 224.507 461.24 223.809 461.24 223.073V222.677C461.24 221.851 461.354 221.087 461.583 220.385C461.812 219.677 462.153 219.059 462.604 218.531C463.056 218.003 463.622 217.594 464.302 217.302C464.983 217.003 465.774 216.854 466.677 216.854C467.476 216.854 468.191 216.983 468.823 217.24C469.455 217.497 469.99 217.865 470.427 218.344C470.872 218.823 471.208 219.403 471.437 220.083C471.674 220.764 471.792 221.528 471.792 222.375V223.802H462.583V221.604H468.365V221.333C468.372 220.958 468.306 220.639 468.167 220.375C468.035 220.111 467.84 219.91 467.583 219.771C467.326 219.632 467.014 219.562 466.646 219.562C466.264 219.562 465.948 219.646 465.698 219.812C465.455 219.979 465.264 220.208 465.125 220.5C464.993 220.785 464.899 221.115 464.844 221.49C464.788 221.865 464.76 222.26 464.76 222.677V223.073C464.76 223.49 464.816 223.868 464.927 224.208C465.045 224.549 465.212 224.84 465.427 225.083C465.649 225.319 465.913 225.503 466.219 225.635C466.531 225.767 466.885 225.833 467.281 225.833C467.76 225.833 468.233 225.743 468.698 225.562C469.163 225.382 469.562 225.083 469.896 224.667L471.49 226.562C471.26 226.889 470.934 227.205 470.51 227.51C470.094 227.816 469.594 228.066 469.01 228.26C468.427 228.448 467.774 228.542 467.052 228.542ZM476.927 212.333V228.333H473.406V212.333H476.927Z" fill="white"/>
</svg>
