<svg width="1363" height="167" viewBox="0 0 1363 167" fill="none" xmlns="http://www.w3.org/2000/svg">
<rect width="1363" height="167" rx="15" fill="#F0F0F0"/>
<path d="M0 15C0 6.71573 6.71573 0 15 0H37V167H15C6.71573 167 0 160.284 0 152V15Z" fill="#424241"/>
<path d="M100.906 50.9219L93.3945 48.2383V45.0859L103.602 49.375V51.6367L100.906 50.9219ZM93.3945 53.1719L100.918 50.4297L103.602 49.7852V52.0352L93.3945 56.3242V53.1719ZM113.504 40.9375H116.48L120.863 53.4648L125.246 40.9375H128.223L122.059 58H119.668L113.504 40.9375ZM111.898 40.9375H114.863L115.402 53.1484V58H111.898V40.9375ZM126.863 40.9375H129.84V58H126.324V53.1484L126.863 40.9375ZM139.555 55.1406V49.4922C139.555 49.0859 139.488 48.7383 139.355 48.4492C139.223 48.1523 139.016 47.9219 138.734 47.7578C138.461 47.5938 138.105 47.5117 137.668 47.5117C137.293 47.5117 136.969 47.5781 136.695 47.7109C136.422 47.8359 136.211 48.0195 136.062 48.2617C135.914 48.4961 135.84 48.7734 135.84 49.0938H132.465C132.465 48.5547 132.59 48.043 132.84 47.5586C133.09 47.0742 133.453 46.6484 133.93 46.2812C134.406 45.9062 134.973 45.6133 135.629 45.4023C136.293 45.1914 137.035 45.0859 137.855 45.0859C138.84 45.0859 139.715 45.25 140.48 45.5781C141.246 45.9062 141.848 46.3984 142.285 47.0547C142.73 47.7109 142.953 48.5312 142.953 49.5156V54.9414C142.953 55.6367 142.996 56.207 143.082 56.6523C143.168 57.0898 143.293 57.4727 143.457 57.8008V58H140.047C139.883 57.6562 139.758 57.2266 139.672 56.7109C139.594 56.1875 139.555 55.6641 139.555 55.1406ZM140 50.2773L140.023 52.1875H138.137C137.691 52.1875 137.305 52.2383 136.977 52.3398C136.648 52.4414 136.379 52.5859 136.168 52.7734C135.957 52.9531 135.801 53.1641 135.699 53.4062C135.605 53.6484 135.559 53.9141 135.559 54.2031C135.559 54.4922 135.625 54.7539 135.758 54.9883C135.891 55.2148 136.082 55.3945 136.332 55.5273C136.582 55.6523 136.875 55.7148 137.211 55.7148C137.719 55.7148 138.16 55.6133 138.535 55.4102C138.91 55.207 139.199 54.957 139.402 54.6602C139.613 54.3633 139.723 54.082 139.73 53.8164L140.621 55.2461C140.496 55.5664 140.324 55.8984 140.105 56.2422C139.895 56.5859 139.625 56.9102 139.297 57.2148C138.969 57.5117 138.574 57.7578 138.113 57.9531C137.652 58.1406 137.105 58.2344 136.473 58.2344C135.668 58.2344 134.938 58.0742 134.281 57.7539C133.633 57.4258 133.117 56.9766 132.734 56.4062C132.359 55.8281 132.172 55.1719 132.172 54.4375C132.172 53.7734 132.297 53.1836 132.547 52.668C132.797 52.1523 133.164 51.7188 133.648 51.3672C134.141 51.0078 134.754 50.7383 135.488 50.5586C136.223 50.3711 137.074 50.2773 138.043 50.2773H140ZM151.766 45.3203V47.7109H144.383V45.3203H151.766ZM146.211 42.1914H149.586V54.1797C149.586 54.5469 149.633 54.8281 149.727 55.0234C149.828 55.2188 149.977 55.3555 150.172 55.4336C150.367 55.5039 150.613 55.5391 150.91 55.5391C151.121 55.5391 151.309 55.5312 151.473 55.5156C151.645 55.4922 151.789 55.4688 151.906 55.4453L151.918 57.9297C151.629 58.0234 151.316 58.0977 150.98 58.1523C150.645 58.207 150.273 58.2344 149.867 58.2344C149.125 58.2344 148.477 58.1133 147.922 57.8711C147.375 57.6211 146.953 57.2227 146.656 56.6758C146.359 56.1289 146.211 55.4102 146.211 54.5195V42.1914ZM156.98 40V58H153.605V40H156.98ZM156.5 51.2148H155.574C155.582 50.332 155.699 49.5195 155.926 48.7773C156.152 48.0273 156.477 47.3789 156.898 46.832C157.32 46.2773 157.824 45.8477 158.41 45.543C159.004 45.2383 159.66 45.0859 160.379 45.0859C161.004 45.0859 161.57 45.1758 162.078 45.3555C162.594 45.5273 163.035 45.8086 163.402 46.1992C163.777 46.582 164.066 47.0859 164.27 47.7109C164.473 48.3359 164.574 49.0938 164.574 49.9844V58H161.176V49.9609C161.176 49.3984 161.094 48.957 160.93 48.6367C160.773 48.3086 160.543 48.0781 160.238 47.9453C159.941 47.8047 159.574 47.7344 159.137 47.7344C158.652 47.7344 158.238 47.8242 157.895 48.0039C157.559 48.1836 157.289 48.4336 157.086 48.7539C156.883 49.0664 156.734 49.4336 156.641 49.8555C156.547 50.2773 156.5 50.7305 156.5 51.2148ZM180.266 43.8555L175.625 58H171.887L178.227 40.9375H180.605L180.266 43.8555ZM184.121 58L179.469 43.8555L179.094 40.9375H181.496L187.871 58H184.121ZM183.91 51.6484V54.4023H174.898V51.6484H183.91ZM196.098 54.4961C196.098 54.2539 196.027 54.0352 195.887 53.8398C195.746 53.6445 195.484 53.4648 195.102 53.3008C194.727 53.1289 194.184 52.9727 193.473 52.832C192.832 52.6914 192.234 52.5156 191.68 52.3047C191.133 52.0859 190.656 51.8242 190.25 51.5195C189.852 51.2148 189.539 50.8555 189.312 50.4414C189.086 50.0195 188.973 49.5391 188.973 49C188.973 48.4688 189.086 47.9688 189.312 47.5C189.547 47.0312 189.879 46.6172 190.309 46.2578C190.746 45.8906 191.277 45.6055 191.902 45.4023C192.535 45.1914 193.246 45.0859 194.035 45.0859C195.137 45.0859 196.082 45.2617 196.871 45.6133C197.668 45.9648 198.277 46.4492 198.699 47.0664C199.129 47.6758 199.344 48.3711 199.344 49.1523H195.969C195.969 48.8242 195.898 48.5312 195.758 48.2734C195.625 48.0078 195.414 47.8008 195.125 47.6523C194.844 47.4961 194.477 47.418 194.023 47.418C193.648 47.418 193.324 47.4844 193.051 47.6172C192.777 47.7422 192.566 47.9141 192.418 48.1328C192.277 48.3438 192.207 48.5781 192.207 48.8359C192.207 49.0312 192.246 49.207 192.324 49.3633C192.41 49.5117 192.547 49.6484 192.734 49.7734C192.922 49.8984 193.164 50.0156 193.461 50.125C193.766 50.2266 194.141 50.3203 194.586 50.4062C195.5 50.5938 196.316 50.8398 197.035 51.1445C197.754 51.4414 198.324 51.8477 198.746 52.3633C199.168 52.8711 199.379 53.5391 199.379 54.3672C199.379 54.9297 199.254 55.4453 199.004 55.9141C198.754 56.3828 198.395 56.793 197.926 57.1445C197.457 57.4883 196.895 57.7578 196.238 57.9531C195.59 58.1406 194.859 58.2344 194.047 58.2344C192.867 58.2344 191.867 58.0234 191.047 57.6016C190.234 57.1797 189.617 56.6445 189.195 55.9961C188.781 55.3398 188.574 54.668 188.574 53.9805H191.773C191.789 54.4414 191.906 54.8125 192.125 55.0938C192.352 55.375 192.637 55.5781 192.98 55.7031C193.332 55.8281 193.711 55.8906 194.117 55.8906C194.555 55.8906 194.918 55.832 195.207 55.7148C195.496 55.5898 195.715 55.4258 195.863 55.2227C196.02 55.0117 196.098 54.7695 196.098 54.4961ZM208.426 54.4961C208.426 54.2539 208.355 54.0352 208.215 53.8398C208.074 53.6445 207.812 53.4648 207.43 53.3008C207.055 53.1289 206.512 52.9727 205.801 52.832C205.16 52.6914 204.562 52.5156 204.008 52.3047C203.461 52.0859 202.984 51.8242 202.578 51.5195C202.18 51.2148 201.867 50.8555 201.641 50.4414C201.414 50.0195 201.301 49.5391 201.301 49C201.301 48.4688 201.414 47.9688 201.641 47.5C201.875 47.0312 202.207 46.6172 202.637 46.2578C203.074 45.8906 203.605 45.6055 204.23 45.4023C204.863 45.1914 205.574 45.0859 206.363 45.0859C207.465 45.0859 208.41 45.2617 209.199 45.6133C209.996 45.9648 210.605 46.4492 211.027 47.0664C211.457 47.6758 211.672 48.3711 211.672 49.1523H208.297C208.297 48.8242 208.227 48.5312 208.086 48.2734C207.953 48.0078 207.742 47.8008 207.453 47.6523C207.172 47.4961 206.805 47.418 206.352 47.418C205.977 47.418 205.652 47.4844 205.379 47.6172C205.105 47.7422 204.895 47.9141 204.746 48.1328C204.605 48.3438 204.535 48.5781 204.535 48.8359C204.535 49.0312 204.574 49.207 204.652 49.3633C204.738 49.5117 204.875 49.6484 205.062 49.7734C205.25 49.8984 205.492 50.0156 205.789 50.125C206.094 50.2266 206.469 50.3203 206.914 50.4062C207.828 50.5938 208.645 50.8398 209.363 51.1445C210.082 51.4414 210.652 51.8477 211.074 52.3633C211.496 52.8711 211.707 53.5391 211.707 54.3672C211.707 54.9297 211.582 55.4453 211.332 55.9141C211.082 56.3828 210.723 56.793 210.254 57.1445C209.785 57.4883 209.223 57.7578 208.566 57.9531C207.918 58.1406 207.188 58.2344 206.375 58.2344C205.195 58.2344 204.195 58.0234 203.375 57.6016C202.562 57.1797 201.945 56.6445 201.523 55.9961C201.109 55.3398 200.902 54.668 200.902 53.9805H204.102C204.117 54.4414 204.234 54.8125 204.453 55.0938C204.68 55.375 204.965 55.5781 205.309 55.7031C205.66 55.8281 206.039 55.8906 206.445 55.8906C206.883 55.8906 207.246 55.832 207.535 55.7148C207.824 55.5898 208.043 55.4258 208.191 55.2227C208.348 55.0117 208.426 54.7695 208.426 54.4961ZM217.461 45.3203V58H214.074V45.3203H217.461ZM213.863 42.0156C213.863 41.5234 214.035 41.1172 214.379 40.7969C214.723 40.4766 215.184 40.3164 215.762 40.3164C216.332 40.3164 216.789 40.4766 217.133 40.7969C217.484 41.1172 217.66 41.5234 217.66 42.0156C217.66 42.5078 217.484 42.9141 217.133 43.2344C216.789 43.5547 216.332 43.7148 215.762 43.7148C215.184 43.7148 214.723 43.5547 214.379 43.2344C214.035 42.9141 213.863 42.5078 213.863 42.0156ZM227.105 54.4961C227.105 54.2539 227.035 54.0352 226.895 53.8398C226.754 53.6445 226.492 53.4648 226.109 53.3008C225.734 53.1289 225.191 52.9727 224.48 52.832C223.84 52.6914 223.242 52.5156 222.688 52.3047C222.141 52.0859 221.664 51.8242 221.258 51.5195C220.859 51.2148 220.547 50.8555 220.32 50.4414C220.094 50.0195 219.98 49.5391 219.98 49C219.98 48.4688 220.094 47.9688 220.32 47.5C220.555 47.0312 220.887 46.6172 221.316 46.2578C221.754 45.8906 222.285 45.6055 222.91 45.4023C223.543 45.1914 224.254 45.0859 225.043 45.0859C226.145 45.0859 227.09 45.2617 227.879 45.6133C228.676 45.9648 229.285 46.4492 229.707 47.0664C230.137 47.6758 230.352 48.3711 230.352 49.1523H226.977C226.977 48.8242 226.906 48.5312 226.766 48.2734C226.633 48.0078 226.422 47.8008 226.133 47.6523C225.852 47.4961 225.484 47.418 225.031 47.418C224.656 47.418 224.332 47.4844 224.059 47.6172C223.785 47.7422 223.574 47.9141 223.426 48.1328C223.285 48.3438 223.215 48.5781 223.215 48.8359C223.215 49.0312 223.254 49.207 223.332 49.3633C223.418 49.5117 223.555 49.6484 223.742 49.7734C223.93 49.8984 224.172 50.0156 224.469 50.125C224.773 50.2266 225.148 50.3203 225.594 50.4062C226.508 50.5938 227.324 50.8398 228.043 51.1445C228.762 51.4414 229.332 51.8477 229.754 52.3633C230.176 52.8711 230.387 53.5391 230.387 54.3672C230.387 54.9297 230.262 55.4453 230.012 55.9141C229.762 56.3828 229.402 56.793 228.934 57.1445C228.465 57.4883 227.902 57.7578 227.246 57.9531C226.598 58.1406 225.867 58.2344 225.055 58.2344C223.875 58.2344 222.875 58.0234 222.055 57.6016C221.242 57.1797 220.625 56.6445 220.203 55.9961C219.789 55.3398 219.582 54.668 219.582 53.9805H222.781C222.797 54.4414 222.914 54.8125 223.133 55.0938C223.359 55.375 223.645 55.5781 223.988 55.7031C224.34 55.8281 224.719 55.8906 225.125 55.8906C225.562 55.8906 225.926 55.832 226.215 55.7148C226.504 55.5898 226.723 55.4258 226.871 55.2227C227.027 55.0117 227.105 54.7695 227.105 54.4961ZM238.789 45.3203V47.7109H231.406V45.3203H238.789ZM233.234 42.1914H236.609V54.1797C236.609 54.5469 236.656 54.8281 236.75 55.0234C236.852 55.2188 237 55.3555 237.195 55.4336C237.391 55.5039 237.637 55.5391 237.934 55.5391C238.145 55.5391 238.332 55.5312 238.496 55.5156C238.668 55.4922 238.812 55.4688 238.93 55.4453L238.941 57.9297C238.652 58.0234 238.34 58.0977 238.004 58.1523C237.668 58.207 237.297 58.2344 236.891 58.2344C236.148 58.2344 235.5 58.1133 234.945 57.8711C234.398 57.6211 233.977 57.2227 233.68 56.6758C233.383 56.1289 233.234 55.4102 233.234 54.5195V42.1914ZM247.555 55.1406V49.4922C247.555 49.0859 247.488 48.7383 247.355 48.4492C247.223 48.1523 247.016 47.9219 246.734 47.7578C246.461 47.5938 246.105 47.5117 245.668 47.5117C245.293 47.5117 244.969 47.5781 244.695 47.7109C244.422 47.8359 244.211 48.0195 244.062 48.2617C243.914 48.4961 243.84 48.7734 243.84 49.0938H240.465C240.465 48.5547 240.59 48.043 240.84 47.5586C241.09 47.0742 241.453 46.6484 241.93 46.2812C242.406 45.9062 242.973 45.6133 243.629 45.4023C244.293 45.1914 245.035 45.0859 245.855 45.0859C246.84 45.0859 247.715 45.25 248.48 45.5781C249.246 45.9062 249.848 46.3984 250.285 47.0547C250.73 47.7109 250.953 48.5312 250.953 49.5156V54.9414C250.953 55.6367 250.996 56.207 251.082 56.6523C251.168 57.0898 251.293 57.4727 251.457 57.8008V58H248.047C247.883 57.6562 247.758 57.2266 247.672 56.7109C247.594 56.1875 247.555 55.6641 247.555 55.1406ZM248 50.2773L248.023 52.1875H246.137C245.691 52.1875 245.305 52.2383 244.977 52.3398C244.648 52.4414 244.379 52.5859 244.168 52.7734C243.957 52.9531 243.801 53.1641 243.699 53.4062C243.605 53.6484 243.559 53.9141 243.559 54.2031C243.559 54.4922 243.625 54.7539 243.758 54.9883C243.891 55.2148 244.082 55.3945 244.332 55.5273C244.582 55.6523 244.875 55.7148 245.211 55.7148C245.719 55.7148 246.16 55.6133 246.535 55.4102C246.91 55.207 247.199 54.957 247.402 54.6602C247.613 54.3633 247.723 54.082 247.73 53.8164L248.621 55.2461C248.496 55.5664 248.324 55.8984 248.105 56.2422C247.895 56.5859 247.625 56.9102 247.297 57.2148C246.969 57.5117 246.574 57.7578 246.113 57.9531C245.652 58.1406 245.105 58.2344 244.473 58.2344C243.668 58.2344 242.938 58.0742 242.281 57.7539C241.633 57.4258 241.117 56.9766 240.734 56.4062C240.359 55.8281 240.172 55.1719 240.172 54.4375C240.172 53.7734 240.297 53.1836 240.547 52.668C240.797 52.1523 241.164 51.7188 241.648 51.3672C242.141 51.0078 242.754 50.7383 243.488 50.5586C244.223 50.3711 245.074 50.2773 246.043 50.2773H248ZM256.859 48.0273V58H253.484V45.3203H256.648L256.859 48.0273ZM256.367 51.2148H255.453C255.453 50.2773 255.574 49.4336 255.816 48.6836C256.059 47.9258 256.398 47.2812 256.836 46.75C257.273 46.2109 257.793 45.8008 258.395 45.5195C259.004 45.2305 259.684 45.0859 260.434 45.0859C261.027 45.0859 261.57 45.1719 262.062 45.3438C262.555 45.5156 262.977 45.7891 263.328 46.1641C263.688 46.5391 263.961 47.0352 264.148 47.6523C264.344 48.2695 264.441 49.0234 264.441 49.9141V58H261.043V49.9023C261.043 49.3398 260.965 48.9023 260.809 48.5898C260.652 48.2773 260.422 48.0586 260.117 47.9336C259.82 47.8008 259.453 47.7344 259.016 47.7344C258.562 47.7344 258.168 47.8242 257.832 48.0039C257.504 48.1836 257.23 48.4336 257.012 48.7539C256.801 49.0664 256.641 49.4336 256.531 49.8555C256.422 50.2773 256.367 50.7305 256.367 51.2148ZM273.219 45.3203V47.7109H265.836V45.3203H273.219ZM267.664 42.1914H271.039V54.1797C271.039 54.5469 271.086 54.8281 271.18 55.0234C271.281 55.2188 271.43 55.3555 271.625 55.4336C271.82 55.5039 272.066 55.5391 272.363 55.5391C272.574 55.5391 272.762 55.5312 272.926 55.5156C273.098 55.4922 273.242 55.4688 273.359 55.4453L273.371 57.9297C273.082 58.0234 272.77 58.0977 272.434 58.1523C272.098 58.207 271.727 58.2344 271.32 58.2344C270.578 58.2344 269.93 58.1133 269.375 57.8711C268.828 57.6211 268.406 57.2227 268.109 56.6758C267.812 56.1289 267.664 55.4102 267.664 54.5195V42.1914Z" fill="#888888"/>
<path d="M109.93 86.0078V118H102.217V86.0078H109.93ZM119.554 86.0078V91.9624H92.813V86.0078H119.554ZM132.012 118.439C130.079 118.439 128.35 118.139 126.827 117.539C125.303 116.923 124.014 116.081 122.959 115.012C121.919 113.942 121.121 112.712 120.564 111.32C120.022 109.929 119.751 108.457 119.751 106.904V106.069C119.751 104.326 119.993 102.714 120.477 101.235C120.96 99.7407 121.678 98.437 122.63 97.3237C123.582 96.2104 124.776 95.3462 126.211 94.731C127.647 94.1011 129.317 93.7861 131.221 93.7861C132.906 93.7861 134.415 94.0571 135.748 94.5991C137.081 95.1411 138.208 95.9175 139.131 96.9282C140.069 97.939 140.779 99.1621 141.263 100.598C141.761 102.033 142.01 103.645 142.01 105.432V108.442H122.586V103.806H134.781V103.234C134.795 102.443 134.656 101.77 134.363 101.213C134.085 100.656 133.675 100.231 133.133 99.9385C132.591 99.6455 131.932 99.499 131.155 99.499C130.35 99.499 129.683 99.6748 129.156 100.026C128.643 100.378 128.24 100.861 127.947 101.477C127.669 102.077 127.471 102.773 127.354 103.564C127.237 104.355 127.178 105.19 127.178 106.069V106.904C127.178 107.783 127.295 108.581 127.53 109.299C127.779 110.017 128.13 110.632 128.584 111.145C129.053 111.643 129.61 112.031 130.254 112.309C130.914 112.587 131.661 112.727 132.496 112.727C133.506 112.727 134.502 112.536 135.484 112.155C136.465 111.774 137.308 111.145 138.011 110.266L141.373 114.265C140.889 114.953 140.201 115.62 139.307 116.264C138.428 116.909 137.374 117.436 136.143 117.846C134.913 118.242 133.536 118.439 132.012 118.439ZM155.062 112.727C155.75 112.727 156.336 112.602 156.819 112.353C157.317 112.089 157.691 111.723 157.94 111.254C158.204 110.771 158.328 110.192 158.313 109.519H165.279C165.293 111.306 164.854 112.873 163.96 114.221C163.082 115.554 161.88 116.594 160.357 117.341C158.848 118.073 157.142 118.439 155.237 118.439C153.377 118.439 151.751 118.139 150.359 117.539C148.968 116.923 147.803 116.074 146.866 114.99C145.943 113.891 145.247 112.609 144.778 111.145C144.324 109.68 144.097 108.09 144.097 106.376V105.871C144.097 104.157 144.324 102.568 144.778 101.103C145.247 99.6235 145.943 98.3418 146.866 97.2578C147.803 96.1592 148.96 95.3096 150.337 94.709C151.729 94.0938 153.348 93.7861 155.193 93.7861C157.171 93.7861 158.914 94.1597 160.423 94.9067C161.946 95.6538 163.14 96.7378 164.004 98.1587C164.869 99.5796 165.293 101.301 165.279 103.322H158.313C158.328 102.604 158.218 101.96 157.984 101.389C157.75 100.817 157.383 100.363 156.885 100.026C156.402 99.6748 155.779 99.499 155.018 99.499C154.256 99.499 153.641 99.6675 153.172 100.004C152.703 100.341 152.344 100.81 152.095 101.411C151.861 101.997 151.7 102.67 151.612 103.432C151.539 104.194 151.502 105.007 151.502 105.871V106.376C151.502 107.255 151.539 108.083 151.612 108.859C151.7 109.621 151.868 110.295 152.117 110.881C152.366 111.452 152.725 111.906 153.194 112.243C153.663 112.565 154.285 112.727 155.062 112.727ZM175.694 84.25V118H168.289V84.25H175.694ZM174.815 105.3L173.079 105.344C173.079 103.674 173.284 102.136 173.694 100.729C174.104 99.3232 174.69 98.1001 175.452 97.0601C176.214 96.02 177.129 95.2144 178.199 94.6431C179.268 94.0718 180.455 93.7861 181.758 93.7861C182.93 93.7861 184 93.9546 184.966 94.2915C185.948 94.6284 186.79 95.1704 187.493 95.9175C188.211 96.6646 188.76 97.6387 189.141 98.8398C189.537 100.041 189.734 101.506 189.734 103.234V118H182.286V103.19C182.286 102.224 182.146 101.477 181.868 100.949C181.604 100.407 181.224 100.034 180.726 99.8286C180.228 99.6089 179.62 99.499 178.902 99.499C178.038 99.499 177.334 99.6455 176.792 99.9385C176.25 100.231 175.833 100.642 175.54 101.169C175.262 101.682 175.071 102.29 174.969 102.993C174.866 103.696 174.815 104.465 174.815 105.3ZM221.88 109.497C221.88 108.999 221.807 108.552 221.661 108.156C221.514 107.746 221.243 107.365 220.848 107.014C220.452 106.662 219.881 106.311 219.134 105.959C218.401 105.593 217.435 105.212 216.233 104.816C214.827 104.348 213.472 103.82 212.168 103.234C210.865 102.634 209.7 101.938 208.675 101.147C207.649 100.341 206.836 99.4038 206.236 98.3345C205.635 97.2505 205.335 95.9907 205.335 94.5552C205.335 93.1782 205.643 91.9404 206.258 90.8418C206.873 89.7285 207.73 88.7837 208.829 88.0073C209.942 87.2163 211.246 86.6157 212.74 86.2056C214.234 85.7808 215.867 85.5684 217.64 85.5684C219.983 85.5684 222.049 85.9785 223.836 86.7988C225.638 87.6045 227.044 88.7544 228.055 90.2485C229.08 91.728 229.593 93.4785 229.593 95.5H221.924C221.924 94.6943 221.756 93.9839 221.419 93.3687C221.097 92.7534 220.606 92.27 219.947 91.9185C219.288 91.5669 218.46 91.3911 217.464 91.3911C216.497 91.3911 215.684 91.5376 215.025 91.8306C214.366 92.1235 213.868 92.519 213.531 93.0171C213.194 93.5005 213.025 94.0352 213.025 94.6211C213.025 95.1045 213.157 95.5439 213.421 95.9395C213.699 96.3203 214.087 96.6792 214.585 97.0161C215.098 97.353 215.713 97.6753 216.431 97.9829C217.164 98.2905 217.984 98.5908 218.892 98.8838C220.591 99.4258 222.1 100.034 223.418 100.708C224.751 101.367 225.872 102.121 226.78 102.971C227.703 103.806 228.399 104.758 228.868 105.827C229.351 106.896 229.593 108.105 229.593 109.453C229.593 110.888 229.314 112.163 228.758 113.276C228.201 114.389 227.403 115.334 226.363 116.11C225.323 116.872 224.078 117.451 222.627 117.846C221.177 118.242 219.559 118.439 217.771 118.439C216.131 118.439 214.512 118.234 212.916 117.824C211.333 117.399 209.898 116.755 208.609 115.891C207.32 115.012 206.287 113.891 205.511 112.529C204.749 111.152 204.368 109.519 204.368 107.629H212.103C212.103 108.566 212.227 109.357 212.476 110.002C212.725 110.646 213.091 111.167 213.575 111.562C214.058 111.943 214.651 112.221 215.354 112.397C216.058 112.558 216.863 112.639 217.771 112.639C218.753 112.639 219.544 112.5 220.145 112.221C220.745 111.928 221.185 111.547 221.463 111.079C221.741 110.595 221.88 110.068 221.88 109.497ZM245.743 94.2256V99.3672H231.417V94.2256H245.743ZM234.427 88.3149H241.832V110.244C241.832 110.874 241.905 111.364 242.051 111.716C242.198 112.053 242.447 112.294 242.798 112.441C243.165 112.573 243.648 112.639 244.249 112.639C244.673 112.639 245.025 112.631 245.303 112.617C245.582 112.587 245.845 112.551 246.094 112.507V117.802C245.464 118.007 244.805 118.161 244.117 118.264C243.428 118.381 242.696 118.439 241.919 118.439C240.337 118.439 238.982 118.19 237.854 117.692C236.741 117.194 235.892 116.411 235.306 115.341C234.72 114.272 234.427 112.88 234.427 111.167V88.3149ZM261.036 112.023V102.224C261.036 101.55 260.94 100.971 260.75 100.488C260.56 100.004 260.259 99.6309 259.849 99.3672C259.439 99.0889 258.89 98.9497 258.201 98.9497C257.645 98.9497 257.168 99.0449 256.773 99.2354C256.377 99.4258 256.077 99.7114 255.872 100.092C255.667 100.473 255.564 100.957 255.564 101.542H248.16C248.16 100.444 248.401 99.4258 248.885 98.4883C249.383 97.5361 250.086 96.7085 250.994 96.0054C251.917 95.3022 253.016 94.7603 254.29 94.3794C255.579 93.9839 257.015 93.7861 258.597 93.7861C260.486 93.7861 262.171 94.1011 263.65 94.731C265.145 95.3608 266.324 96.3057 267.188 97.5654C268.052 98.8105 268.484 100.378 268.484 102.268V112.001C268.484 113.554 268.572 114.733 268.748 115.539C268.924 116.33 269.173 117.026 269.495 117.626V118H262.068C261.717 117.268 261.453 116.374 261.277 115.319C261.116 114.25 261.036 113.151 261.036 112.023ZM261.937 103.476L261.98 107.431H258.707C258.018 107.431 257.432 107.526 256.949 107.717C256.48 107.907 256.099 108.171 255.806 108.508C255.528 108.83 255.323 109.196 255.191 109.606C255.074 110.017 255.015 110.449 255.015 110.903C255.015 111.342 255.118 111.738 255.323 112.089C255.542 112.426 255.835 112.69 256.202 112.88C256.568 113.071 256.978 113.166 257.432 113.166C258.252 113.166 258.948 113.012 259.52 112.705C260.105 112.382 260.552 111.994 260.86 111.54C261.167 111.086 261.321 110.661 261.321 110.266L262.947 113.298C262.654 113.884 262.317 114.477 261.937 115.078C261.57 115.678 261.109 116.235 260.552 116.748C260.01 117.246 259.344 117.656 258.553 117.978C257.762 118.286 256.802 118.439 255.674 118.439C254.209 118.439 252.862 118.139 251.631 117.539C250.416 116.938 249.441 116.103 248.709 115.034C247.977 113.95 247.61 112.705 247.61 111.298C247.61 110.068 247.83 108.969 248.27 108.002C248.724 107.036 249.405 106.215 250.313 105.542C251.221 104.868 252.378 104.355 253.785 104.003C255.191 103.652 256.846 103.476 258.75 103.476H261.937ZM282.635 112.727C283.323 112.727 283.909 112.602 284.393 112.353C284.891 112.089 285.264 111.723 285.513 111.254C285.777 110.771 285.901 110.192 285.887 109.519H292.852C292.867 111.306 292.427 112.873 291.534 114.221C290.655 115.554 289.454 116.594 287.93 117.341C286.421 118.073 284.715 118.439 282.811 118.439C280.95 118.439 279.324 118.139 277.933 117.539C276.541 116.923 275.376 116.074 274.439 114.99C273.516 113.891 272.82 112.609 272.352 111.145C271.897 109.68 271.67 108.09 271.67 106.376V105.871C271.67 104.157 271.897 102.568 272.352 101.103C272.82 99.6235 273.516 98.3418 274.439 97.2578C275.376 96.1592 276.534 95.3096 277.911 94.709C279.302 94.0938 280.921 93.7861 282.767 93.7861C284.744 93.7861 286.487 94.1597 287.996 94.9067C289.52 95.6538 290.713 96.7378 291.578 98.1587C292.442 99.5796 292.867 101.301 292.852 103.322H285.887C285.901 102.604 285.792 101.96 285.557 101.389C285.323 100.817 284.957 100.363 284.458 100.026C283.975 99.6748 283.353 99.499 282.591 99.499C281.829 99.499 281.214 99.6675 280.745 100.004C280.276 100.341 279.917 100.81 279.668 101.411C279.434 101.997 279.273 102.67 279.185 103.432C279.112 104.194 279.075 105.007 279.075 105.871V106.376C279.075 107.255 279.112 108.083 279.185 108.859C279.273 109.621 279.441 110.295 279.69 110.881C279.939 111.452 280.298 111.906 280.767 112.243C281.236 112.565 281.858 112.727 282.635 112.727ZM303.487 84.228V118H296.082V84.228H303.487ZM318.692 94.2256L308.365 106.333L302.959 111.738L299.729 107.036L304.234 101.169L309.815 94.2256H318.692ZM310.76 118L304.41 107.167L309.881 103.278L319.241 118H310.76Z" fill="#424241"/>
<path d="M1363 15C1363 6.71573 1356.28 0 1348 0H1134V167H1348C1356.28 167 1363 160.284 1363 152V15Z" fill="#E09E50"/>
<path fill-rule="evenodd" clip-rule="evenodd" d="M1218.5 55C1218.37 55 1218.24 55.0527 1218.15 55.1464C1218.05 55.2402 1218 55.3674 1218 55.5V111.5C1218 111.633 1218.05 111.76 1218.15 111.854C1218.24 111.947 1218.37 112 1218.5 112H1278C1278.13 112 1278.26 111.947 1278.35 111.854C1278.45 111.76 1278.5 111.633 1278.5 111.5V66C1278.5 65.8674 1278.45 65.7402 1278.35 65.6464C1278.26 65.5527 1278.13 65.5 1278 65.5H1248.25C1247.36 65.5 1246.52 65.1045 1245.95 64.4206L1238.09 55H1218.5ZM1213.9 50.9038C1215.12 49.6848 1216.78 49 1218.5 49H1239.5C1240.39 49 1241.23 49.3955 1241.8 50.0794L1249.66 59.5H1278C1279.72 59.5 1281.38 60.1848 1282.6 61.4038C1283.82 62.6228 1284.5 64.2761 1284.5 66V111.5C1284.5 113.224 1283.82 114.877 1282.6 116.096C1281.38 117.315 1279.72 118 1278 118H1218.5C1216.78 118 1215.12 117.315 1213.9 116.096C1212.68 114.877 1212 113.224 1212 111.5V55.5C1212 53.7761 1212.68 52.1228 1213.9 50.9038Z" fill="white"/>
<path fill-rule="evenodd" clip-rule="evenodd" d="M1243.72 77.5251C1245.09 78.892 1245.09 81.108 1243.72 82.4749L1237.45 88.75L1243.72 95.0251C1245.09 96.392 1245.09 98.608 1243.72 99.9749C1242.36 101.342 1240.14 101.342 1238.78 99.9749L1230.03 91.2249C1228.66 89.858 1228.66 87.642 1230.03 86.2751L1238.78 77.5251C1240.14 76.1583 1242.36 76.1583 1243.72 77.5251Z" fill="white"/>
<path fill-rule="evenodd" clip-rule="evenodd" d="M1252.03 99.9749C1250.66 98.608 1250.66 96.392 1252.03 95.0251L1258.3 88.75L1252.03 82.4749C1250.66 81.108 1250.66 78.892 1252.03 77.5251C1253.39 76.1583 1255.61 76.1583 1256.97 77.5251L1265.72 86.2751C1267.09 87.642 1267.09 89.858 1265.72 91.2249L1256.97 99.9749C1255.61 101.342 1253.39 101.342 1252.03 99.9749Z" fill="white"/>
</svg>
